<svg width="82" height="78" viewBox="0 0 82 78" fill="none" xmlns="http://www.w3.org/2000/svg">
<path d="M13.431 77.6267L12.1123 73.3125H5.47897L4.15874 77.6267H0L6.42568 59.4255H11.1447L17.5961 77.6267H13.431ZM11.1898 70.0916C9.96938 66.1809 9.28243 63.9695 9.12894 63.4575C8.97598 62.9461 8.86489 62.5405 8.79888 62.2423C8.52517 63.3004 7.74054 65.919 6.445 70.098L11.1898 70.0916Z" fill="#7166F8"/>
<path d="M23.7469 70.6725V77.6272H19.8828V59.4997H25.1847C27.6599 59.4997 29.4905 59.9481 30.6766 60.8448C31.8626 61.7415 32.4562 63.1037 32.4573 64.9314C32.4725 65.9492 32.163 66.9455 31.5733 67.7771C30.936 68.6458 30.0694 69.3217 29.0697 69.7298C31.81 73.8051 33.595 76.4376 34.4247 77.6272H30.142L25.7949 70.6725H23.7469ZM23.7469 67.5478H24.9931C26.2135 67.5478 27.1141 67.3453 27.6948 66.9402C28.2754 66.5351 28.5658 65.8986 28.5658 65.0308C28.5658 64.1693 28.269 63.5574 27.6754 63.1951C27.0819 62.8328 26.1625 62.6511 24.9174 62.65H23.7469V67.5478Z" fill="#7166F8"/>
<path d="M47.8675 77.6267L46.5488 73.3125H39.9106L38.5904 77.6267H34.4316L40.8573 59.4255H45.5764L52.0278 77.6267H47.8675ZM45.6263 70.0916C44.4059 66.1809 43.7189 63.9695 43.5654 63.4575C43.4125 62.9461 43.3014 62.5405 43.2434 62.2423C42.9697 63.3004 42.1856 65.919 40.8911 70.098L45.6263 70.0916Z" fill="#7166F8"/>
<path d="M68.9615 77.6272H64.5789L59.81 69.9895L58.1774 71.155V77.6272H54.3262V59.4997H58.1903V67.7947L59.7102 65.6624L64.6305 59.4997H68.9132L62.5632 67.5157L68.9615 77.6272Z" fill="#7166F8"/>
<path d="M81.9999 72.5941C81.9999 74.2304 81.4095 75.52 80.2288 76.4626C79.0481 77.4053 77.4021 77.8767 75.2908 77.8767C73.347 77.8767 71.6296 77.5133 70.1387 76.7865V73.2145C71.1468 73.6795 72.1901 74.0649 73.2589 74.3672C74.0194 74.5786 74.8041 74.6913 75.5935 74.7023C76.4404 74.7023 77.0898 74.542 77.5417 74.2214C77.9941 73.9007 78.2211 73.4197 78.2211 72.7785C78.2258 72.4388 78.1208 72.1067 77.9216 71.831C77.6793 71.5139 77.3822 71.2425 77.0441 71.0294C76.2821 70.5745 75.494 70.1644 74.6838 69.8013C73.5718 69.2808 72.7373 68.7806 72.1802 68.3007C71.6333 67.8324 71.1813 67.2643 70.8487 66.6269C70.5041 65.9341 70.3334 65.1683 70.3512 64.3953C70.3512 62.7921 70.897 61.5314 71.9886 60.6133C73.0802 59.6952 74.5888 59.2367 76.5144 59.2377C77.4279 59.2331 78.3381 59.3457 79.2225 59.5728C80.1443 59.8176 81.0458 60.1322 81.9194 60.5139L80.6732 63.5023C79.8885 63.1699 79.0815 62.8924 78.2581 62.6718C77.6453 62.5187 77.0159 62.4406 76.384 62.4394C75.6531 62.4394 75.0928 62.6088 74.7031 62.9476C74.5118 63.111 74.3599 63.3151 74.2584 63.5449C74.157 63.7747 74.1087 64.0242 74.1171 64.275C74.11 64.5869 74.1921 64.8944 74.3538 65.1616C74.5525 65.4537 74.8088 65.7025 75.1073 65.8927C75.4518 66.1289 76.2676 66.5527 77.5545 67.164C79.2569 67.9731 80.4231 68.7854 81.0532 69.6009C81.6832 70.4164 81.9988 71.4141 81.9999 72.5941Z" fill="#7166F8"/>
<path d="M68.7982 42.6694C68.341 41.8085 67.8708 40.954 67.4232 40.0867C66.6311 38.5524 48.4472 3.67616 47.0111 0.86894C46.7052 0.270942 46.2689 0 45.5862 0C42.5658 0.0181697 39.5453 0.0181697 36.5249 0C35.9195 0 35.5057 0.216433 35.2207 0.747096C34.274 2.52345 15.3834 38.7352 13.2372 42.849C12.8556 43.5833 12.949 44.0418 13.5415 44.6205C15.3834 46.4226 17.2446 48.2021 19.0446 50.0474C19.3376 50.3721 19.6988 50.6284 20.1026 50.7983C20.5064 50.9681 20.9428 51.0473 21.3808 51.0302C34.2949 51.0029 61.033 51.0061 61.4886 51.0045C61.685 51.0051 61.8795 50.9658 62.0603 50.8892C62.241 50.8126 62.4042 50.7002 62.54 50.5588C64.5107 48.6189 66.4926 46.6903 68.4633 44.7488C69.2265 44.0001 69.2861 43.5881 68.7982 42.6694ZM40.8994 2.38237C42.0988 2.42245 43.2999 2.41764 44.4994 2.38237C44.9245 2.36954 45.1322 2.52506 45.3044 2.87456C46.0273 4.28217 64.4221 39.5736 65.0291 40.7103C65.2416 41.1127 65.2062 41.2762 64.6862 41.2746C54.4656 41.2629 44.244 41.2629 34.0212 41.2746C33.5076 41.2746 33.3515 41.1817 33.6107 40.6766C34.2144 39.4967 34.6202 38.2301 35.232 37.0502C35.4751 36.5853 35.6989 36.3913 36.2431 36.3929C42.4096 36.4137 55.0307 36.4105 55.1756 36.4057C56.2157 36.372 56.7647 35.54 56.3027 34.6133C55.3962 32.8145 41.4548 4.69099 40.5516 2.91464C40.3358 2.47696 40.3793 2.36634 40.8994 2.38237ZM41.0233 24.2694C41.4741 24.8081 44.9856 32.8915 45.2916 33.5424C45.4365 33.8518 45.4687 34.0233 45.0211 34.0153C42.3752 34.0025 39.7305 34.0025 37.0868 34.0153C36.5136 34.0153 36.7374 33.738 36.8517 33.4846C38.1027 30.7159 40.8881 24.5468 41.0233 24.2694ZM19.9044 46.6743C19.7578 47.1007 19.592 47.1696 19.2426 46.8105C18.3507 45.8935 17.4249 45.0101 16.5136 44.1139C15.7279 43.3396 15.7263 43.3396 16.256 42.3231C17.2993 40.3207 36.2656 3.88458 36.8066 2.86494C36.9129 2.66774 36.9676 2.38397 37.2896 2.35832C37.6406 2.33107 37.7485 2.60522 37.8628 2.83928C39.4922 6.13709 52.8153 33.0197 52.9216 33.2361C53.2774 33.9528 53.2822 33.9528 52.511 33.9544C51.2799 33.9544 50.0487 33.9544 48.8176 33.9544C48.5535 33.9544 48.2814 33.9881 48.0431 33.8229C48.0431 33.8229 47.8515 33.6369 48.0029 33.7957C47.9288 33.5343 39.9526 15.7002 38.9592 13.483C38.8589 13.2104 38.6635 12.9828 38.4086 12.8417C37.7276 12.4986 37.0159 12.7183 36.6472 13.4461C34.683 17.3147 20.0927 46.1227 19.9044 46.6743ZM65.7085 44.0033C64.2837 45.4061 62.8491 46.8025 61.4323 48.2149C61.3186 48.3315 61.1812 48.4224 61.0293 48.4816C60.8773 48.5407 60.7145 48.5668 60.5516 48.558C47.866 48.55 22.086 48.558 21.8074 48.558C22.1568 47.641 35.9452 20.3111 37.4426 17.3483C37.5134 17.2057 37.5311 16.9764 37.7066 16.9652C37.9417 16.9507 37.9433 17.2105 38.0142 17.3676C38.531 18.5107 39.0317 19.6602 39.5582 20.7968C39.6169 20.9132 39.6476 21.0417 39.6476 21.172C39.6476 21.3023 39.6169 21.4307 39.5582 21.5471C39.204 22.4 32.2647 37.7604 30.4969 41.7059C29.9269 42.9789 30.4147 43.6923 31.8123 43.6923H65.7842C65.8 43.7176 65.8106 43.7458 65.8153 43.7752C65.82 43.8046 65.8189 43.8346 65.8118 43.8636C65.8048 43.8925 65.792 43.9198 65.7743 43.9438C65.7565 43.9678 65.7342 43.988 65.7085 44.0033Z" fill="url(#paint0_linear)"/>
<defs>
<linearGradient id="paint0_linear" x1="41.0604" y1="-4.55312" x2="41.0604" y2="47.3925" gradientUnits="userSpaceOnUse">
<stop stop-color="#FE794F"/>
<stop offset="1" stop-color="#7166F8"/>
</linearGradient>
</defs>
</svg>
