<svg width="13" height="13" viewBox="0 0 13 13" fill="none" xmlns="http://www.w3.org/2000/svg">
<path d="M3.00732 10.0156C3.03662 10.0156 3.06592 10.0127 3.09522 10.0083L5.55908 9.57617C5.58838 9.57031 5.61621 9.55713 5.63672 9.53516L11.8462 3.32568C11.8598 3.31213 11.8705 3.29604 11.8779 3.27831C11.8852 3.26059 11.889 3.2416 11.889 3.22241C11.889 3.20323 11.8852 3.18423 11.8779 3.16651C11.8705 3.14879 11.8598 3.13269 11.8462 3.11914L9.41162 0.683105C9.38379 0.655273 9.34717 0.640625 9.30762 0.640625C9.26807 0.640625 9.23145 0.655273 9.20361 0.683105L2.99414 6.89258C2.97217 6.91455 2.95898 6.94092 2.95312 6.97021L2.521 9.43408C2.50675 9.51256 2.51184 9.59332 2.53583 9.66938C2.55982 9.74544 2.60199 9.81451 2.65869 9.87061C2.75537 9.96436 2.87695 10.0156 3.00732 10.0156ZM3.99463 7.46094L9.30762 2.14941L10.3813 3.22314L5.06836 8.53467L3.76611 8.76465L3.99463 7.46094ZM12.123 11.2461H1.3418C1.08252 11.2461 0.873047 11.4556 0.873047 11.7148V12.2422C0.873047 12.3066 0.925781 12.3594 0.990234 12.3594H12.4746C12.5391 12.3594 12.5918 12.3066 12.5918 12.2422V11.7148C12.5918 11.4556 12.3823 11.2461 12.123 11.2461Z" fill="#424242"/>
</svg>
