<svg width="19" height="18" viewBox="0 0 19 18" fill="none" xmlns="http://www.w3.org/2000/svg">
<path d="M17.7954 11.2879L16.4795 10.1629C16.5417 9.78115 16.5739 9.39139 16.5739 9.00163C16.5739 8.61187 16.5417 8.22211 16.4795 7.84039L17.7954 6.71531C17.8947 6.63034 17.9657 6.51717 17.9991 6.39084C18.0324 6.26452 18.0266 6.13103 17.9822 6.00812L17.9642 5.95588C17.6019 4.94336 17.0594 4.00475 16.3629 3.18538L16.3268 3.14319C16.2423 3.04384 16.1297 2.97243 16.0038 2.93836C15.8779 2.90429 15.7446 2.90916 15.6216 2.95233L13.9882 3.53295C13.3855 3.03872 12.7125 2.64896 11.9852 2.37572L11.6697 0.668015C11.646 0.53952 11.5836 0.421306 11.491 0.329081C11.3984 0.236855 11.28 0.174983 11.1514 0.151685L11.0972 0.141639C10.0504 -0.0472131 8.94947 -0.0472131 7.90275 0.141639L7.8485 0.151685C7.71991 0.174983 7.60146 0.236855 7.50887 0.329081C7.41629 0.421306 7.35396 0.53952 7.33016 0.668015L7.01273 2.38376C6.29125 2.65705 5.61937 3.0466 5.02375 3.53696L3.37832 2.95233C3.2553 2.90881 3.12195 2.90377 2.99599 2.93786C2.87003 2.97195 2.75742 3.04357 2.67314 3.14319L2.63698 3.18538C1.94133 4.00533 1.39894 4.94379 1.03575 5.95588L1.01767 6.00812C0.92726 6.25925 1.0016 6.54052 1.20451 6.71531L2.53652 7.85244C2.47424 8.23015 2.44411 8.61589 2.44411 8.99962C2.44411 9.38536 2.47424 9.7711 2.53652 10.1468L1.20451 11.2839C1.10526 11.3689 1.03422 11.4821 1.00084 11.6084C0.967465 11.7347 0.973334 11.8682 1.01767 11.9911L1.03575 12.0434C1.39939 13.0559 1.93782 13.9901 2.63698 14.8139L2.67314 14.8561C2.75763 14.9554 2.87024 15.0268 2.99612 15.0609C3.12201 15.095 3.25526 15.0901 3.37832 15.0469L5.02375 14.4623C5.62245 14.9545 6.29147 15.3443 7.01273 15.6155L7.33016 17.3312C7.35396 17.4597 7.41629 17.5779 7.50887 17.6702C7.60146 17.7624 7.71991 17.8243 7.8485 17.8476L7.90275 17.8576C8.95909 18.0475 10.0408 18.0475 11.0972 17.8576L11.1514 17.8476C11.28 17.8243 11.3984 17.7624 11.491 17.6702C11.5836 17.5779 11.646 17.4597 11.6697 17.3312L11.9852 15.6235C12.7122 15.351 13.389 14.96 13.9882 14.4663L15.6216 15.0469C15.7446 15.0904 15.878 15.0955 16.0039 15.0614C16.1299 15.0273 16.2425 14.9557 16.3268 14.8561L16.3629 14.8139C17.0621 13.9881 17.6005 13.0559 17.9642 12.0434L17.9822 11.9911C18.0726 11.744 17.9983 11.4627 17.7954 11.2879V11.2879ZM15.053 8.07746C15.1032 8.38083 15.1294 8.69223 15.1294 9.00364C15.1294 9.31504 15.1032 9.62645 15.053 9.92982L14.9204 10.7355L16.4212 12.0192C16.1937 12.5434 15.9065 13.0396 15.5653 13.4979L13.7009 12.8369L13.0701 13.3553C12.5899 13.7491 12.0555 14.0585 11.4769 14.2754L10.7114 14.5627L10.3518 16.5115C9.78438 16.5758 9.21151 16.5758 8.64409 16.5115L8.28447 14.5587L7.52504 14.2674C6.95246 14.0504 6.42005 13.741 5.9439 13.3493L5.31306 12.8289L3.43659 13.4959C3.09505 13.0358 2.80976 12.5396 2.58072 12.0172L4.09757 10.7214L3.96698 9.91776C3.91876 9.61841 3.89265 9.30902 3.89265 9.00364C3.89265 8.69625 3.91675 8.38886 3.96698 8.08951L4.09757 7.28589L2.58072 5.99004C2.80775 5.46567 3.09505 4.97144 3.43659 4.51136L5.31306 5.17837L5.9439 4.65802C6.42005 4.26626 6.95246 3.95686 7.52504 3.73988L8.28648 3.45258L8.6461 1.49977C9.21065 1.43548 9.78725 1.43548 10.3538 1.49977L10.7134 3.44857L11.4789 3.73586C12.0555 3.95284 12.5919 4.26224 13.0721 4.65602L13.7029 5.17435L15.5673 4.51337C15.9089 4.97345 16.1942 5.46969 16.4232 5.99205L14.9224 7.27584L15.053 8.07746ZM9.50196 5.26677C7.54915 5.26677 5.966 6.84992 5.966 8.80273C5.966 10.7555 7.54915 12.3387 9.50196 12.3387C11.4548 12.3387 13.0379 10.7555 13.0379 8.80273C13.0379 6.84992 11.4548 5.26677 9.50196 5.26677ZM11.0931 10.3939C10.8844 10.6032 10.6364 10.7692 10.3634 10.8823C10.0903 10.9954 9.79753 11.0533 9.50196 11.0529C8.90125 11.0529 8.3367 10.8178 7.91078 10.3939C7.70148 10.1852 7.53552 9.93719 7.42242 9.66412C7.30933 9.39104 7.25135 9.0983 7.25181 8.80273C7.25181 8.20202 7.48687 7.63747 7.91078 7.21155C8.3367 6.78563 8.90125 6.55258 9.50196 6.55258C10.1027 6.55258 10.6672 6.78563 11.0931 7.21155C11.3024 7.42025 11.4684 7.66827 11.5815 7.94135C11.6946 8.21442 11.7526 8.50716 11.7521 8.80273C11.7521 9.40344 11.5171 9.96799 11.0931 10.3939Z" fill="#424242"/>
</svg>
