<svg width="20" height="30" viewBox="0 0 17 17" fill="none" xmlns="http://www.w3.org/2000/svg">
<path fill-rule="evenodd" clip-rule="evenodd" d="M10.4313 0.914768C10.3706 0.939975 10.3154 0.976917 10.269 1.02348L8.36595 2.92648L5.05295 3.75448C4.80099 3.81759 4.56973 3.94504 4.38181 4.12437C4.1939 4.30369 4.05577 4.52874 3.98095 4.77748L0.876953 15.1235L11.222 12.0195C11.471 11.9447 11.6963 11.8065 11.8759 11.6184C12.0554 11.4303 12.1829 11.1987 12.246 10.9465L13.075 7.63348L14.977 5.73148C15.0235 5.68503 15.0605 5.62986 15.0857 5.56911C15.1109 5.50837 15.1238 5.44325 15.1238 5.37748C15.1238 5.31171 15.1109 5.24659 15.0857 5.18585C15.0605 5.1251 15.0235 5.06993 14.977 5.02348L10.977 1.02348C10.9305 0.976917 10.8753 0.939975 10.8146 0.914768C10.7538 0.889562 10.6887 0.876587 10.623 0.876587C10.5572 0.876587 10.4921 0.889562 10.4313 0.914768ZM5.29595 4.72448L8.46895 3.93148V3.93048L12.069 7.53048L11.275 10.7045C11.254 10.7883 11.2116 10.8652 11.152 10.9278C11.0924 10.9904 11.0176 11.0364 10.935 11.0615L2.36795 13.6315L4.93795 5.06648C4.9628 4.9833 5.00888 4.90803 5.07165 4.84806C5.13442 4.78809 5.21173 4.7455 5.29595 4.72448ZM9.31934 3.19934L10.7373 1.78101L14.108 5.15169L12.6813 6.57842L9.31934 3.19934Z" fill="#727272"/>
<path fill-rule="evenodd" clip-rule="evenodd" d="M2.45514 13.6054L7.62314 9.37744C7.82092 9.37744 8.01426 9.31879 8.17871 9.20891C8.34316 9.09903 8.47133 8.94285 8.54702 8.76013C8.62271 8.5774 8.64251 8.37633 8.60393 8.18235C8.56534 7.98837 8.4701 7.81019 8.33025 7.67034C8.19039 7.53048 8.01221 7.43524 7.81823 7.39666C7.62425 7.35807 7.42318 7.37787 7.24046 7.45356C7.05773 7.52925 6.90155 7.65742 6.79167 7.82187C6.68179 7.98632 6.62314 8.17966 6.62314 8.37744L2.39514 13.5454L2.36914 13.6314L2.45514 13.6054Z" fill="#727272"/>
</svg>
