<svg width="14" height="14" viewBox="0 0 14 14" fill="none" xmlns="http://www.w3.org/2000/svg">
<path d="M7.85508 9.74229C7.82865 9.71612 7.79296 9.70143 7.75576 9.70143C7.71857 9.70143 7.68288 9.71612 7.65645 9.74229L5.61387 11.7849C4.66817 12.7306 3.07207 12.8308 2.02793 11.7849C0.982034 10.739 1.08223 9.14463 2.02793 8.19893L4.07051 6.15635C4.125 6.10186 4.125 6.01221 4.07051 5.95772L3.3709 5.25811C3.34447 5.23194 3.30878 5.21725 3.27159 5.21725C3.23439 5.21725 3.1987 5.23194 3.17227 5.25811L1.12969 7.30068C-0.357419 8.78779 -0.357419 11.1942 1.12969 12.6796C2.6168 14.1649 5.02325 14.1667 6.5086 12.6796L8.55118 10.637C8.60567 10.5825 8.60567 10.4929 8.55118 10.4384L7.85508 9.74229ZM12.4008 1.41025C10.9137 -0.0768555 8.50723 -0.0768555 7.02188 1.41025L4.97754 3.45283C4.95137 3.47926 4.93669 3.51495 4.93669 3.55215C4.93669 3.58934 4.95137 3.62504 4.97754 3.65147L5.67539 4.34932C5.72989 4.40381 5.81953 4.40381 5.87403 4.34932L7.9166 2.30674C8.86231 1.36104 10.4584 1.26084 11.5025 2.30674C12.5484 3.35264 12.4482 4.94697 11.5025 5.89268L9.45996 7.93525C9.43379 7.96168 9.41911 7.99738 9.41911 8.03457C9.41911 8.07177 9.43379 8.10746 9.45996 8.13389L10.1596 8.8335C10.2141 8.88799 10.3037 8.88799 10.3582 8.8335L12.4008 6.79092C13.8861 5.30381 13.8861 2.89736 12.4008 1.41025ZM8.48965 4.59014C8.46322 4.56397 8.42753 4.54929 8.39034 4.54929C8.35314 4.54929 8.31745 4.56397 8.29102 4.59014L4.30957 8.56983C4.2834 8.59626 4.26872 8.63195 4.26872 8.66914C4.26872 8.70634 4.2834 8.74203 4.30957 8.76846L5.00567 9.46455C5.06016 9.51904 5.14981 9.51904 5.2043 9.46455L9.18399 5.48486C9.23848 5.43037 9.23848 5.34072 9.18399 5.28623L8.48965 4.59014Z" fill="#777777"/>
</svg>
