<svg width="1164" height="935" viewBox="0 0 1164 935" fill="none" xmlns="http://www.w3.org/2000/svg">
<path d="M1150.28 1114.82C1131 1075.19 1111.18 1035.86 1092.3 995.936C1058.9 925.317 292.098 -679.962 231.537 -809.172C218.637 -836.697 200.237 -849.168 171.45 -849.168C44.0803 -848.331 -83.2897 -848.331 -210.659 -849.168C-236.188 -849.168 -253.636 -839.206 -265.654 -814.78C-305.576 -733.018 -1102.18 933.729 -1192.68 1123.08C-1208.77 1156.88 -1204.84 1177.98 -1179.85 1204.62C-1102.18 1287.56 -1023.69 1369.47 -947.788 1454.41C-935.433 1469.35 -920.201 1481.15 -903.174 1488.97C-886.147 1496.79 -867.744 1500.43 -849.274 1499.64C-304.693 1498.39 822.828 1498.54 842.043 1498.46C850.326 1498.49 858.528 1496.68 866.149 1493.15C873.771 1489.63 880.653 1484.45 886.378 1477.95C969.481 1388.66 1053.06 1299.89 1136.16 1210.52C1168.34 1176.06 1170.86 1157.1 1150.28 1114.82ZM-26.1904 -739.512C24.3909 -737.667 75.04 -737.889 125.621 -739.512C143.545 -740.102 152.304 -732.945 159.569 -716.858C190.053 -652.068 965.747 972.322 991.343 1024.64C1000.3 1043.16 998.811 1050.69 976.881 1050.62C545.888 1050.08 114.849 1050.08 -316.235 1050.62C-337.893 1050.62 -344.479 1046.34 -333.548 1023.09C-308.088 968.78 -290.978 910.485 -265.179 856.173C-254.927 834.774 -245.489 825.845 -222.541 825.918C37.4945 826.878 569.718 826.73 575.829 826.509C619.689 824.959 642.841 786.661 623.355 744.009C585.13 661.214 -2.76685 -633.251 -40.8556 -715.013C-49.9534 -735.158 -48.1202 -740.25 -26.1904 -739.512ZM-20.9625 267.901C-1.95215 292.695 146.125 664.756 159.025 694.716C165.136 708.958 166.494 716.853 147.619 716.484C36.0461 715.894 -75.4817 715.894 -186.964 716.484C-211.135 716.484 -201.697 703.718 -196.877 692.059C-144.123 564.62 -26.6656 280.667 -20.9625 267.901ZM-911.533 1299.15C-917.711 1318.78 -924.704 1321.95 -939.438 1305.42C-977.051 1263.21 -1016.09 1222.55 -1054.52 1181.3C-1087.65 1145.66 -1087.72 1145.66 -1065.38 1098.88C-1021.39 1006.71 -221.59 -670.369 -198.778 -717.301C-194.297 -726.377 -191.988 -739.438 -178.41 -740.619C-163.609 -741.873 -159.06 -729.255 -154.239 -718.481C-85.5302 -566.69 476.296 670.659 480.777 680.621C495.781 713.607 495.985 713.607 463.464 713.68C411.547 713.68 359.631 713.68 307.714 713.68C296.579 713.68 285.105 715.23 275.057 707.629C275.057 707.629 266.978 699.069 273.36 706.375C270.236 694.347 -66.1123 -126.519 -108.003 -228.574C-112.235 -241.121 -120.476 -251.597 -131.223 -258.091C-159.942 -273.883 -189.952 -263.773 -205.499 -230.271C-288.331 -52.2103 -903.589 1273.76 -911.533 1299.15ZM1019.99 1176.21C959.907 1240.78 899.414 1305.05 839.667 1370.06C834.874 1375.43 829.079 1379.61 822.673 1382.34C816.266 1385.06 809.397 1386.26 802.528 1385.85C267.589 1385.49 -819.536 1385.85 -831.282 1385.85C-816.549 1343.65 -235.101 85.7075 -171.96 -50.6607C-168.972 -57.2282 -168.225 -67.7805 -160.825 -68.2971C-150.912 -68.9612 -150.844 -57.0068 -147.857 -49.7752C-126.063 2.83875 -104.948 55.7479 -82.7465 108.067C-80.2684 113.424 -78.9778 119.338 -78.9778 125.334C-78.9778 131.331 -80.2684 137.244 -82.7465 142.601C-97.6832 181.859 -390.308 888.863 -464.856 1070.47C-488.89 1129.06 -468.318 1161.9 -409.386 1161.9H1023.19C1023.85 1163.06 1024.3 1164.36 1024.5 1165.71C1024.7 1167.06 1024.65 1168.45 1024.35 1169.78C1024.05 1171.11 1023.51 1172.37 1022.77 1173.47C1022.02 1174.58 1021.08 1175.51 1019.99 1176.21Z" fill="url(#paint0_linear)"/>
<defs>
<linearGradient id="paint0_linear" x1="-19.4007" y1="-1058.74" x2="-19.4007" y2="1332.21" gradientUnits="userSpaceOnUse">
<stop stop-color="#FE794F"/>
<stop offset="1" stop-color="#7166F8"/>
</linearGradient>
</defs>
</svg>
