<svg width="196" height="104" viewBox="0 0 196 104" fill="none" xmlns="http://www.w3.org/2000/svg">
<path d="M16.1542 16.2845V80.1198L0 65.138V0L16.1542 16.2845Z" fill="url(#paint0_linear_25_1295)"/>
<path d="M40.7087 40.3856L23.9083 23.4497V45.5966L41.3548 63.1839L80.7712 23.4497V0L40.7087 40.3856Z" fill="url(#paint1_linear_25_1295)"/>
<path d="M80.7712 36.4773L66.0855 49.5049V80.7712L80.7712 67.7436V36.4773Z" fill="url(#paint2_linear_25_1295)"/>
<path d="M88.5137 63.4127V47.4283C88.5566 45.4518 89.502 43.4967 91.3496 41.5631C93.584 39.2858 96.291 38.1256 99.4707 38.0826V43.1744C97.4082 43.1744 95.7969 44.0768 94.6367 45.8815C94.1641 46.6549 93.9277 47.3639 93.9277 48.0084V52.3912H108.365V48.0084C108.365 46.0748 107.377 44.6569 105.4 43.7545C104.498 43.3248 103.574 43.11 102.629 43.11V38.0826C105.594 38.0826 108.236 39.1354 110.557 41.2408C112.49 43.0885 113.479 45.1295 113.521 47.3639V57.6119H93.9277V63.4127C93.9277 64.6158 94.6152 65.733 95.9902 66.7643C97.1074 67.5377 98.2891 67.9244 99.5352 67.9244V72.9518C95.625 72.9518 92.5527 71.3619 90.3184 68.1823C89.1152 66.5065 88.5137 64.9166 88.5137 63.4127ZM102.629 72.9518V67.86C105.207 67.86 107.141 66.7428 108.43 64.5084C108.688 64.0358 108.881 63.5846 109.01 63.1549L113.586 64.8307C112.812 67.7955 111.051 70.0299 108.301 71.5338C106.539 72.4791 104.648 72.9518 102.629 72.9518ZM118.678 63.4127V47.4283C118.721 45.4518 119.666 43.4967 121.514 41.5631C123.748 39.2858 126.455 38.1256 129.635 38.0826V43.1744C127.572 43.1744 125.961 44.0768 124.801 45.8815C124.328 46.6549 124.092 47.3639 124.092 48.0084V52.3912H138.529V48.0084C138.529 46.0748 137.541 44.6569 135.564 43.7545C134.662 43.3248 133.738 43.11 132.793 43.11V38.0826C135.758 38.0826 138.4 39.1354 140.721 41.2408C142.654 43.0885 143.643 45.1295 143.686 47.3639V57.6119H124.092V63.4127C124.092 64.6158 124.779 65.733 126.154 66.7643C127.271 67.5377 128.453 67.9244 129.699 67.9244V72.9518C125.789 72.9518 122.717 71.3619 120.482 68.1823C119.279 66.5065 118.678 64.9166 118.678 63.4127ZM132.793 72.9518V67.86C135.371 67.86 137.305 66.7428 138.594 64.5084C138.852 64.0358 139.045 63.5846 139.174 63.1549L143.75 64.8307C142.977 67.7955 141.215 70.0299 138.465 71.5338C136.703 72.4791 134.812 72.9518 132.793 72.9518ZM147.424 43.6901V38.4694H151.678V27.319H157.156V38.4694H161.281V43.7545H157.156V62.2526C157.156 65.3033 158.402 67.0006 160.895 67.3444C161.367 67.4303 161.84 67.4733 162.312 67.4733H163.215L164.439 72.9518H162.119C156.834 72.9088 153.59 70.9323 152.387 67.0221C151.957 65.5612 151.742 63.7565 151.742 61.608L151.678 43.6901H147.424ZM167.404 72.9518V27.4479H172.947V72.9518H167.404ZM174.559 55.485L187.707 38.1471H194.217L180.939 55.485L194.281 72.9518H187.836L174.559 55.485Z" fill="#1CC5DC"/>
<defs>
<linearGradient id="paint0_linear_25_1295" x1="-30.37" y1="-13.679" x2="170.275" y2="188.592" gradientUnits="userSpaceOnUse">
<stop stop-color="#2FE6FF"/>
<stop offset="1" stop-color="#0097AC"/>
</linearGradient>
<linearGradient id="paint1_linear_25_1295" x1="-30.37" y1="-13.679" x2="170.275" y2="188.592" gradientUnits="userSpaceOnUse">
<stop stop-color="#2FE6FF"/>
<stop offset="1" stop-color="#0097AC"/>
</linearGradient>
<linearGradient id="paint2_linear_25_1295" x1="-30.37" y1="-13.679" x2="170.275" y2="188.592" gradientUnits="userSpaceOnUse">
<stop stop-color="#2FE6FF"/>
<stop offset="1" stop-color="#0097AC"/>
</linearGradient>
</defs>
</svg>
