<svg width="1920" height="876" viewBox="0 0 1920 876" fill="none" xmlns="http://www.w3.org/2000/svg">
<path d="M1919.69 338.656L1794.94 240.092C1796.31 237.765 1797.1 235.071 1797.1 232.198C1797.1 223.46 1789.84 216.372 1780.87 216.372C1773.92 216.372 1768 220.63 1765.68 226.606H1691.15C1689.24 219.941 1682.97 215.057 1675.52 215.057C1666.55 215.057 1659.29 222.144 1659.29 230.882C1659.29 239.62 1666.55 246.707 1675.52 246.707C1684.48 246.707 1691.75 239.62 1691.75 230.882C1691.75 230.491 1691.73 230.1 1691.7 229.715H1764.84C1764.7 230.522 1764.63 231.354 1764.63 232.198C1764.63 240.936 1771.9 248.023 1780.86 248.023C1785.73 248.023 1790.1 245.932 1793.07 242.624L1917.68 341.064L1919.69 338.656Z" fill="#8882D1" fill-opacity="0.22"/>
<path d="M759.508 -55.3032C759.508 -64.0413 752.241 -71.1286 743.279 -71.1286C734.853 -71.1286 727.923 -64.8667 727.127 -56.8547H604.016C604.08 -57.4318 604.118 -58.0152 604.118 -58.6048C604.118 -67.3429 596.851 -74.4302 587.89 -74.4302C578.922 -74.4302 571.661 -67.3429 571.661 -58.6048C571.661 -49.8667 578.928 -42.7794 587.89 -42.7794C595.119 -42.7794 601.24 -47.3843 603.341 -53.7517H727.133C727.885 -46.2486 733.999 -40.2846 741.693 -39.5523V52.8742C733.477 53.6561 727.051 60.4083 727.051 68.6189C727.051 77.357 734.318 84.4443 743.286 84.4443C752.247 84.4443 759.515 77.357 759.515 68.6189C759.515 60.4021 753.094 53.6499 744.872 52.8742V-39.5523C753.088 -40.3342 759.508 -47.0864 759.508 -55.3032Z" fill="#8882D1" fill-opacity="0.22"/>
<path d="M676.396 52.868V10.4064H400.335L323 -64.9908C326.389 -67.889 328.535 -72.1463 328.535 -76.8877C328.535 -85.6258 321.268 -92.7131 312.306 -92.7131C312.058 -92.7131 311.81 -92.7069 311.561 -92.6945V-243.315C319.777 -244.097 326.204 -250.849 326.204 -259.06C326.204 -267.27 319.784 -274.029 311.561 -274.804V-372.382H308.377V-274.811C300.16 -274.029 293.734 -267.276 293.734 -259.066C293.734 -250.855 300.154 -244.097 308.377 -243.321V-92.2415C301.313 -90.5286 296.071 -84.3039 296.071 -76.8877C296.071 -68.1496 303.339 -61.0623 312.306 -61.0623C315.249 -61.0623 318 -61.8257 320.383 -63.16L398.558 13.0563L399.023 13.5094H673.218V52.8742C665.002 53.6562 658.575 60.4084 658.575 68.619C658.575 77.3571 665.842 84.4443 674.804 84.4443C683.765 84.4443 691.033 77.3571 691.033 68.619C691.033 60.4022 684.612 53.65 676.396 52.868Z" fill="#8882D1" fill-opacity="0.22"/>
<path d="M1485.83 38.9045H1918.69V35.8015H1485.83C1485.03 27.7895 1478.1 21.5276 1469.68 21.5276C1460.71 21.5276 1453.45 28.6149 1453.45 37.353C1453.45 45.5698 1459.87 52.322 1468.09 53.0977V173.004H1451.57C1450.77 164.992 1443.85 158.731 1435.42 158.731C1426.46 158.731 1419.19 165.818 1419.19 174.556C1419.19 183.294 1426.46 190.381 1435.42 190.381C1443.85 190.381 1450.78 184.119 1451.57 176.107H1471.27V53.0977C1478.96 52.3654 1485.08 46.4014 1485.83 38.9045Z" fill="#8882D1" fill-opacity="0.22"/>
<path d="M1560.9 94.6657H1732.78C1733.58 102.678 1740.51 108.94 1748.93 108.94C1757.9 108.94 1765.16 101.852 1765.16 93.1142C1765.16 84.3761 1757.9 77.2888 1748.93 77.2888C1740.51 77.2888 1733.58 83.5507 1732.78 91.5627H1560.9C1560.09 83.5507 1553.17 77.2888 1544.74 77.2888C1535.78 77.2888 1528.51 84.3761 1528.51 93.1142C1528.51 101.331 1534.93 108.083 1543.16 108.859V248.098C1534.94 248.88 1528.51 255.632 1528.51 263.842C1528.51 272.58 1535.78 279.668 1544.74 279.668C1553.7 279.668 1560.97 272.58 1560.97 263.842C1560.97 255.626 1554.55 248.873 1546.33 248.098V108.865C1554.03 108.133 1560.14 102.169 1560.9 94.6657Z" fill="#8882D1" fill-opacity="0.22"/>
<path d="M1625.92 304.808C1625.85 304.808 1625.78 304.814 1625.7 304.814V174.55C1625.77 174.55 1625.84 174.556 1625.92 174.556C1634.38 174.556 1641.33 168.245 1642.08 160.183H1918.69V157.08H1642.06C1641.21 149.118 1634.31 142.905 1625.91 142.905C1616.95 142.905 1609.68 149.993 1609.68 158.731C1609.68 166.333 1615.19 172.682 1622.52 174.202V305.156C1615.77 306.558 1610.58 312.038 1609.79 318.828H1518.69C1517.05 311.79 1510.59 306.533 1502.87 306.533C1493.91 306.533 1486.64 313.621 1486.64 322.359C1486.64 331.097 1493.91 338.184 1502.87 338.184C1511.83 338.184 1519.11 331.097 1519.11 322.359C1519.11 322.216 1519.1 322.073 1519.09 321.931H1609.74C1610.42 330.061 1617.4 336.459 1625.91 336.459C1634.87 336.459 1642.14 329.372 1642.14 320.634C1642.14 311.896 1634.88 304.808 1625.92 304.808Z" fill="#8882D1" fill-opacity="0.22"/>
<path d="M1057.19 -188.733C1057.19 -188.857 1057.18 -188.981 1057.17 -189.105H1334.33C1336.11 -182.248 1342.48 -177.177 1350.06 -177.177C1357.65 -177.177 1364.02 -182.248 1365.79 -189.105H1529.01C1530.79 -182.248 1537.16 -177.177 1544.74 -177.177C1553.7 -177.177 1560.97 -184.265 1560.97 -193.003C1560.97 -201.219 1554.55 -207.972 1546.32 -208.747V-372.382H1543.14V-208.754C1534.92 -207.972 1528.5 -201.219 1528.5 -193.009C1528.5 -192.742 1528.5 -192.475 1528.51 -192.214H1366.26C1366.27 -192.475 1366.28 -192.742 1366.28 -193.009C1366.28 -201.747 1359.01 -208.834 1350.05 -208.834C1341.09 -208.834 1333.82 -201.747 1333.82 -193.009C1333.82 -192.742 1333.83 -192.475 1333.84 -192.214H1056.77C1055.15 -199.283 1048.68 -204.564 1040.94 -204.564C1031.98 -204.564 1024.71 -197.477 1024.71 -188.739C1024.71 -181.019 1030.38 -174.596 1037.88 -173.199V36.6145C1029.66 37.3964 1023.24 44.1486 1023.24 52.3592C1023.24 61.0973 1030.51 68.1846 1039.47 68.1846C1048.43 68.1846 1055.7 61.0973 1055.7 52.3592C1055.7 44.1424 1049.28 37.3902 1041.05 36.6145V-172.914C1049.98 -172.976 1057.19 -180.032 1057.19 -188.733Z" fill="#8882D1" fill-opacity="0.22"/>
<path d="M988.66 -127.212C988.66 -135.951 981.393 -143.038 972.431 -143.038C964.661 -143.038 958.17 -137.713 956.578 -130.607H834.901C833.308 -137.713 826.818 -143.038 819.048 -143.038C811.277 -143.038 804.787 -137.713 803.195 -130.607H589.476V-259.14C597.692 -259.922 604.118 -266.674 604.118 -274.885C604.118 -283.102 597.698 -289.854 589.476 -290.63V-372.382H586.291V-290.636C578.075 -289.854 571.648 -283.102 571.648 -274.891C571.648 -266.674 578.068 -259.922 586.291 -259.147V-127.51H802.819C802.819 -127.411 802.812 -127.318 802.812 -127.219C802.812 -119.002 809.233 -112.25 817.455 -111.474V89.0368C809.239 89.8187 802.812 96.5709 802.812 104.781C802.812 113.52 810.08 120.607 819.041 120.607C828.003 120.607 835.27 113.52 835.27 104.781C835.27 96.5647 828.85 89.8125 820.627 89.0368V-111.468C828.843 -112.25 835.27 -119.002 835.27 -127.212C835.27 -127.312 835.264 -127.405 835.264 -127.504H956.196C956.196 -127.405 956.19 -127.312 956.19 -127.212C956.19 -118.996 962.61 -112.243 970.832 -111.468V21.602C962.616 22.384 956.19 29.1362 956.19 37.3467C956.19 46.0848 963.457 53.1721 972.425 53.1721C981.386 53.1721 988.653 46.0848 988.653 37.3467C988.653 29.1299 982.233 22.3778 974.011 21.602V-111.468C982.233 -112.243 988.66 -118.996 988.66 -127.212Z" fill="#8882D1" fill-opacity="0.22"/>
<path d="M1088.66 89.0493V-59.759C1096.35 -60.4913 1102.47 -66.4553 1103.22 -73.9522H1380.68C1381.48 -65.9402 1388.4 -59.6783 1396.83 -59.6783C1405.26 -59.6783 1412.19 -65.9402 1412.98 -73.9522H1732.78C1733.58 -65.9402 1740.51 -59.6783 1748.93 -59.6783C1757.36 -59.6783 1764.29 -65.9402 1765.09 -73.9522H1918.69V-77.0552H1765.09C1764.28 -85.0672 1757.36 -91.3291 1748.93 -91.3291C1740.51 -91.3291 1733.58 -85.0672 1732.78 -77.0552H1412.98C1412.18 -85.0672 1405.26 -91.3291 1396.83 -91.3291C1388.4 -91.3291 1381.47 -85.0672 1380.68 -77.0552H1103.22C1102.41 -85.0672 1095.49 -91.3291 1087.06 -91.3291C1078.1 -91.3291 1070.84 -84.2418 1070.84 -75.5037C1070.84 -67.2869 1077.26 -60.5348 1085.48 -59.759V89.0493C1077.26 89.8313 1070.84 96.5834 1070.84 104.794C1070.84 113.532 1078.1 120.619 1087.07 120.619C1096.04 120.619 1103.31 113.532 1103.31 104.794C1103.29 96.5772 1096.87 89.825 1088.66 89.0493Z" fill="#8882D1" fill-opacity="0.22"/>
<path d="M1210.02 89.0493V14.0308C1217.72 13.2985 1223.84 7.33448 1224.58 -0.162411H1614.45C1615.25 7.84958 1622.17 14.1115 1630.6 14.1115C1639.03 14.1115 1645.96 7.84958 1646.75 -0.162411H1918.68V-3.26543H1646.75C1645.95 -11.2774 1639.03 -17.5393 1630.6 -17.5393C1622.17 -17.5393 1615.24 -11.2774 1614.45 -3.26543H1224.58C1223.78 -11.2774 1216.86 -17.5393 1208.43 -17.5393C1199.47 -17.5393 1192.2 -10.452 1192.2 -1.71392C1192.2 6.50287 1198.62 13.255 1206.84 14.0308V89.0431C1198.63 89.8251 1192.2 96.5772 1192.2 104.788C1192.2 113.526 1199.47 120.613 1208.43 120.613C1217.39 120.613 1224.66 113.526 1224.66 104.788C1224.66 96.5772 1218.24 89.8251 1210.02 89.0493Z" fill="#8882D1" fill-opacity="0.22"/>
<path d="M99.7657 243.989C108.192 243.989 115.122 237.727 115.918 229.715H386.845C388.253 237.057 394.858 242.618 402.794 242.618C411.755 242.618 419.029 235.53 419.029 226.792C419.029 218.054 411.762 210.967 402.794 210.967C393.89 210.967 386.667 217.955 386.565 226.612H115.924C115.122 218.6 108.199 212.338 99.7721 212.338C91.3456 212.338 84.4159 218.6 83.6198 226.612H8.92798V229.715H83.6134C84.4159 237.727 91.3393 243.989 99.7657 243.989Z" fill="#8882D1" fill-opacity="0.22"/>
<path d="M508.612 142.806C500.186 142.806 493.256 149.068 492.46 157.08H270.881C270.964 156.434 271.008 155.783 271.008 155.119C271.008 146.38 263.741 139.293 254.773 139.293C250.328 139.293 246.296 141.037 243.366 143.867L66.2828 -28.7786C68.9387 -31.5962 70.5565 -35.3508 70.5565 -39.4778C70.5565 -48.2159 63.2892 -55.3032 54.3278 -55.3032C50.0922 -55.3032 46.2388 -53.7207 43.3536 -51.1328L10.0553 -83.5903L7.80701 -81.3934L41.2263 -48.8117C39.2582 -46.1928 38.0926 -42.9656 38.0926 -39.4716C38.0926 -30.7335 45.3599 -23.6462 54.3278 -23.6462C57.9136 -23.6462 61.2256 -24.7819 63.9071 -26.6996L241.328 146.256C239.576 148.782 238.551 151.829 238.551 155.112C238.551 163.85 245.818 170.938 254.78 170.938C261.926 170.938 267.989 166.432 270.155 160.183H492.46C493.262 168.195 500.186 174.457 508.612 174.457C517.573 174.457 524.841 167.369 524.841 158.631C524.841 149.893 517.58 142.806 508.612 142.806Z" fill="#8882D1" fill-opacity="0.22"/>
<path d="M561.247 90.6256C552.821 90.6256 545.891 96.8875 545.095 104.899H508.536C507.784 97.3405 501.574 91.3455 493.797 90.6876V53.8176C502.014 53.0356 508.44 46.2834 508.44 38.0729C508.44 29.3348 501.173 22.2475 492.211 22.2475C483.243 22.2475 475.983 29.3348 475.983 38.0729C475.983 38.1722 475.989 38.2777 475.989 38.377H268.601C268.601 38.2777 268.607 38.1722 268.607 38.0729C268.607 29.3348 261.34 22.2475 252.372 22.2475C247.264 22.2475 242.71 24.5499 239.729 28.1494L160.554 -49.0536C164.025 -51.9581 166.222 -56.2589 166.222 -61.0685C166.222 -69.2853 159.802 -76.0375 151.579 -76.8132V-305.09C159.796 -305.872 166.222 -312.624 166.222 -320.835C166.222 -329.051 159.802 -335.803 151.579 -336.579V-372.382H148.395V-336.585C140.178 -335.803 133.752 -329.051 133.752 -320.841C133.752 -312.624 140.172 -305.872 148.395 -305.096V-76.8195C140.178 -76.0375 133.752 -69.2853 133.752 -61.0747C133.752 -52.3366 141.019 -45.2494 149.987 -45.2494C152.86 -45.2494 155.554 -45.9817 157.898 -47.2539L237.952 30.7932C236.793 32.9715 236.137 35.4415 236.137 38.0605C236.137 46.7986 243.404 53.8858 252.366 53.8858C260.13 53.8858 266.62 48.5673 268.219 41.4676H476.352C477.842 48.077 483.562 53.1411 490.613 53.8051V90.7125C482.479 91.5689 476.148 98.2838 476.148 106.445C476.148 115.183 483.415 122.27 492.377 122.27C500.803 122.27 507.733 116.008 508.529 107.996H545.089C545.891 116.008 552.814 122.27 561.241 122.27C570.209 122.27 577.476 115.183 577.476 106.445C577.476 97.7066 570.215 90.6256 561.247 90.6256Z" fill="#8882D1" fill-opacity="0.22"/>
<path d="M426.596 279.128C418.169 279.128 411.24 285.39 410.443 293.402H175.375C173.451 286.749 167.19 281.871 159.751 281.871C150.79 281.871 143.516 288.958 143.516 297.696C143.516 300.967 144.535 304.001 146.274 306.521L-0.307373 449.427L1.94096 451.624L148.318 308.923C151.254 311.765 155.293 313.521 159.757 313.521C168.719 313.521 175.986 306.434 175.986 297.696C175.986 297.293 175.967 296.896 175.935 296.505H410.437C411.24 304.517 418.163 310.778 426.589 310.778C435.557 310.778 442.818 303.691 442.818 294.953C442.818 286.215 435.557 279.128 426.596 279.128Z" fill="#8882D1" fill-opacity="0.22"/>
<path d="M-0.307201 478.344L124.447 576.908C123.071 579.236 122.281 581.929 122.281 584.803C122.281 593.541 129.548 600.628 138.516 600.628C145.465 600.628 151.388 596.371 153.7 590.394L228.233 590.394C230.144 597.059 236.417 601.944 243.863 601.944C252.831 601.944 260.098 594.856 260.098 586.118C260.098 577.38 252.831 570.293 243.863 570.293C234.902 570.293 227.634 577.38 227.634 586.118C227.634 586.509 227.653 586.9 227.685 587.285L154.547 587.285C154.681 586.478 154.751 585.647 154.751 584.803C154.751 576.064 147.484 568.977 138.523 568.977C133.656 568.977 129.287 571.069 126.313 574.376L1.7054 475.936L-0.307201 478.344Z" fill="#8882D1" fill-opacity="0.22"/>
<path d="M1405.35 969.105L1405.35 891.349C1413.56 890.568 1419.99 883.815 1419.99 875.605C1419.99 866.867 1412.72 859.779 1403.75 859.779C1394.79 859.779 1387.53 866.867 1387.53 875.605C1387.53 883.822 1393.95 890.574 1402.17 891.349L1402.17 969.105C1393.95 969.887 1387.53 976.639 1387.53 984.85C1387.53 993.588 1394.79 1000.67 1403.75 1000.67C1412.3 1000.67 1419.3 994.233 1419.93 986.066L1491.2 986.066L1491.2 1189.38L1494.39 1189.38L1494.39 982.963L1419.87 982.963C1418.97 975.621 1412.92 969.825 1405.35 969.105Z" fill="#8882D1" fill-opacity="0.22"/>
<path d="M1159.88 872.303C1159.88 881.041 1167.14 888.129 1176.11 888.129C1184.53 888.129 1191.46 881.867 1192.26 873.855L1315.37 873.855C1315.31 874.432 1315.27 875.015 1315.27 875.605C1315.27 884.343 1322.53 891.43 1331.5 891.43C1340.46 891.43 1347.72 884.343 1347.72 875.605C1347.72 866.867 1340.46 859.779 1331.5 859.779C1324.27 859.779 1318.15 864.384 1316.04 870.752L1192.25 870.752C1191.5 863.249 1185.39 857.285 1177.69 856.552L1177.69 764.126C1185.91 763.344 1192.33 756.592 1192.33 748.381C1192.33 739.643 1185.07 732.556 1176.1 732.556C1167.14 732.556 1159.87 739.643 1159.87 748.381C1159.87 756.598 1166.29 763.35 1174.51 764.126L1174.51 856.552C1166.3 857.334 1159.88 864.086 1159.88 872.303Z" fill="#8882D1" fill-opacity="0.22"/>
<path d="M1242.99 764.132L1242.99 806.594L1519.05 806.594L1596.39 881.991C1593 884.889 1590.85 889.146 1590.85 893.888C1590.85 902.626 1598.12 909.713 1607.08 909.713C1607.33 909.713 1607.58 909.707 1607.82 909.694L1607.82 1060.31C1599.61 1061.1 1593.18 1067.85 1593.18 1076.06C1593.18 1084.27 1599.6 1091.03 1607.82 1091.8L1607.82 1189.38L1611.01 1189.38L1611.01 1091.81C1619.23 1091.03 1625.65 1084.28 1625.65 1076.07C1625.65 1067.86 1619.23 1061.1 1611.01 1060.32L1611.01 909.241C1618.07 907.529 1623.31 901.304 1623.31 893.888C1623.31 885.15 1616.05 878.062 1607.08 878.062C1604.14 878.062 1601.38 878.826 1599 880.16L1520.83 803.944L1520.36 803.491L1246.17 803.491L1246.17 764.126C1254.38 763.344 1260.81 756.592 1260.81 748.381C1260.81 739.643 1253.54 732.556 1244.58 732.556C1235.62 732.556 1228.35 739.643 1228.35 748.381C1228.35 756.598 1234.77 763.35 1242.99 764.132Z" fill="#8882D1" fill-opacity="0.22"/>
<path d="M433.557 778.096L0.692809 778.096L0.692809 781.199L433.557 781.199C434.36 789.211 441.283 795.473 449.71 795.473C458.671 795.473 465.939 788.385 465.939 779.647C465.939 771.43 459.518 764.678 451.296 763.903L451.296 643.996L467.811 643.996C468.614 652.008 475.537 658.27 483.963 658.27C492.925 658.27 500.192 651.182 500.192 642.444C500.192 633.706 492.925 626.619 483.963 626.619C475.537 626.619 468.607 632.881 467.811 640.893L448.111 640.893L448.111 763.903C440.423 764.635 434.309 770.599 433.557 778.096Z" fill="#8882D1" fill-opacity="0.22"/>
<path d="M358.49 722.335L186.604 722.335C185.801 714.323 178.878 708.061 170.452 708.061C161.49 708.061 154.223 715.148 154.223 723.886C154.223 732.624 161.49 739.711 170.452 739.711C178.878 739.711 185.808 733.45 186.604 725.438L358.49 725.438C359.292 733.45 366.216 739.711 374.642 739.711C383.604 739.711 390.871 732.624 390.871 723.886C390.871 715.669 384.451 708.917 376.228 708.141L376.228 568.903C384.444 568.121 390.871 561.368 390.871 553.158C390.871 544.42 383.604 537.333 374.642 537.333C365.681 537.333 358.413 544.42 358.413 553.158C358.413 561.375 364.834 568.127 373.056 568.903L373.056 708.135C365.356 708.867 359.241 714.831 358.49 722.335Z" fill="#8882D1" fill-opacity="0.22"/>
<path d="M293.466 512.192C293.536 512.192 293.607 512.186 293.683 512.186L293.683 642.45C293.613 642.45 293.543 642.444 293.466 642.444C285.002 642.444 278.059 648.756 277.308 656.817L0.692809 656.817L0.692809 659.92L277.327 659.92C278.174 667.883 285.078 674.095 293.473 674.095C302.434 674.095 309.702 667.008 309.702 658.27C309.702 650.667 304.199 644.318 296.868 642.798L296.868 511.844C303.613 510.442 308.804 504.962 309.593 498.173L400.692 498.173C402.335 505.21 408.794 510.467 416.513 510.467C425.475 510.467 432.742 503.379 432.742 494.641C432.742 485.903 425.475 478.816 416.513 478.816C407.552 478.816 400.278 485.903 400.278 494.641C400.278 494.784 400.285 494.927 400.291 495.07L309.644 495.07C308.969 486.94 301.988 480.541 293.473 480.541C284.511 480.541 277.244 487.629 277.244 496.367C277.244 505.105 284.505 512.192 293.466 512.192Z" fill="#8882D1" fill-opacity="0.22"/>
<path d="M862.199 1005.73C862.199 1005.86 862.206 1005.98 862.212 1006.11L585.056 1006.11C583.272 999.248 576.903 994.177 569.324 994.177C561.738 994.177 555.369 999.248 553.592 1006.11L390.38 1006.11C388.597 999.248 382.228 994.177 374.648 994.177C365.687 994.177 358.42 1001.26 358.42 1010C358.42 1018.22 364.84 1024.97 373.063 1025.75L373.063 1189.38L376.247 1189.38L376.247 1025.75C384.463 1024.97 390.89 1018.22 390.89 1010.01C390.89 1009.74 390.884 1009.48 390.871 1009.21L553.127 1009.21C553.114 1009.48 553.108 1009.74 553.108 1010.01C553.108 1018.75 560.375 1025.83 569.336 1025.83C578.298 1025.83 585.565 1018.75 585.565 1010.01C585.565 1009.74 585.559 1009.48 585.546 1009.21L862.613 1009.21C864.237 1016.28 870.709 1021.56 878.447 1021.56C887.409 1021.56 894.676 1014.48 894.676 1005.74C894.676 998.019 889.007 991.596 881.504 990.199L881.504 780.386C889.721 779.604 896.147 772.851 896.147 764.641C896.147 755.903 888.88 748.815 879.918 748.815C870.957 748.815 863.69 755.903 863.69 764.641C863.69 772.858 870.11 779.61 878.333 780.386L878.333 989.914C869.403 989.976 862.199 997.032 862.199 1005.73Z" fill="#8882D1" fill-opacity="0.22"/>
<path d="M930.726 944.213C930.726 952.951 937.993 960.038 946.954 960.038C954.725 960.038 961.215 954.713 962.807 947.607L1084.48 947.607C1086.08 954.713 1092.57 960.038 1100.34 960.038C1108.11 960.038 1114.6 954.713 1116.19 947.607L1329.91 947.607L1329.91 1076.14C1321.69 1076.92 1315.27 1083.67 1315.27 1091.89C1315.27 1100.1 1321.69 1106.85 1329.91 1107.63L1329.91 1189.38L1333.09 1189.38L1333.09 1107.64C1341.31 1106.85 1347.74 1100.1 1347.74 1091.89C1347.74 1083.67 1341.32 1076.92 1333.09 1076.15L1333.09 944.51L1116.57 944.51C1116.57 944.411 1116.57 944.318 1116.57 944.219C1116.57 936.002 1110.15 929.25 1101.93 928.474L1101.93 727.963C1110.15 727.181 1116.57 720.429 1116.57 712.219C1116.57 703.48 1109.31 696.393 1100.34 696.393C1091.38 696.393 1084.12 703.48 1084.12 712.219C1084.12 720.435 1090.54 727.187 1098.76 727.963L1098.76 928.468C1090.54 929.25 1084.12 936.002 1084.12 944.213C1084.12 944.312 1084.12 944.405 1084.12 944.504L963.19 944.504C963.19 944.405 963.196 944.312 963.196 944.213C963.196 935.996 956.776 929.244 948.553 928.468L948.553 795.398C956.769 794.616 963.196 787.864 963.196 779.653C963.196 770.915 955.929 763.828 946.961 763.828C937.999 763.828 930.732 770.915 930.732 779.653C930.732 787.87 937.152 794.622 945.375 795.398L945.375 928.468C937.152 929.244 930.726 935.996 930.726 944.213Z" fill="#8882D1" fill-opacity="0.22"/>
<path d="M830.729 727.951L830.729 876.759C823.035 877.492 816.914 883.456 816.169 890.952L538.707 890.952C537.904 882.94 530.981 876.679 522.554 876.679C514.128 876.679 507.198 882.94 506.402 890.952L186.604 890.953C185.801 882.941 178.878 876.679 170.452 876.679C162.025 876.679 155.095 882.941 154.299 890.953L0.699217 890.953L0.699218 894.056L154.299 894.056C155.102 902.068 162.025 908.329 170.452 908.329C178.878 908.329 185.808 902.068 186.604 894.056L506.402 894.055C507.205 902.067 514.128 908.329 522.554 908.329C530.981 908.329 537.911 902.067 538.707 894.055L816.169 894.055C816.971 902.067 823.895 908.329 832.321 908.329C841.283 908.329 848.55 901.242 848.55 892.504C848.55 884.287 842.13 877.535 833.907 876.759L833.907 727.951C842.124 727.169 848.55 720.417 848.55 712.206C848.55 703.468 841.283 696.381 832.315 696.381C823.347 696.381 816.08 703.468 816.08 712.206C816.093 720.423 822.513 727.175 830.729 727.951Z" fill="#8882D1" fill-opacity="0.22"/>
<path d="M709.364 727.951L709.364 802.969C701.67 803.702 695.549 809.666 694.804 817.163L304.938 817.163C304.135 809.151 297.212 802.889 288.785 802.889C280.359 802.889 273.429 809.151 272.633 817.163L0.705687 817.163L0.705687 820.266L272.633 820.266C273.435 828.278 280.359 834.54 288.785 834.54C297.212 834.54 304.141 828.278 304.938 820.266L694.804 820.266C695.606 828.278 702.529 834.54 710.956 834.54C719.917 834.54 727.185 827.452 727.185 818.714C727.185 810.497 720.764 803.745 712.542 802.969L712.542 727.957C720.758 727.175 727.185 720.423 727.185 712.212C727.185 703.474 719.917 696.387 710.956 696.387C701.994 696.387 694.727 703.474 694.727 712.212C694.721 720.423 701.147 727.175 709.364 727.951Z" fill="#8882D1" fill-opacity="0.22"/>
<path d="M1819.62 573.011C1811.19 573.011 1804.26 579.273 1803.47 587.285L1532.54 587.285C1531.13 579.943 1524.53 574.382 1516.59 574.382C1507.63 574.382 1500.36 581.47 1500.36 590.208C1500.36 598.946 1507.62 606.033 1516.59 606.033C1525.5 606.033 1532.72 599.045 1532.82 590.388L1803.46 590.388C1804.26 598.4 1811.19 604.662 1819.61 604.662C1828.04 604.662 1834.97 598.4 1835.77 590.388L1910.46 590.388L1910.46 587.285L1835.77 587.285C1834.97 579.273 1828.05 573.011 1819.62 573.011Z" fill="#8882D1" fill-opacity="0.22"/>
<path d="M1410.77 674.194C1419.2 674.194 1426.13 667.932 1426.93 659.92L1648.5 659.92C1648.42 660.566 1648.38 661.217 1648.38 661.881C1648.38 670.62 1655.64 677.707 1664.61 677.707C1669.06 677.707 1673.09 675.963 1676.02 673.133L1853.1 845.779C1850.45 848.596 1848.83 852.351 1848.83 856.478C1848.83 865.216 1856.1 872.303 1865.06 872.303C1869.29 872.303 1873.15 870.721 1876.03 868.133L1909.33 900.59L1911.58 898.393L1878.16 865.812C1880.13 863.193 1881.29 859.966 1881.29 856.472C1881.29 847.734 1874.03 840.646 1865.06 840.646C1861.47 840.646 1858.16 841.782 1855.48 843.7L1678.06 670.744C1679.81 668.218 1680.83 665.171 1680.83 661.888C1680.83 653.15 1673.57 646.062 1664.61 646.062C1657.46 646.062 1651.4 650.568 1649.23 656.817L1426.93 656.817C1426.12 648.805 1419.2 642.543 1410.77 642.543C1401.81 642.543 1394.54 649.631 1394.54 658.369C1394.54 667.107 1401.81 674.194 1410.77 674.194Z" fill="#8882D1" fill-opacity="0.22"/>
<path d="M1358.14 726.374C1366.56 726.374 1373.49 720.113 1374.29 712.101L1410.85 712.101C1411.6 719.66 1417.81 725.655 1425.59 726.312L1425.59 763.182C1417.37 763.964 1410.95 770.717 1410.95 778.927C1410.95 787.665 1418.21 794.753 1427.17 794.753C1436.14 794.753 1443.4 787.665 1443.4 778.927C1443.4 778.828 1443.4 778.722 1443.4 778.623L1650.78 778.623C1650.78 778.722 1650.78 778.828 1650.78 778.927C1650.78 787.665 1658.05 794.753 1667.01 794.753C1672.12 794.753 1676.68 792.45 1679.66 788.851L1758.83 866.054C1755.36 868.958 1753.16 873.259 1753.16 878.069C1753.16 886.285 1759.58 893.037 1767.81 893.813L1767.81 1122.09C1759.59 1122.87 1753.16 1129.62 1753.16 1137.83C1753.16 1146.05 1759.58 1152.8 1767.81 1153.58L1767.81 1189.38L1770.99 1189.38L1770.99 1153.59C1779.21 1152.8 1785.63 1146.05 1785.63 1137.84C1785.63 1129.62 1779.21 1122.87 1770.99 1122.1L1770.99 893.819C1779.21 893.037 1785.63 886.285 1785.63 878.075C1785.63 869.337 1778.37 862.249 1769.4 862.249C1766.53 862.249 1763.83 862.982 1761.49 864.254L1681.43 786.207C1682.59 784.028 1683.25 781.559 1683.25 778.94C1683.25 770.201 1675.98 763.114 1667.02 763.114C1659.26 763.114 1652.77 768.433 1651.17 775.532L1443.03 775.532C1441.54 768.923 1435.82 763.859 1428.77 763.195L1428.77 726.288C1436.91 725.431 1443.24 718.716 1443.24 710.555C1443.24 701.817 1435.97 694.73 1427.01 694.73C1418.58 694.73 1411.65 700.992 1410.86 709.004L1374.3 709.004C1373.49 700.992 1366.57 694.73 1358.14 694.73C1349.18 694.73 1341.91 701.817 1341.91 710.555C1341.91 719.293 1349.17 726.374 1358.14 726.374Z" fill="#8882D1" fill-opacity="0.22"/>
<path d="M1492.79 537.872C1501.22 537.872 1508.15 531.61 1508.94 523.598L1744.01 523.598C1745.93 530.251 1752.2 535.129 1759.63 535.129C1768.6 535.129 1775.87 528.042 1775.87 519.304C1775.87 516.033 1774.85 512.999 1773.11 510.479L1919.69 367.573L1917.44 365.376L1771.07 508.077C1768.13 505.235 1764.09 503.479 1759.63 503.479C1750.67 503.479 1743.4 510.566 1743.4 519.304C1743.4 519.707 1743.42 520.104 1743.45 520.495L1508.95 520.495C1508.15 512.483 1501.22 506.222 1492.8 506.222C1483.83 506.222 1476.57 513.309 1476.57 522.047C1476.57 530.785 1483.83 537.872 1492.79 537.872Z" fill="#8882D1" fill-opacity="0.22"/>
<path d="M787.772 520.073H776.346L754.104 483.587V520.073H742.678V464.62H754.104L776.384 501.182V464.62H787.772V520.073ZM795.313 499.088C795.313 495 796.1 491.356 797.674 488.157C799.248 484.958 801.508 482.482 804.453 480.73C807.424 478.978 810.865 478.102 814.775 478.102C820.335 478.102 824.867 479.803 828.371 483.206C831.901 486.608 833.868 491.229 834.275 497.069L834.351 499.887C834.351 506.21 832.586 511.288 829.057 515.122C825.528 518.93 820.792 520.835 814.851 520.835C808.909 520.835 804.161 518.93 800.607 515.122C797.077 511.313 795.313 506.134 795.313 499.583V499.088ZM806.32 499.887C806.32 503.798 807.056 506.794 808.529 508.876C810.001 510.932 812.109 511.961 814.851 511.961C817.517 511.961 819.599 510.945 821.097 508.914C822.595 506.857 823.344 503.582 823.344 499.088C823.344 495.254 822.595 492.283 821.097 490.176C819.599 488.068 817.491 487.014 814.775 487.014C812.083 487.014 810.001 488.068 808.529 490.176C807.056 492.258 806.32 495.495 806.32 499.887ZM897.65 499.849C897.65 506.197 896.202 511.288 893.308 515.122C890.439 518.93 886.554 520.835 881.654 520.835C877.49 520.835 874.125 519.387 871.561 516.493V535.917H860.554V478.864H870.761L871.142 482.901C873.808 479.702 877.286 478.102 881.577 478.102C886.656 478.102 890.604 479.981 893.422 483.739C896.24 487.497 897.65 492.677 897.65 499.278V499.849ZM886.643 499.05C886.643 495.216 885.957 492.258 884.586 490.176C883.24 488.094 881.273 487.052 878.683 487.052C875.23 487.052 872.856 488.373 871.561 491.013V507.885C872.906 510.602 875.306 511.961 878.759 511.961C884.015 511.961 886.643 507.657 886.643 499.05ZM923.472 520.835C917.429 520.835 912.503 518.981 908.695 515.274C904.911 511.567 903.02 506.629 903.02 500.459V499.392C903.02 495.254 903.82 491.559 905.419 488.309C907.019 485.034 909.279 482.52 912.198 480.768C915.144 478.991 918.495 478.102 922.253 478.102C927.89 478.102 932.321 479.88 935.545 483.434C938.795 486.989 940.42 492.029 940.42 498.554V503.049H914.179C914.534 505.74 915.601 507.898 917.378 509.523C919.181 511.148 921.453 511.961 924.196 511.961C928.436 511.961 931.749 510.425 934.136 507.352L939.544 513.408C937.894 515.744 935.659 517.572 932.841 518.892C930.023 520.187 926.9 520.835 923.472 520.835ZM922.215 487.014C920.031 487.014 918.254 487.751 916.883 489.223C915.537 490.696 914.674 492.803 914.293 495.546H929.604V494.67C929.553 492.232 928.893 490.353 927.623 489.033C926.354 487.687 924.551 487.014 922.215 487.014ZM969.861 489.185C968.363 488.982 967.042 488.881 965.9 488.881C961.736 488.881 959.006 490.29 957.711 493.108V520.073H946.704V478.864H957.102L957.406 483.777C959.615 479.994 962.675 478.102 966.585 478.102C967.804 478.102 968.947 478.267 970.013 478.597L969.861 489.185ZM985.514 478.864L985.857 483.472C988.777 479.892 992.725 478.102 997.701 478.102C1003.01 478.102 1006.65 480.197 1008.63 484.386C1011.53 480.197 1015.65 478.102 1021.01 478.102C1025.48 478.102 1028.8 479.41 1030.99 482.025C1033.17 484.615 1034.26 488.525 1034.26 493.756V520.073H1023.22V493.794C1023.22 491.458 1022.76 489.757 1021.85 488.69C1020.93 487.598 1019.32 487.052 1017.01 487.052C1013.71 487.052 1011.43 488.627 1010.16 491.775L1010.19 520.073H999.187V493.832C999.187 491.445 998.717 489.719 997.778 488.652C996.838 487.586 995.239 487.052 992.979 487.052C989.856 487.052 987.596 488.347 986.199 490.937V520.073H975.193V478.864H985.514ZM1054.37 520.073H1043.33V478.864H1054.37V520.073ZM1042.68 468.2C1042.68 466.55 1043.23 465.191 1044.32 464.125C1045.44 463.058 1046.95 462.525 1048.85 462.525C1050.73 462.525 1052.23 463.058 1053.34 464.125C1054.46 465.191 1055.02 466.55 1055.02 468.2C1055.02 469.876 1054.45 471.247 1053.31 472.313C1052.19 473.38 1050.7 473.913 1048.85 473.913C1047 473.913 1045.5 473.38 1044.36 472.313C1043.24 471.247 1042.68 469.876 1042.68 468.2ZM1085.79 508.685C1085.79 507.34 1085.12 506.286 1083.78 505.524C1082.46 504.737 1080.32 504.039 1077.38 503.429C1067.58 501.373 1062.68 497.209 1062.68 490.937C1062.68 487.281 1064.19 484.234 1067.21 481.797C1070.26 479.334 1074.23 478.102 1079.13 478.102C1084.36 478.102 1088.54 479.334 1091.66 481.797C1094.81 484.26 1096.38 487.459 1096.38 491.394H1085.38C1085.38 489.82 1084.87 488.525 1083.85 487.51C1082.84 486.469 1081.25 485.948 1079.09 485.948C1077.24 485.948 1075.8 486.367 1074.79 487.205C1073.77 488.043 1073.26 489.109 1073.26 490.404C1073.26 491.623 1073.84 492.613 1074.98 493.375C1076.15 494.111 1078.1 494.759 1080.84 495.317C1083.59 495.85 1085.9 496.46 1087.77 497.145C1093.59 499.278 1096.5 502.972 1096.5 508.228C1096.5 511.986 1094.88 515.033 1091.66 517.369C1088.43 519.679 1084.27 520.835 1079.17 520.835C1075.71 520.835 1072.64 520.225 1069.95 519.007C1067.28 517.762 1065.19 516.074 1063.67 513.941C1062.14 511.783 1061.38 509.46 1061.38 506.971H1071.82C1071.92 508.927 1072.64 510.425 1073.99 511.466C1075.33 512.507 1077.14 513.027 1079.4 513.027C1081.5 513.027 1083.09 512.634 1084.16 511.846C1085.25 511.034 1085.79 509.98 1085.79 508.685ZM1125.94 508.685C1125.94 507.34 1125.26 506.286 1123.92 505.524C1122.6 504.737 1120.47 504.039 1117.52 503.429C1107.72 501.373 1102.82 497.209 1102.82 490.937C1102.82 487.281 1104.33 484.234 1107.35 481.797C1110.4 479.334 1114.37 478.102 1119.27 478.102C1124.5 478.102 1128.68 479.334 1131.8 481.797C1134.95 484.26 1136.52 487.459 1136.52 491.394H1125.52C1125.52 489.82 1125.01 488.525 1123.99 487.51C1122.98 486.469 1121.39 485.948 1119.23 485.948C1117.38 485.948 1115.95 486.367 1114.93 487.205C1113.91 488.043 1113.41 489.109 1113.41 490.404C1113.41 491.623 1113.98 492.613 1115.12 493.375C1116.29 494.111 1118.24 494.759 1120.99 495.317C1123.73 495.85 1126.04 496.46 1127.92 497.145C1133.73 499.278 1136.64 502.972 1136.64 508.228C1136.64 511.986 1135.03 515.033 1131.8 517.369C1128.58 519.679 1124.41 520.835 1119.31 520.835C1115.86 520.835 1112.78 520.225 1110.09 519.007C1107.43 517.762 1105.33 516.074 1103.81 513.941C1102.29 511.783 1101.52 509.46 1101.52 506.971H1111.96C1112.06 508.927 1112.78 510.425 1114.13 511.466C1115.48 512.507 1117.28 513.027 1119.54 513.027C1121.65 513.027 1123.23 512.634 1124.3 511.846C1125.39 511.034 1125.94 509.98 1125.94 508.685ZM1155.38 520.073H1144.33V478.864H1155.38V520.073ZM1143.68 468.2C1143.68 466.55 1144.23 465.191 1145.32 464.125C1146.44 463.058 1147.95 462.525 1149.85 462.525C1151.73 462.525 1153.23 463.058 1154.35 464.125C1155.47 465.191 1156.02 466.55 1156.02 468.2C1156.02 469.876 1155.45 471.247 1154.31 472.313C1153.19 473.38 1151.71 473.913 1149.85 473.913C1148 473.913 1146.5 473.38 1145.36 472.313C1144.24 471.247 1143.68 469.876 1143.68 468.2ZM1162.77 499.088C1162.77 495 1163.55 491.356 1165.13 488.157C1166.7 484.958 1168.96 482.482 1171.91 480.73C1174.88 478.978 1178.32 478.102 1182.23 478.102C1187.79 478.102 1192.32 479.803 1195.82 483.206C1199.35 486.608 1201.32 491.229 1201.73 497.069L1201.8 499.887C1201.8 506.21 1200.04 511.288 1196.51 515.122C1192.98 518.93 1188.25 520.835 1182.3 520.835C1176.36 520.835 1171.61 518.93 1168.06 515.122C1164.53 511.313 1162.77 506.134 1162.77 499.583V499.088ZM1173.77 499.887C1173.77 503.798 1174.51 506.794 1175.98 508.876C1177.45 510.932 1179.56 511.961 1182.3 511.961C1184.97 511.961 1187.05 510.945 1188.55 508.914C1190.05 506.857 1190.8 503.582 1190.8 499.088C1190.8 495.254 1190.05 492.283 1188.55 490.176C1187.05 488.068 1184.94 487.014 1182.23 487.014C1179.54 487.014 1177.45 488.068 1175.98 490.176C1174.51 492.258 1173.77 495.495 1173.77 499.887ZM1218.71 478.864L1219.06 483.625C1222 479.943 1225.95 478.102 1230.9 478.102C1235.27 478.102 1238.52 479.385 1240.65 481.949C1242.78 484.513 1243.88 488.347 1243.93 493.451V520.073H1232.92V493.718C1232.92 491.382 1232.41 489.693 1231.4 488.652C1230.38 487.586 1228.69 487.052 1226.33 487.052C1223.23 487.052 1220.91 488.373 1219.36 491.013V520.073H1208.35V478.864H1218.71Z" fill="#7166F8"/>
<path d="M1113.04 365.961C1111.07 362.242 1109.04 358.551 1107.1 354.805C1103.68 348.177 1025.14 197.526 1018.93 185.4C1017.61 182.817 1015.73 181.647 1012.78 181.647C999.73 181.725 986.683 181.725 973.636 181.647C971.021 181.647 969.234 182.582 968.003 184.874C963.913 192.547 882.313 348.967 873.043 366.737C871.394 369.908 871.798 371.889 874.357 374.389C882.313 382.173 890.353 389.86 898.128 397.831C899.394 399.233 900.954 400.341 902.698 401.074C904.443 401.808 906.328 402.15 908.22 402.076C964.004 401.958 1079.5 401.972 1081.47 401.965C1082.32 401.968 1083.16 401.798 1083.94 401.467C1084.72 401.136 1085.42 400.651 1086.01 400.04C1094.52 391.661 1103.08 383.329 1111.6 374.943C1114.89 371.709 1115.15 369.929 1113.04 365.961ZM992.532 191.938C997.713 192.111 1002.9 192.09 1008.08 191.938C1009.92 191.882 1010.82 192.554 1011.56 194.064C1014.68 200.144 1094.14 352.589 1096.76 357.498C1097.68 359.237 1097.53 359.943 1095.28 359.936C1051.13 359.885 1006.98 359.885 962.821 359.936C960.603 359.936 959.928 359.535 961.048 357.353C963.656 352.256 965.408 346.785 968.051 341.688C969.101 339.68 970.068 338.842 972.419 338.849C999.055 338.939 1053.57 338.925 1054.2 338.904C1058.69 338.759 1061.06 335.165 1059.07 331.162C1055.15 323.392 994.931 201.91 991.03 194.237C990.098 192.346 990.285 191.868 992.532 191.938ZM993.067 286.481C995.015 288.807 1010.18 323.724 1011.5 326.536C1012.13 327.872 1012.27 328.613 1010.34 328.579C998.907 328.523 987.483 328.523 976.063 328.579C973.587 328.579 974.554 327.381 975.048 326.287C980.452 314.327 992.483 287.679 993.067 286.481ZM901.842 383.26C901.209 385.102 900.493 385.4 898.984 383.849C895.131 379.888 891.132 376.072 887.196 372.201C883.802 368.856 883.795 368.856 886.083 364.465C890.589 355.816 972.516 198.427 974.853 194.022C975.312 193.17 975.548 191.945 976.939 191.834C978.456 191.716 978.921 192.9 979.415 193.911C986.453 208.156 1044 324.278 1044.46 325.213C1046 328.309 1046.02 328.309 1042.69 328.316C1037.37 328.316 1032.05 328.316 1026.74 328.316C1025.59 328.316 1024.42 328.461 1023.39 327.748C1023.39 327.748 1022.56 326.944 1023.22 327.63C1022.9 326.501 988.442 249.465 984.151 239.888C983.718 238.71 982.874 237.727 981.773 237.118C978.831 235.636 975.757 236.584 974.164 239.728C965.68 256.439 902.656 380.878 901.842 383.26ZM1099.7 371.723C1093.54 377.782 1087.35 383.814 1081.23 389.915C1080.73 390.419 1080.14 390.811 1079.48 391.067C1078.83 391.323 1078.12 391.435 1077.42 391.397C1022.63 391.363 911.266 391.397 910.063 391.397C911.572 387.436 971.132 269.382 977.6 256.584C977.906 255.968 977.983 254.978 978.741 254.929C979.756 254.867 979.763 255.989 980.069 256.667C982.301 261.605 984.464 266.571 986.739 271.48C986.992 271.983 987.125 272.538 987.125 273.101C987.125 273.664 986.992 274.219 986.739 274.721C985.209 278.406 955.234 344.756 947.597 361.799C945.135 367.298 947.243 370.379 953.279 370.379H1100.02C1100.09 370.489 1100.14 370.61 1100.16 370.737C1100.18 370.864 1100.17 370.994 1100.14 371.119C1100.11 371.244 1100.06 371.362 1099.98 371.466C1099.9 371.569 1099.81 371.657 1099.7 371.723Z" fill="url(#paint0_linear)"/>
<defs>
<linearGradient id="paint0_linear" x1="993.227" y1="161.979" x2="993.227" y2="386.363" gradientUnits="userSpaceOnUse">
<stop stop-color="#FE794F"/>
<stop offset="1" stop-color="#7166F8"/>
</linearGradient>
</defs>
</svg>
