<svg width="1474" height="935" viewBox="0 0 1474 935" fill="none" xmlns="http://www.w3.org/2000/svg">
<path d="M-302.944 1979.66C-275.55 1945.14 -248.656 1910.26 -220.819 1875.98C-171.585 1815.32 944.365 429.843 1034.69 319.37C1053.93 295.837 1057.22 273.854 1044.78 247.897C988.952 133.409 933.882 18.5593 879.567 -96.6518C868.53 -119.671 852.003 -131.097 824.783 -131.373C733.797 -132.02 -1113.53 -129.687 -1323.4 -129.426C-1360.83 -129.323 -1378.16 -116.647 -1391.38 -82.6006C-1432.58 23.2966 -1472.51 129.482 -1516.28 234.649C-1524.41 252.25 -1528.46 271.087 -1528.15 289.821C-1527.84 308.554 -1523.17 326.724 -1514.47 343.037C-1277.88 833.544 -790.523 1850.3 -782.15 1867.59C-778.591 1875.07 -773.417 1881.68 -766.942 1887.03C-760.467 1892.38 -752.825 1896.35 -744.483 1898.7C-628.041 1935.03 -511.859 1972.01 -395.351 2008.3C-350.363 2022.42 -332.177 2016.49 -302.944 1979.66ZM860.447 117.095C880.653 163.502 902.751 209.076 926.084 253.984C934.366 269.891 931.699 280.883 920.334 294.389C875.094 349.889 -254.244 1751.65 -290.353 1797.35C-303.18 1813.44 -310.613 1815.35 -320.028 1795.54C-505.884 1406.68 -692.247 1018.01 -879.118 629.539C-888.482 610.009 -887.47 602.22 -861.784 602.027C-801.804 601.503 -741.841 591.725 -681.714 591.507C-657.985 591.499 -645.853 596.148 -635.998 616.873C-524.434 851.762 -294.19 1331.61 -291.348 1337.02C-270.988 1375.9 -226.444 1380.22 -196.41 1344.2C-138.28 1273.94 774.759 184.159 832.016 114.463C846.247 97.55 851.631 97.0015 860.447 117.095ZM-45.6785 557.373C-59.8162 585.234 -331.281 879.62 -352.719 904.205C-362.919 915.872 -369.451 920.511 -377.279 903.332C-424.987 802.471 -473.207 701.906 -521.939 601.638C-532.39 579.843 -516.798 582.833 -504.201 582.139C-366.48 574.608 -59.6555 557.75 -45.6785 557.373ZM-1360.6 200.213C-1380.97 203.128 -1386.86 198.195 -1378.32 177.763C-1356.53 125.597 -1336.74 72.8161 -1316.16 20.3305C-1298.35 -24.955 -1298.38 -25.0163 -1246.53 -25.1024C-1144.41 -25.2806 713.618 -29.203 765.799 -28.9244C775.921 -28.8081 788.696 -32.3737 795.632 -20.6401C803.163 -7.83639 793.751 1.72101 786.121 10.7257C678.958 138.309 -193.852 1179.89 -200.898 1188.24C-224.153 1216.03 -224.065 1216.21 -238.192 1186.92C-260.639 1140.1 -283.086 1093.29 -305.532 1046.48C-310.346 1036.44 -316.705 1026.76 -314.196 1014.41C-314.196 1014.41 -309.97 1003.43 -313.798 1012.34C-304.303 1004.32 290.45 346.13 364.361 264.233C373.845 254.991 379.728 243.031 380.937 230.533C382.759 197.809 360.669 175.121 323.738 175.586C127.367 177.884 -1334.28 196.4 -1360.6 200.213ZM-414.636 1888.72C-498.837 1862.46 -582.947 1835.7 -667.4 1809.93C-674.308 1807.93 -680.587 1804.51 -685.813 1799.92C-691.039 1795.32 -695.091 1789.64 -697.696 1783.27C-928.649 1300.76 -1399.01 320.655 -1404.09 310.063C-1359.66 305.099 26.0208 285.51 176.284 283.485C183.498 283.339 193.336 279.45 197.001 285.9C201.886 294.551 191.136 299.781 185.907 305.601C147.887 348.001 109.308 389.917 71.7316 432.556C67.972 437.107 63.1979 440.827 57.7909 443.42C52.3839 446.013 46.4939 447.406 40.5915 447.488C-1.26516 450.992 -765.291 492.812 -961.274 504.109C-1024.5 507.77 -1045.21 540.517 -1019.73 593.656L-400.348 1885.41C-401.11 1886.51 -402.087 1887.47 -403.221 1888.24C-404.355 1889.01 -405.624 1889.56 -406.954 1889.87C-408.284 1890.18 -409.648 1890.23 -410.967 1890.04C-412.286 1889.84 -413.533 1889.39 -414.636 1888.72Z" fill="url(#paint0_linear)"/>
<defs>
<linearGradient id="paint0_linear" x1="1151.23" y1="-14.803" x2="-1004.69" y2="1018.94" gradientUnits="userSpaceOnUse">
<stop stop-color="#FE794F"/>
<stop offset="0.307292" stop-color="#D37383"/>
<stop offset="0.651042" stop-color="#A26DBD"/>
<stop offset="1" stop-color="#7166F8"/>
</linearGradient>
</defs>
</svg>
