<svg width="1171" height="935" viewBox="0 0 1171 935" fill="none" xmlns="http://www.w3.org/2000/svg">
<path d="M1045.36 738.332C1015.34 706.075 984.881 674.258 955.159 641.6C902.568 583.833 -300.064 -727.113 -395.757 -832.971C-416.14 -855.521 -437.382 -862.067 -464.911 -853.651C-586.471 -815.612 -708.276 -778.372 -830.325 -741.933C-854.737 -734.469 -868.511 -719.841 -872.862 -692.969C-887.135 -603.108 -1161.62 1223.72 -1192.81 1431.25C-1198.32 1468.28 -1188.38 1487.31 -1156.7 1505.48C-1058.17 1562.09 -959.166 1617.47 -861.744 1676.5C-845.56 1687.18 -827.543 1694.01 -808.974 1696.51C-790.405 1699.01 -771.741 1697.11 -754.309 1690.96C-233.891 1530.54 844.407 1201.02 862.76 1195.34C870.689 1192.94 878.004 1188.81 884.262 1183.21C890.519 1177.61 895.588 1170.65 899.16 1162.76C952.526 1053.07 1006.5 943.743 1059.84 833.988C1080.54 791.624 1077.4 772.753 1045.36 738.332ZM-621.856 -691.002C-572.945 -704.027 -524.574 -719.047 -476.677 -735.388C-459.709 -741.193 -449.241 -736.908 -437.59 -723.649C-389.495 -670.603 827.23 656.019 867.005 698.568C880.99 713.66 881.763 721.295 860.769 727.636C448.45 853.129 36.2455 979.153 -375.844 1105.71C-396.556 1112.04 -404.105 1109.87 -400.448 1084.45C-391.979 1025.06 -392.661 964.314 -383.868 904.833C-380.321 881.371 -373.906 870.073 -351.939 863.434C-102.985 788.324 405.94 632.576 411.718 630.578C453.209 616.272 464.152 572.879 433.047 537.787C372.286 469.786 -568.388 -596.233 -628.717 -663.286C-643.307 -679.891 -643.043 -685.296 -621.856 -691.002ZM-322.317 270.863C-296.888 289.016 -46.5009 601.526 -25.4053 626.405C-15.3979 638.238 -11.7907 645.392 -29.9485 650.557C-136.819 682.613 -243.474 715.221 -349.912 748.38C-373.027 755.447 -367.734 740.479 -366.533 727.92C-353.344 590.626 -324.039 284.739 -322.317 270.863ZM-872.466 1517.43C-872.636 1538.01 -878.396 1543.08 -897.318 1531.58C-945.628 1502.22 -994.849 1474.75 -1043.66 1446.54C-1085.76 1422.14 -1085.83 1422.16 -1078.15 1370.89C-1063.02 1269.89 -788.502 -567.751 -780.408 -619.302C-778.776 -629.292 -780.388 -642.457 -767.747 -647.556C-753.96 -653.083 -745.92 -642.346 -738.161 -633.453C-628.074 -508.383 270.969 510.639 278.166 518.855C302.159 546.012 302.354 545.953 271.275 555.532C221.627 570.71 171.979 585.889 122.331 601.068C111.683 604.324 101.163 609.161 89.3319 604.83C89.3319 604.83 79.1028 599.006 87.3419 604.126C80.8385 593.537 -480.811 -93.1222 -550.71 -178.47C-558.426 -189.232 -569.369 -196.84 -581.545 -199.908C-613.626 -206.613 -639.369 -188.171 -644.442 -151.588C-671.594 42.9102 -872.291 1490.83 -872.466 1517.43ZM938.719 835.138C900.136 914.453 861.077 993.604 822.948 1073.24C819.932 1079.77 815.614 1085.47 810.284 1089.95C804.954 1094.43 798.736 1097.58 792.049 1099.2C280.376 1255.25 -759.139 1573.45 -770.371 1576.88C-768.623 1532.21 -580.367 159.239 -559.855 10.3685C-558.918 3.21452 -561.289 -7.09506 -554.363 -9.75273C-545.078 -13.286 -541.518 -1.87384 -536.547 4.1684C-500.322 48.1114 -464.66 92.5351 -428.132 136.077C-424.196 140.476 -421.233 145.753 -419.48 151.488C-417.727 157.222 -417.232 163.255 -418.035 169.103C-420.842 211.012 -493.972 972.679 -512.167 1168.14C-518.021 1231.2 -488.747 1256.59 -432.39 1239.36L937.585 820.515C938.562 821.434 939.367 822.544 939.954 823.78C940.541 825.016 940.897 826.353 941.003 827.714C941.109 829.075 940.961 830.433 940.569 831.707C940.176 832.982 939.548 834.148 938.719 835.138Z" fill="url(#paint0_linear)"/>
<defs>
<linearGradient id="paint0_linear" x1="-708.695" y1="-998.264" x2="-9.65045" y2="1288.21" gradientUnits="userSpaceOnUse">
<stop stop-color="#FE794F"/>
<stop offset="1" stop-color="#7166F8"/>
</linearGradient>
</defs>
</svg>
