<svg width="20" height="32" viewBox="0 0 17 17" fill="none" xmlns="http://www.w3.org/2000/svg">
<path d="M1.29102 0.645996C1.29102 0.513388 1.37881 0.386211 1.53509 0.292443C1.69138 0.198675 1.90334 0.145996 2.12435 0.145996H10.4577C10.6787 0.145996 10.8907 0.198675 11.047 0.292443C11.2033 0.386211 11.2911 0.513388 11.2911 0.645996C11.2911 0.778604 11.2033 0.905781 11.047 0.999549C10.8907 1.09332 10.6787 1.146 10.4577 1.146H2.12435C1.90334 1.146 1.69138 1.09332 1.53509 0.999549C1.37881 0.905781 1.29102 0.778604 1.29102 0.645996Z" fill="#727272"/>
<path d="M0.938477 10.646C0.938477 10.5134 1.03246 10.3862 1.19976 10.2924C1.36706 10.1987 1.59397 10.146 1.83056 10.146H10.7514C10.988 10.146 11.2149 10.1987 11.3822 10.2924C11.5495 10.3862 11.6435 10.5134 11.6435 10.646C11.6435 10.7786 11.5495 10.9058 11.3822 10.9995C11.2149 11.0933 10.988 11.146 10.7514 11.146H1.83056C1.59397 11.146 1.36706 11.0933 1.19976 10.9995C1.03246 10.9058 0.938477 10.7786 0.938477 10.646Z" fill="#727272"/>
<path d="M0.790039 1.896C0.790039 1.69708 0.842718 1.50632 0.936486 1.36567C1.03025 1.22501 1.15743 1.146 1.29004 1.146C1.42265 1.146 1.54982 1.22501 1.64359 1.36567C1.73736 1.50632 1.79004 1.69708 1.79004 1.896V9.396C1.79004 9.59491 1.73736 9.78567 1.64359 9.92633C1.54982 10.067 1.42265 10.146 1.29004 10.146C1.15743 10.146 1.03025 10.067 0.936486 9.92633C0.842718 9.78567 0.790039 9.59491 0.790039 9.396V1.896Z" fill="#727272"/>
<path d="M11.291 1.83242C11.291 1.63013 11.3437 1.43613 11.4375 1.2931C11.5312 1.15006 11.6584 1.0697 11.791 1.0697C11.9236 1.0697 12.0508 1.15006 12.1446 1.2931C12.2383 1.43613 12.291 1.63013 12.291 1.83242V9.4596C12.291 9.66188 12.2383 9.85588 12.1446 9.99892C12.0508 10.142 11.9236 10.2223 11.791 10.2223C11.6584 10.2223 11.5312 10.142 11.4375 9.99892C11.3437 9.85588 11.291 9.66188 11.291 9.4596V1.83242Z" fill="#727272"/>

</svg>
