<svg width="25" height="23" viewBox="0 0 25 23" fill="none" xmlns="http://www.w3.org/2000/svg">
<path d="M6.44727 16.5312H3.59727C3.4083 16.5312 3.22707 16.607 3.09345 16.7418C2.95983 16.8766 2.88477 17.0594 2.88477 17.25V20.125C2.88477 20.3156 2.95983 20.4984 3.09345 20.6332C3.22707 20.768 3.4083 20.8438 3.59727 20.8438H6.44727C6.63623 20.8438 6.81746 20.768 6.95108 20.6332C7.0847 20.4984 7.15977 20.3156 7.15977 20.125V17.25C7.15977 17.0594 7.0847 16.8766 6.95108 16.7418C6.81746 16.607 6.63623 16.5312 6.44727 16.5312ZM6.44727 2.15625H3.59727C3.4083 2.15625 3.22707 2.23198 3.09345 2.36677C2.95983 2.50156 2.88477 2.68438 2.88477 2.875V5.75C2.88477 5.94062 2.95983 6.12344 3.09345 6.25823C3.22707 6.39302 3.4083 6.46875 3.59727 6.46875H6.44727C6.63623 6.46875 6.81746 6.39302 6.95108 6.25823C7.0847 6.12344 7.15977 5.94062 7.15977 5.75V2.875C7.15977 2.68438 7.0847 2.50156 6.95108 2.36677C6.81746 2.23198 6.63623 2.15625 6.44727 2.15625ZM6.44727 9.34375H3.59727C3.4083 9.34375 3.22707 9.41948 3.09345 9.55427C2.95983 9.68906 2.88477 9.87188 2.88477 10.0625V12.9375C2.88477 13.1281 2.95983 13.3109 3.09345 13.4457C3.22707 13.5805 3.4083 13.6562 3.59727 13.6562H6.44727C6.63623 13.6562 6.81746 13.5805 6.95108 13.4457C7.0847 13.3109 7.15977 13.1281 7.15977 12.9375V10.0625C7.15977 9.87188 7.0847 9.68906 6.95108 9.55427C6.81746 9.41948 6.63623 9.34375 6.44727 9.34375Z" fill="#7166F8"/>
<path d="M13.6465 16.5312H10.7965C10.6075 16.5312 10.4263 16.607 10.2927 16.7418C10.1591 16.8766 10.084 17.0594 10.084 17.25V20.125C10.084 20.3156 10.1591 20.4984 10.2927 20.6332C10.4263 20.768 10.6075 20.8438 10.7965 20.8438H13.6465C13.8354 20.8438 14.0167 20.768 14.1503 20.6332C14.2839 20.4984 14.359 20.3156 14.359 20.125V17.25C14.359 17.0594 14.2839 16.8766 14.1503 16.7418C14.0167 16.607 13.8354 16.5312 13.6465 16.5312ZM13.6465 2.15625H10.7965C10.6075 2.15625 10.4263 2.23198 10.2927 2.36677C10.1591 2.50156 10.084 2.68438 10.084 2.875V5.75C10.084 5.94062 10.1591 6.12344 10.2927 6.25823C10.4263 6.39302 10.6075 6.46875 10.7965 6.46875H13.6465C13.8354 6.46875 14.0167 6.39302 14.1503 6.25823C14.2839 6.12344 14.359 5.94062 14.359 5.75V2.875C14.359 2.68438 14.2839 2.50156 14.1503 2.36677C14.0167 2.23198 13.8354 2.15625 13.6465 2.15625ZM13.6465 9.34375H10.7965C10.6075 9.34375 10.4263 9.41948 10.2927 9.55427C10.1591 9.68906 10.084 9.87188 10.084 10.0625V12.9375C10.084 13.1281 10.1591 13.3109 10.2927 13.4457C10.4263 13.5805 10.6075 13.6562 10.7965 13.6562H13.6465C13.8354 13.6562 14.0167 13.5805 14.1503 13.4457C14.2839 13.3109 14.359 13.1281 14.359 12.9375V10.0625C14.359 9.87188 14.2839 9.68906 14.1503 9.55427C14.0167 9.41948 13.8354 9.34375 13.6465 9.34375Z" fill="#7166F8"/>
<path d="M20.8467 16.5312H17.9967C17.8077 16.5312 17.6265 16.607 17.4929 16.7418C17.3592 16.8766 17.2842 17.0594 17.2842 17.25V20.125C17.2842 20.3156 17.3592 20.4984 17.4929 20.6332C17.6265 20.768 17.8077 20.8438 17.9967 20.8438H20.8467C21.0356 20.8438 21.2169 20.768 21.3505 20.6332C21.4841 20.4984 21.5592 20.3156 21.5592 20.125V17.25C21.5592 17.0594 21.4841 16.8766 21.3505 16.7418C21.2169 16.607 21.0356 16.5312 20.8467 16.5312ZM20.8467 2.15625H17.9967C17.8077 2.15625 17.6265 2.23198 17.4929 2.36677C17.3592 2.50156 17.2842 2.68438 17.2842 2.875V5.75C17.2842 5.94062 17.3592 6.12344 17.4929 6.25823C17.6265 6.39302 17.8077 6.46875 17.9967 6.46875H20.8467C21.0356 6.46875 21.2169 6.39302 21.3505 6.25823C21.4841 6.12344 21.5592 5.94062 21.5592 5.75V2.875C21.5592 2.68438 21.4841 2.50156 21.3505 2.36677C21.2169 2.23198 21.0356 2.15625 20.8467 2.15625ZM20.8467 9.34375H17.9967C17.8077 9.34375 17.6265 9.41948 17.4929 9.55427C17.3592 9.68906 17.2842 9.87188 17.2842 10.0625V12.9375C17.2842 13.1281 17.3592 13.3109 17.4929 13.4457C17.6265 13.5805 17.8077 13.6562 17.9967 13.6562H20.8467C21.0356 13.6562 21.2169 13.5805 21.3505 13.4457C21.4841 13.3109 21.5592 13.1281 21.5592 12.9375V10.0625C21.5592 9.87188 21.4841 9.68906 21.3505 9.55427C21.2169 9.41948 21.0356 9.34375 20.8467 9.34375Z" fill="#7166F8"/>
</svg>
