<svg xmlns="http://www.w3.org/2000/svg" width="11" height="11" viewBox="0 0 11 11" fill="none">
    <path d="M6.9639 5.18117L10.5438 1.60912C10.7005 1.45233 10.7886 1.23967 10.7886 1.01794C10.7886 0.796204 10.7005 0.58355 10.5438 0.426759C10.387 0.269969 10.1744 0.181885 9.95268 0.181885C9.73098 0.181885 9.51836 0.269969 9.36159 0.426759L5.79004 4.00714L2.21849 0.426759C2.06172 0.269969 1.8491 0.181885 1.6274 0.181885C1.40569 0.181885 1.19307 0.269969 1.0363 0.426759C0.879531 0.58355 0.79146 0.796204 0.79146 1.01794C0.79146 1.23967 0.879531 1.45233 1.0363 1.60912L4.61617 5.18117L1.0363 8.75323C0.958268 8.83064 0.896333 8.92273 0.854066 9.02419C0.8118 9.12566 0.790039 9.23449 0.790039 9.34441C0.790039 9.45433 0.8118 9.56316 0.854066 9.66463C0.896333 9.76609 0.958268 9.85818 1.0363 9.93559C1.11369 10.0136 1.20577 10.0756 1.30722 10.1178C1.40868 10.1601 1.51749 10.1819 1.6274 10.1819C1.7373 10.1819 1.84612 10.1601 1.94757 10.1178C2.04902 10.0756 2.1411 10.0136 2.21849 9.93559L5.79004 6.35521L9.36159 9.93559C9.43898 10.0136 9.53106 10.0756 9.63251 10.1178C9.73396 10.1601 9.84278 10.1819 9.95268 10.1819C10.0626 10.1819 10.1714 10.1601 10.2729 10.1178C10.3743 10.0756 10.4664 10.0136 10.5438 9.93559C10.6218 9.85818 10.6837 9.76609 10.726 9.66463C10.7683 9.56316 10.79 9.45433 10.79 9.34441C10.79 9.23449 10.7683 9.12566 10.726 9.02419C10.6837 8.92273 10.6218 8.83064 10.5438 8.75323L6.9639 5.18117Z" fill="#727272"/>
</svg>
