<svg width="13" height="13" viewBox="0 0 13 13" fill="none" xmlns="http://www.w3.org/2000/svg">
<path d="M2.67647 13H1.91176L2.37059 12.35C2.67647 11.9031 2.86765 11.3344 2.98235 10.6438C1.07059 9.70938 0 7.9625 0 5.6875C0 2.19375 2.48529 0 6.5 0C10.5147 0 13 2.19375 13 5.6875C13 9.2625 10.5529 11.375 6.5 11.375H6.23235C5.62059 12.1469 4.55 13 2.67647 13ZM6.5 0.8125C2.90588 0.8125 0.764706 2.64062 0.764706 5.6875C0.764706 8.2875 2.25588 9.50625 3.51765 10.0344L3.78529 10.1562L3.74706 10.4812C3.67059 11.1312 3.55588 11.7 3.32647 12.1875C4.58824 12.025 5.31471 11.3344 5.73529 10.7656L5.85 10.6031H6.5C11.6618 10.6031 12.2353 7.19063 12.2353 5.72813C12.2353 2.64063 10.0941 0.8125 6.5 0.8125Z" fill="#727272"/>
</svg>
