<svg width="26" height="26" viewBox="0 0 32 29" fill="none" xmlns="http://www.w3.org/2000/svg">
<path d="M15.7324 3.22222C13.4867 3.22222 11.3877 3.65856 9.43555 4.53125C7.48337 5.40394 5.93117 6.5871 4.77894 8.08073C3.62672 9.57436 3.0506 11.1771 3.0506 12.8889C3.0506 14.265 3.43957 15.5909 4.21751 16.8663C4.99544 18.1418 6.08896 19.2494 7.49805 20.1892L9.6337 21.599L8.8631 23.7135C9.36216 23.3779 9.81718 23.0506 10.2282 22.7318L11.1969 21.9514L12.3638 22.2031C13.5087 22.4381 14.6316 22.5556 15.7324 22.5556C17.9782 22.5556 20.0771 22.1192 22.0293 21.2465C23.9815 20.3738 25.5337 19.1907 26.6859 17.6971C27.8381 16.2034 28.4142 14.6007 28.4142 12.8889C28.4142 11.1771 27.8381 9.57436 26.6859 8.08073C25.5337 6.5871 23.9815 5.40394 22.0293 4.53125C20.0771 3.65856 17.9782 3.22222 15.7324 3.22222ZM15.7324 0C18.5359 0 21.1303 0.574797 23.5154 1.72439C25.9006 2.87399 27.7831 4.43895 29.1628 6.41927C30.5426 8.3996 31.2324 10.5561 31.2324 12.8889C31.2324 15.2216 30.5426 17.3782 29.1628 19.3585C27.7831 21.3388 25.9006 22.9038 23.5154 24.0534C21.1303 25.203 18.5359 25.7778 15.7324 25.7778C14.4701 25.7778 13.1784 25.6435 11.8574 25.375C10.0373 26.8519 7.9971 27.9259 5.73668 28.5972C5.20827 28.7483 4.57712 28.8825 3.84322 29H3.77717C3.61571 29 3.46526 28.9329 3.32582 28.7986C3.18638 28.6644 3.10198 28.4881 3.07262 28.27C3.05794 28.2196 3.0506 28.1651 3.0506 28.1063C3.0506 28.0476 3.05427 27.9931 3.06161 27.9427C3.06895 27.8924 3.08363 27.842 3.10565 27.7917L3.16069 27.6658L3.23775 27.5273L3.32582 27.4015L3.42489 27.2756L3.51296 27.1623C3.58635 27.0616 3.75515 26.8519 4.01935 26.533C4.28356 26.2141 4.47437 25.9666 4.5918 25.7904C4.70922 25.6142 4.87435 25.3708 5.08718 25.0603C5.30001 24.7499 5.48349 24.4268 5.63761 24.0911C5.79173 23.7555 5.94218 23.3863 6.08896 22.9835C4.26888 21.7752 2.83777 20.2899 1.79563 18.5278C0.753492 16.7656 0.232422 14.886 0.232422 12.8889C0.232422 10.5561 0.922289 8.3996 2.30202 6.41927C3.68176 4.43895 5.56422 2.87399 7.9494 1.72439C10.3346 0.574797 12.9289 0 15.7324 0Z" fill="#7166F8"/>
</svg>
