<svg width="27" height="21" viewBox="0 0 27 21" fill="none" xmlns="http://www.w3.org/2000/svg">
<path d="M10.6096 1.91298H10.5168C9.00088 1.91298 7.55214 2.19726 6.22186 2.71596L6.30141 2.68885C5.08768 3.12631 3.99704 3.84423 3.12021 4.78289L3.11491 4.78814C2.37348 5.55522 1.95123 6.5705 1.93223 7.63181V7.63618C1.94175 8.48932 2.22394 9.31758 2.73836 10.0023L2.7304 9.99177C3.31755 10.7906 4.07111 11.4555 4.94018 11.9415L4.97466 11.959L6.43665 12.7969L5.90895 14.0495C6.25014 13.8507 6.56157 13.6568 6.84325 13.4678L7.50618 13.006L8.30435 13.1547C8.99646 13.2859 9.79286 13.362 10.6078 13.3646H10.7024C12.2183 13.3646 13.667 13.0804 14.9973 12.5617L14.9178 12.5888C16.1315 12.1513 17.2222 11.4334 18.099 10.4947L18.1043 10.4895C18.8353 9.75822 19.287 8.75231 19.287 7.64143C19.287 6.53056 18.8353 5.52464 18.1043 4.79339C17.2409 3.86534 16.1682 3.15232 14.9735 2.71246L14.9178 2.69409C13.5687 2.17219 12.1323 1.9066 10.6838 1.91123H10.6043H10.6087L10.6096 1.91298ZM10.6096 0.00437353L10.7431 0.00349882C12.6161 0.00349882 14.4007 0.378748 16.0236 1.05839L15.9343 1.02516C17.432 1.61304 18.7566 2.56378 19.7864 3.7901L19.7987 3.80585C20.6791 4.83275 21.2148 6.1728 21.2148 7.63706C21.2148 9.10132 20.6791 10.4422 19.7917 11.477L19.7987 11.4683C18.7831 12.6853 17.4771 13.6328 15.9988 14.2253L15.9343 14.2481C14.3998 14.8945 12.6143 15.2706 10.7413 15.2706L10.6025 15.2697H10.6096C9.68862 15.2677 8.76972 15.183 7.86417 15.017L7.95786 15.0309C6.71779 15.9012 5.32803 16.5408 3.85651 16.9186L3.76812 16.9378C3.42428 17.0253 2.98497 17.1084 2.5386 17.1687L2.47319 17.1757H2.42811C2.31385 17.1744 2.20395 17.1321 2.11874 17.0568C2.02382 16.9783 1.96201 16.8675 1.94549 16.7462V16.7436C1.93535 16.7134 1.93028 16.6818 1.93046 16.65V16.6465V16.6448C1.93046 16.6115 1.93312 16.5783 1.93842 16.5459L1.93754 16.5494C1.94328 16.5178 1.95371 16.4871 1.96847 16.4585L1.96759 16.4602L2.00471 16.385L2.05775 16.3028L2.11785 16.2275L2.18857 16.1523L2.24867 16.0823C2.29935 16.0229 2.41485 15.8987 2.59517 15.7097C2.77548 15.5208 2.90601 15.3741 2.98674 15.2697C3.06747 15.1654 3.18032 15.0213 3.32528 14.8376C3.45963 14.6706 3.58426 14.4825 3.6921 14.2839L3.70182 14.2638C3.8073 14.065 3.91043 13.8463 4.01119 13.6078C2.85271 12.9648 1.85497 12.0725 1.09163 10.9968L1.07307 10.9688C0.377865 9.9931 0.00319373 8.82917 0 7.63531V7.63356C0.00424625 6.22785 0.507656 4.86834 1.42221 3.79273L1.41426 3.80235C2.42992 2.58535 3.73586 1.63781 5.2142 1.04527L5.27872 1.02253C6.81319 0.376124 8.5987 0 10.4717 0L10.614 0.000874706H10.6069L10.6096 0.00437353ZM22.9932 17.4329C23.0934 17.6714 23.1965 17.8901 23.3026 18.0889C23.4201 18.3076 23.5448 18.4957 23.6853 18.6706L23.6791 18.6627C23.8247 18.8464 23.9375 18.9905 24.0177 19.0948C24.0978 19.1992 24.2283 19.3459 24.4092 19.5348C24.5896 19.7214 24.705 19.8456 24.7557 19.9074C24.7657 19.9173 24.7858 19.9407 24.8158 19.9774C24.8459 20.0141 24.8695 20.0392 24.8865 20.0526C24.9077 20.0754 24.9272 20.0997 24.9449 20.1252L24.9467 20.127C24.9654 20.1522 24.9825 20.1785 24.9979 20.2057L24.9997 20.2092L25.0368 20.2844L25.0669 20.3737L25.0748 20.4699L25.0598 20.5661C25.0359 20.6944 24.967 20.8102 24.8653 20.8932L24.8644 20.8941C24.8186 20.9324 24.7656 20.9613 24.7084 20.9792C24.6512 20.9971 24.591 21.0035 24.5312 20.9982H24.533C22.539 20.7429 20.6416 19.9964 19.0147 18.8272L19.0492 18.8508C18.2528 19.0004 17.3362 19.087 16.3992 19.0896H16.3975C13.8619 19.1524 11.3662 18.4564 9.23688 17.0926L9.28638 17.1224C9.86917 17.162 10.3111 17.1819 10.6122 17.1819H10.6715C12.3111 17.1819 13.8924 16.9369 15.3801 16.4812L15.2669 16.511C16.7073 16.0898 18.0652 15.4306 19.2834 14.5612L19.2445 14.5875C20.411 13.7605 21.387 12.6983 22.1084 11.4709L22.134 11.4228C22.7994 10.2703 23.1475 8.96523 23.1435 7.63793C23.1435 6.82796 23.0171 6.04772 22.782 5.31559L22.797 5.36982C24.004 6.00467 25.049 6.90328 25.8527 7.99744L25.8703 8.0228C26.6075 9.01723 27.0034 10.2192 27 11.4525C27.002 12.658 26.6238 13.8341 25.9181 14.8166L25.9304 14.7983C25.1732 15.8699 24.1843 16.7612 23.0356 17.4075L22.9914 17.4303L22.9932 17.4329Z" fill="white"/>
</svg>
