<svg height="520" viewBox="0 0 390 390.782" width="520" xmlns="http://www.w3.org/2000/svg"><path fill="#9BA6B4" d="M271.77 42.957a8 8 0 00-8.301-7.715l-37.574 1.406a8.003 8.003 0 00-7.696 8.29l4.238 116.12a8.001 8.001 0 007.704 7.7l116.109 4.23h.3a7.997 7.997 0 007.99-7.699l1.417-37.57a8.008 8.008 0 00-2.133-5.75 8 8 0 00-5.578-2.547l-37.016-1.317 77.579-77.578a7.997 7.997 0 000-11.312L361.94 2.344a8.002 8.002 0 00-11.316 0l-77.57 77.57zM2.734 361.566l26.871 26.871c3.125 3.125 8.192 3.125 11.313 0l77.566-77.562 1.274 36.934a7.996 7.996 0 002.55 5.582 7.982 7.982 0 005.75 2.136l37.567-1.422a7.995 7.995 0 007.691-8.285l-4.254-116.125a7.995 7.995 0 00-7.699-7.699L45.25 217.762h-.3a7.997 7.997 0 00-7.99 7.699l-1.394 37.59a7.99 7.99 0 007.707 8.293l37.047 1.328-77.586 77.582c-3.125 3.125-3.125 8.191 0 11.312zm0 0"/></svg>