<svg xmlns="http://www.w3.org/2000/svg" width="16" height="16" viewBox="0 0 16 16" fill="none">
    <path d="M12.5833 4.27V4.77H13.0833H15.4167C15.447 4.77 15.4693 4.78133 15.4831 4.79454C15.4964 4.80738 15.5 4.81949 15.5 4.83V5.03H14.7531H14.2771L14.2537 5.50543L13.8035 14.6579L13.8035 14.6582C13.7881 14.9727 13.5128 15.25 13.138 15.25H4.86198C4.4891 15.25 4.21183 14.971 4.19654 14.6581L4.19653 14.6579L3.74627 5.50543L3.72288 5.03H3.24687H2.5V4.83C2.5 4.81949 2.50356 4.80738 2.51694 4.79454C2.5307 4.78133 2.55298 4.77 2.58333 4.77H4.91667H5.41667V4.27V2.87C5.41667 2.54743 5.69655 2.25 6.08333 2.25H11.9167C12.3034 2.25 12.5833 2.54743 12.5833 2.87V4.27ZM11.7708 4.77H12.2708V4.27V3.01V2.51H11.7708H6.22917H5.72917V3.01V4.27V4.77H6.22917H11.7708Z" stroke="#727272"/>
</svg>
