<svg width="58" height="17" viewBox="0 0 58 17" fill="none" xmlns="http://www.w3.org/2000/svg">
<path d="M19.1553 13.8365V3.88342H21.9648C22.8307 3.88342 23.5964 4.07483 24.2617 4.45764C24.9271 4.84045 25.4398 5.38505 25.7998 6.09143C26.1644 6.79781 26.349 7.60901 26.3535 8.52502V9.16077C26.3535 10.0996 26.1712 10.9222 25.8066 11.6285C25.4466 12.3349 24.9294 12.8772 24.2549 13.2555C23.585 13.6337 22.8034 13.8274 21.9102 13.8365H19.1553ZM20.4678 4.9635V12.7633H21.8486C22.8604 12.7633 23.6465 12.4489 24.207 11.8199C24.7721 11.191 25.0547 10.2955 25.0547 9.13342V8.55237C25.0547 7.42216 24.7881 6.54488 24.2549 5.92053C23.7262 5.29163 22.9743 4.97262 21.999 4.9635H20.4678ZM31.2139 13.9733C30.2113 13.9733 29.3955 13.6451 28.7666 12.9889C28.1377 12.3281 27.8232 11.4462 27.8232 10.3434V10.111C27.8232 9.37724 27.9622 8.72327 28.2402 8.14905C28.5228 7.57027 28.9147 7.1191 29.416 6.79553C29.9219 6.46741 30.4688 6.30334 31.0566 6.30334C32.0182 6.30334 32.7656 6.62008 33.2988 7.25354C33.832 7.887 34.0986 8.7939 34.0986 9.97424V10.5006H29.0879C29.1061 11.2298 29.318 11.8199 29.7236 12.2711C30.1338 12.7177 30.6533 12.941 31.2822 12.941C31.7288 12.941 32.1071 12.8499 32.417 12.6676C32.7269 12.4853 32.998 12.2438 33.2305 11.943L34.0029 12.5446C33.3831 13.497 32.4535 13.9733 31.2139 13.9733ZM31.0566 7.34241C30.5462 7.34241 30.1178 7.52926 29.7715 7.90295C29.4251 8.27209 29.2109 8.79163 29.1289 9.46155H32.834V9.36584C32.7975 8.72327 32.6243 8.22652 32.3145 7.87561C32.0046 7.52014 31.5853 7.34241 31.0566 7.34241ZM36.9424 13.8365H35.6777V3.33655H36.9424V13.8365ZM42.042 13.9733C41.0394 13.9733 40.2236 13.6451 39.5947 12.9889C38.9658 12.3281 38.6514 11.4462 38.6514 10.3434V10.111C38.6514 9.37724 38.7904 8.72327 39.0684 8.14905C39.3509 7.57027 39.7428 7.1191 40.2441 6.79553C40.75 6.46741 41.2969 6.30334 41.8848 6.30334C42.8464 6.30334 43.5938 6.62008 44.127 7.25354C44.6602 7.887 44.9268 8.7939 44.9268 9.97424V10.5006H39.916C39.9342 11.2298 40.1462 11.8199 40.5518 12.2711C40.9619 12.7177 41.4814 12.941 42.1104 12.941C42.557 12.941 42.9352 12.8499 43.2451 12.6676C43.555 12.4853 43.8262 12.2438 44.0586 11.943L44.8311 12.5446C44.2113 13.497 43.2816 13.9733 42.042 13.9733ZM41.8848 7.34241C41.3743 7.34241 40.946 7.52926 40.5996 7.90295C40.2533 8.27209 40.0391 8.79163 39.957 9.46155H43.6621V9.36584C43.6257 8.72327 43.4525 8.22652 43.1426 7.87561C42.8327 7.52014 42.4134 7.34241 41.8848 7.34241ZM48.1123 4.64905V6.44006H49.4932V7.4176H48.1123V12.0045C48.1123 12.3007 48.1738 12.524 48.2969 12.6744C48.4199 12.8203 48.6296 12.8932 48.9258 12.8932C49.0716 12.8932 49.2721 12.8658 49.5273 12.8112V13.8365C49.1947 13.9277 48.8711 13.9733 48.5566 13.9733C47.9915 13.9733 47.5654 13.8024 47.2783 13.4606C46.9912 13.1188 46.8477 12.6334 46.8477 12.0045V7.4176H45.501V6.44006H46.8477V4.64905H48.1123ZM54.0459 13.9733C53.0433 13.9733 52.2275 13.6451 51.5986 12.9889C50.9697 12.3281 50.6553 11.4462 50.6553 10.3434V10.111C50.6553 9.37724 50.7943 8.72327 51.0723 8.14905C51.3548 7.57027 51.7467 7.1191 52.248 6.79553C52.7539 6.46741 53.3008 6.30334 53.8887 6.30334C54.8503 6.30334 55.5977 6.62008 56.1309 7.25354C56.6641 7.887 56.9307 8.7939 56.9307 9.97424V10.5006H51.9199C51.9382 11.2298 52.1501 11.8199 52.5557 12.2711C52.9658 12.7177 53.4854 12.941 54.1143 12.941C54.5609 12.941 54.9391 12.8499 55.249 12.6676C55.5589 12.4853 55.8301 12.2438 56.0625 11.943L56.835 12.5446C56.2152 13.497 55.2855 13.9733 54.0459 13.9733ZM53.8887 7.34241C53.3783 7.34241 52.9499 7.52926 52.6035 7.90295C52.2572 8.27209 52.043 8.79163 51.9609 9.46155H55.666V9.36584C55.6296 8.72327 55.4564 8.22652 55.1465 7.87561C54.8366 7.52014 54.4173 7.34241 53.8887 7.34241Z" fill="#727272"/>
<path d="M11.8125 5.33655H10.0625V4.2428C10.0625 3.76018 9.67012 3.3678 9.1875 3.3678H4.8125C4.32988 3.3678 3.9375 3.76018 3.9375 4.2428V5.33655H2.1875C1.94551 5.33655 1.75 5.53206 1.75 5.77405V6.21155C1.75 6.2717 1.79922 6.32092 1.85938 6.32092H2.68516L3.02285 13.4713C3.04473 13.9375 3.43027 14.3053 3.89648 14.3053H10.1035C10.5711 14.3053 10.9553 13.9389 10.9771 13.4713L11.3148 6.32092H12.1406C12.2008 6.32092 12.25 6.2717 12.25 6.21155V5.77405C12.25 5.53206 12.0545 5.33655 11.8125 5.33655ZM9.07812 5.33655H4.92188V4.35217H9.07812V5.33655Z" fill="#727272"/>
</svg>
