<svg width="21" height="21" viewBox="0 0 21 21" fill="none" xmlns="http://www.w3.org/2000/svg">
<path fill-rule="evenodd" clip-rule="evenodd" d="M2.58425 1.03773C1.83855 1.18545 1.1207 1.59117 0.685911 2.11067C0.394519 2.45887 0.227768 2.76454 0.0939283 3.19582C0.00500821 3.48232 0 3.81665 0 9.44411V15.3897L0.11529 15.7543C0.404178 16.6679 1.14825 17.3924 2.14635 17.7318C2.50136 17.8526 2.65687 17.8739 3.32761 17.894L4.10004 17.9171L4.12906 18.305C4.20378 19.3052 4.82729 20.1823 5.81282 20.6736C6.50737 21.0198 6.30965 21.0099 12.2137 20.9939L17.5285 20.9795L17.9107 20.8332C18.9972 20.4173 19.7232 19.621 19.9345 18.6134C19.9984 18.3084 20.0074 17.3912 19.9955 12.4016L19.9815 6.54755L19.8651 6.20677C19.7192 5.77915 19.3143 5.17163 19.0101 4.92375C18.304 4.3484 17.7 4.13883 16.6276 4.09706L15.8799 4.06799L15.8554 3.68163C15.7833 2.54389 14.986 1.58757 13.7463 1.15201L13.338 1.00851L8.07436 1.00068C5.17934 0.996362 2.70879 1.01303 2.58425 1.03773ZM13.2664 2.02068C14.1343 2.28259 14.7384 2.95896 14.8248 3.76532L14.8588 4.08293L11.0577 4.0845C8.96719 4.08537 7.09179 4.10737 6.89024 4.13339C5.54305 4.30749 4.4178 5.27032 4.16989 6.46111C4.13136 6.64608 4.11383 8.32863 4.11383 11.835V16.9396H3.50989C2.44617 16.9396 1.77483 16.624 1.32087 15.9106C1.0418 15.4719 1.04762 15.6097 1.04762 9.44411C1.04762 3.11985 1.03244 3.41245 1.38823 2.87943C1.65535 2.47925 2.05543 2.20423 2.65738 2.00691C2.75402 1.9752 4.69953 1.95538 7.92105 1.95319C12.1556 1.9503 13.0717 1.96188 13.2664 2.02068ZM17.2941 5.12676C18.0649 5.30746 18.6512 5.8353 18.8549 6.532C18.9267 6.77765 18.9341 7.45341 18.9219 12.6742L18.9083 18.5403L18.7713 18.8309C18.494 19.4193 17.9285 19.8529 17.228 20.0145C16.9301 20.0832 16.2545 20.0913 11.8929 20.0789C6.93316 20.0646 6.89693 20.0638 6.60058 19.9557C5.98019 19.7293 5.51243 19.289 5.27092 18.7039C5.16161 18.4391 5.16146 18.4308 5.14643 12.7726C5.1358 8.77043 5.14817 7.00963 5.18844 6.77648C5.32759 5.97118 5.87614 5.39634 6.74567 5.14449C7.02786 5.06278 7.44727 5.05546 12.0093 5.05282C16.2611 5.05038 17.013 5.0609 17.2941 5.12676ZM6.79677 8.10534C6.54728 8.24102 6.48652 8.55161 6.671 8.74848L6.7752 8.85972H11.1592H15.5432L15.6543 8.74213C15.857 8.52758 15.7749 8.20733 15.4896 8.09945C15.2897 8.02383 6.93618 8.02947 6.79677 8.10534ZM8.52483 10.9436C8.29303 11.0365 8.23564 11.3509 8.41026 11.5716L8.51615 11.7055H12.6286H16.7411L16.8665 11.5807C17.0707 11.3777 17.0191 11.0927 16.7526 10.9515C16.6172 10.8798 8.70308 10.8722 8.52483 10.9436ZM6.6779 13.8557C6.51585 14.0273 6.5271 14.3095 6.70146 14.4459C6.83494 14.5503 6.86877 14.5512 10.6643 14.5512H14.4925L14.6179 14.4265C14.697 14.3478 14.7434 14.2437 14.7434 14.1447C14.7434 14.0457 14.697 13.9415 14.6179 13.8629L14.4925 13.7381H10.6408H6.78905L6.6779 13.8557ZM9.38639 16.7015C9.23405 16.8628 9.24034 17.1127 9.40075 17.2722L9.52616 17.397H13.0835C15.6901 17.397 16.6707 17.3812 16.7526 17.3379C17.0087 17.2022 17.0644 16.9433 16.886 16.7178L16.7801 16.5839H13.1388H9.49754L9.38639 16.7015Z" fill="#7166F8" stroke="#7166F8" stroke-width="0.5"/>
</svg>
