<svg xmlns="http://www.w3.org/2000/svg" width="14" height="14" viewBox="0 0 14 14" fill="none">
    <path d="M9.9233 1.49655L10.3852 1.03437C10.3852 1.03434 10.3852 1.0343 10.3853 1.03427C10.3853 1.03426 10.3853 1.03425 10.3853 1.03425C10.7274 0.692175 11.1915 0.5 11.6753 0.5C12.1592 0.5 12.6233 0.692222 12.9654 1.03437C13.3076 1.37653 13.4998 1.84058 13.4998 2.32445C13.4998 2.80826 13.3076 3.27226 12.9656 3.6144C12.9655 3.61445 12.9655 3.61449 12.9654 3.61453L12.5032 4.0764L9.9233 1.49655Z" stroke="#727272"/>
    <path d="M3.26376 12.8316L3.26366 12.8316L0.600992 13.4975L0.600827 13.4976C0.587229 13.501 0.572982 13.5008 0.559477 13.4971C0.54597 13.4933 0.533662 13.4862 0.523753 13.4762C0.513844 13.4663 0.506674 13.454 0.502938 13.4405C0.499201 13.427 0.499026 13.4128 0.50243 13.3992L0.502471 13.399L1.16843 10.7364L1.16845 10.7364C1.27416 10.3134 1.49283 9.92709 1.8011 9.61878C1.80111 9.61878 1.80111 9.61877 1.80112 9.61877L8.39482 3.02471L10.975 5.60438L4.38139 12.1989C4.38137 12.1989 4.38135 12.199 4.38133 12.199C4.07302 12.5072 3.68673 12.7259 3.26376 12.8316Z" stroke="#727272"/>
</svg>
