<svg width="25" height="27" viewBox="0 0 25 27" fill="none" xmlns="http://www.w3.org/2000/svg">
<path d="M7.8125 13.3516C7.8125 12.4541 7.11294 11.7266 6.25 11.7266C5.38705 11.7266 4.6875 12.4541 4.6875 13.3516C4.6875 14.249 5.38706 14.9766 6.25 14.9766C7.11295 14.9766 7.8125 14.249 7.8125 13.3516Z" fill="#9F9F9F"/>
<path d="M14.0625 13.3516C14.0625 12.4541 13.3629 11.7266 12.5 11.7266C11.6371 11.7266 10.9375 12.4541 10.9375 13.3516C10.9375 14.249 11.6371 14.9766 12.5 14.9766C13.3629 14.9766 14.0625 14.249 14.0625 13.3516Z" fill="#9F9F9F"/>
<path d="M20.3125 13.3516C20.3125 12.4541 19.6129 11.7266 18.75 11.7266C17.8871 11.7266 17.1875 12.4541 17.1875 13.3516C17.1875 14.249 17.8871 14.9766 18.75 14.9766C19.6129 14.9766 20.3125 14.249 20.3125 13.3516Z" fill="#9F9F9F"/>
</svg>
