<svg xmlns="http://www.w3.org/2000/svg" width="12" height="12" viewBox="0 0 12 12" fill="none">
    <path d="M4.93726 6.83596L1.77098 7.23526C1.66053 7.24885 1.61534 7.38478 1.69232 7.46464L2.60773 8.39406L0.0388923 11.0022C0.0139767 11.0278 0 11.0623 0 11.0982C0 11.1342 0.0139767 11.1687 0.0388923 11.1942L0.793647 11.9605C0.845526 12.0132 0.930874 12.0132 0.982753 11.9605L3.55327 9.35067L4.46868 10.2801C4.48634 10.298 4.50862 10.3105 4.53296 10.3162C4.5573 10.3218 4.58272 10.3204 4.6063 10.3121C4.62988 10.3037 4.65068 10.2888 4.66629 10.269C4.68191 10.2493 4.69172 10.2254 4.6946 10.2002L5.0862 6.98718C5.08897 6.96666 5.08703 6.94577 5.08053 6.92614C5.07402 6.90651 5.06313 6.88868 5.04871 6.87403C5.03428 6.85939 5.01672 6.84833 4.99738 6.84172C4.97805 6.83512 4.95747 6.83315 4.93726 6.83596Z" fill="#727272"/>
    <path d="M11.1101 0C11.1455 0 11.1795 0.0141902 11.2046 0.0394871L11.9611 0.804093C12.0129 0.856766 12.0129 0.943422 11.9611 0.996095L9.39054 3.60595L10.306 4.53538C10.3829 4.61523 10.3377 4.75116 10.2273 4.76476L7.06101 5.16405C6.97399 5.17425 6.90203 5.10118 6.91207 5.01283L7.30535 1.79978C7.30823 1.7746 7.31804 1.75075 7.33366 1.73097C7.34927 1.71118 7.37006 1.69627 7.39365 1.68793C7.41723 1.6796 7.44265 1.67818 7.46699 1.68384C7.49133 1.68949 7.51361 1.702 7.53127 1.71992L8.44668 2.64935L11.0155 0.0394871C11.0407 0.0141902 11.0747 0 11.1101 0Z" fill="#727272"/>
</svg>
