<svg width="28" height="26" viewBox="0 0 18 16" fill="none" xmlns="http://www.w3.org/2000/svg">
<path d="M13.0667 3.14576L12.743 2.98039C11.6432 2.41864 10.3989 2.13276 8.9995 2.13276C7.2143 2.13276 5.67783 2.59591 4.36968 3.50906C3.0574 4.4251 1.94561 5.81466 1.04928 7.71151L13.0667 3.14576ZM13.0667 3.14576L13.3239 2.88874M13.0667 3.14576L13.3239 2.88874M13.3239 2.88874L15.2169 0.996599L15.5638 1.34395L2.14062 14.7666L1.79307 14.419L3.61668 12.5959L3.98897 12.2238M13.3239 2.88874L3.98897 12.2238M3.98897 12.2238L3.59812 11.8711M3.98897 12.2238L3.59812 11.8711M3.59812 11.8711C2.61771 10.9865 1.76525 9.79818 1.04907 8.28991C1.00647 8.19953 0.984375 8.10085 0.984375 8.00093C0.984375 7.90088 1.00652 7.80208 1.04923 7.71161L3.59812 11.8711ZM10.5232 5.68939L9.9429 6.26972L7.19114 9.02147L6.61095 9.60167L6.36129 8.82005C6.27656 8.55477 6.23358 8.27794 6.23388 7.99945L10.5232 5.68939ZM10.5232 5.68939L9.74139 5.43984M10.5232 5.68939L9.74139 5.43984M9.74139 5.43984C9.33837 5.3112 8.91069 5.27944 8.49309 5.34714C8.0755 5.41484 7.67976 5.5801 7.33803 5.82948C6.99629 6.07886 6.71821 6.40533 6.52636 6.78238C6.33451 7.15941 6.23431 7.57637 6.23388 7.9994L9.74139 5.43984ZM16.5336 7.78222C15.9927 6.66408 15.372 5.72022 14.6611 4.95366L14.9476 4.66718C15.7014 5.47773 16.3704 6.48911 16.9498 7.70974C16.9925 7.80019 17.0147 7.89896 17.0147 7.99898C17.0147 8.09904 16.9925 8.19787 16.9497 8.28835C16.0534 10.1852 14.9416 11.5748 13.6293 12.4908C12.3212 13.404 10.7847 13.8671 8.9995 13.8671C7.98455 13.8671 7.05135 13.7167 6.19586 13.4199L6.51843 13.0973C7.29051 13.3411 8.11865 13.4609 8.9995 13.4609C10.6654 13.4609 12.133 13.0369 13.4005 12.1516C14.663 11.2698 15.6951 9.95308 16.5337 8.21747L16.6389 7.99982L16.5336 7.78222ZM15.8069 1.58729C15.8068 1.58716 15.8066 1.58703 15.8065 1.58689L15.8069 1.58729ZM15.8069 1.10089L15.8067 1.10108C15.8068 1.10102 15.8068 1.10096 15.8069 1.10089ZM1.46542 7.78222L1.36009 7.99996L1.46542 8.2177C2.15082 9.63447 2.96471 10.7717 3.92782 11.6217L4.28004 11.9326L4.61224 11.6004L6.24153 9.97108L6.50354 9.70907L6.32912 9.38216C6.03263 8.82649 5.9226 8.19023 6.01525 7.56726C6.10789 6.94429 6.39831 6.36759 6.84367 5.92224C7.28902 5.47689 7.86572 5.18647 8.48869 5.09382C9.11166 5.00117 9.74791 5.11121 10.3036 5.40769L10.6305 5.58212L10.8925 5.32011L12.2656 3.94706L12.7904 3.42218L12.1068 3.13301C11.1589 2.73209 10.123 2.53901 8.9995 2.53901C7.33447 2.53901 5.86746 2.96306 4.59993 3.84833C3.33753 4.73002 2.30496 6.04669 1.46542 7.78222Z" fill="#C0C0C0" stroke="#C0C0C0"/>
</svg>
