<svg xmlns="http://www.w3.org/2000/svg" xmlns:xlink="http://www.w3.org/1999/xlink" version="1.1" x="0px" y="0px" viewBox="0 0 100 125" enable-background="new 0 0 100 100" xml:space="preserve"><g><path d="M85.501,40.137L65.919,20.553c-0.592-0.592-1.623-0.592-2.215,0l-7.03,7.031c-0.607,0.608-0.607,1.601,0,2.213l1.538,1.537   c-5.005,4.036-11.408,8.008-14.316,8.008c-0.465,0-0.807-0.105-1.016-0.314c-0.375-0.375-0.994-0.547-1.505-0.428   c-1.106,0.258-1.563,0.364-8.565,20.19c-3.32,9.403-6.551,18.923-6.578,19.003c-0.189,0.561-0.042,1.192,0.421,1.653   c0.296,0.296,0.688,0.459,1.105,0.459c0.171,0,0.341-0.028,0.59-0.112c2.343-0.796,10.63-3.621,18.916-6.548   c19.824-7.001,19.932-7.458,20.19-8.563c0.125-0.53-0.043-1.121-0.428-1.506c-1.568-1.567,2.666-9.096,7.695-15.334l1.535,1.537   c0.592,0.592,1.624,0.592,2.214,0l7.03-7.029C86.11,41.738,86.11,40.746,85.501,40.137z M63.834,63.73   c-4.162,1.852-18.287,6.854-30.218,10.955l15.212-15.242c0.771,0.408,1.631,0.623,2.513,0.623c1.429,0,2.771-0.556,3.78-1.563   c2.085-2.086,2.085-5.481,0-7.569c-1.01-1.01-2.354-1.565-3.785-1.565c-1.432,0-2.776,0.556-3.785,1.565   c-1.657,1.656-2.025,4.243-0.939,6.292l-15.243,15.21c4.108-11.945,9.115-26.077,10.956-30.216   c0.462,0.138,0.972,0.208,1.522,0.208c5.042,0,12.903-5.876,16.405-8.714l12.089,12.089C69.032,49.88,62.395,58.868,63.834,63.73z"/><path d="M23.047,73.25l-0.253-0.198c-0.96-0.763-2.473-0.591-3.239,0.366c-0.791,0.994-0.627,2.447,0.369,3.241l0.318,0.25   c0.407,0.309,0.891,0.472,1.397,0.472c0.725,0,1.393-0.329,1.833-0.903C24.243,75.468,24.051,74.019,23.047,73.25z"/><path d="M17.643,57.215c0.393,0.282,0.855,0.431,1.339,0.431c0.742,0,1.443-0.36,1.875-0.964c0.138-0.191,0.274-0.385,0.409-0.578   c0.725-1.044,0.466-2.482-0.578-3.208c-1.009-0.699-2.506-0.428-3.207,0.578L17.108,54c-0.358,0.501-0.5,1.111-0.399,1.719   C16.811,56.325,17.142,56.857,17.643,57.215z"/><path d="M16.068,64.495c0.095,0.013,0.188,0.018,0.279,0.018c1.17,0,2.153-0.876,2.288-2.038c0.021-0.186,0.046-0.372,0.078-0.561   c0.207-1.253-0.645-2.441-1.9-2.65c-1.283-0.2-2.441,0.661-2.648,1.902c-0.041,0.257-0.078,0.517-0.108,0.775   C13.91,63.203,14.817,64.35,16.068,64.495z"/><path d="M21.815,34.974c0.079,0.171,0.153,0.342,0.222,0.516c0.354,0.879,1.193,1.446,2.141,1.446c0.291,0,0.579-0.056,0.857-0.167   c1.178-0.473,1.752-1.817,1.28-2.999c-0.098-0.241-0.202-0.482-0.313-0.725c-0.516-1.119-1.934-1.646-3.057-1.129   C21.791,32.447,21.284,33.818,21.815,34.974z"/><path d="M24.09,46.285c-1.128-0.52-2.545,0.009-3.059,1.125c-0.089,0.19-0.178,0.383-0.272,0.575   c-0.553,1.144-0.073,2.524,1.071,3.079c0.317,0.153,0.654,0.23,1.002,0.23c0.878,0,1.693-0.51,2.076-1.301l0.307-0.649   C25.747,48.19,25.243,46.818,24.09,46.285z"/><path d="M22.833,41.06c-0.017,0.192-0.037,0.386-0.062,0.581c-0.076,0.61,0.089,1.215,0.467,1.701   c0.377,0.486,0.922,0.797,1.531,0.873c0.098,0.013,0.196,0.018,0.29,0.018c1.157,0,2.14-0.867,2.285-2.017   c0.032-0.255,0.061-0.511,0.081-0.765c0.107-1.266-0.835-2.383-2.104-2.491C24.056,38.863,22.938,39.82,22.833,41.06z"/><path d="M19.475,68.609c-0.071-0.173-0.14-0.347-0.203-0.524c-0.418-1.162-1.77-1.812-2.949-1.392   c-1.195,0.432-1.818,1.754-1.389,2.949c0.089,0.248,0.185,0.494,0.285,0.737c0.359,0.862,1.195,1.419,2.129,1.419   c0.305,0,0.604-0.06,0.886-0.178c0.568-0.237,1.01-0.682,1.244-1.251S19.71,69.175,19.475,68.609z"/><path d="M18.332,30.258c0.43,0.409,0.994,0.635,1.588,0.635c0.628,0,1.236-0.261,1.67-0.716c0.875-0.921,0.839-2.383-0.084-3.261   l-0.287-0.271c-0.901-0.826-2.431-0.766-3.256,0.133c-0.418,0.452-0.635,1.041-0.609,1.656s0.288,1.184,0.738,1.599L18.332,30.258z   "/></g></svg>