<svg xmlns="http://www.w3.org/2000/svg" viewBox="0 0 512.001 512.001"><path d="M480.001 192v266.667a51.622 51.622 0 01-8.96 29.44 49.355 49.355 0 01-6.613 8.32L252.801 284.8l-7.467-7.467 145.707-145.707 9.173 5.76 74.667 45.44a10.817 10.817 0 015.12 9.174z" fill="#cfd8dc"/><path d="M391.041 131.627L237.868 284.8 26.241 496.427a49.304 49.304 0 01-6.613-8.32 51.622 51.622 0 01-8.96-29.44V117.333C10.668 87.878 34.546 64 64.001 64h213.333a12.66 12.66 0 015.547 1.493l98.987 60.373 9.173 5.761z" fill="#4caf50"/><path d="M464.428 496.427a49.036 49.036 0 01-8.32 6.613 51.607 51.607 0 01-29.44 8.96H64.001a51.607 51.607 0 01-29.44-8.96 49.086 49.086 0 01-8.32-6.613L237.868 284.8l7.467-7.467 7.467 7.467 211.626 211.627z" fill="#2196f3"/><path d="M471.041 488.107a46.81 46.81 0 01-14.933 14.933L237.868 284.8c-4.082-4.165-4.014-10.851.151-14.933 4.106-4.024 10.676-4.024 14.782 0l218.24 218.24z" fill="#fafafa"/><path d="M400.215 137.387L252.801 284.8 34.561 503.04a46.81 46.81 0 01-14.933-14.933l362.24-362.24 18.347 11.52z" fill="#ffc107"/><g fill="#fafafa"><path d="M106.668 192c-23.564 0-42.667-19.103-42.667-42.667s19.103-42.667 42.667-42.667 42.667 19.103 42.667 42.667S130.232 192 106.668 192zm0-64c-11.782 0-21.333 9.551-21.333 21.333s9.551 21.333 21.333 21.333 21.333-9.551 21.333-21.333S118.45 128 106.668 128z"/><path d="M149.335 128h-42.667c-5.891 0-10.667-4.776-10.667-10.667s4.776-10.667 10.667-10.667h42.667c5.891 0 10.667 4.776 10.667 10.667S155.226 128 149.335 128zm-42.667 149.333c-26.342 3.08-50.193-15.778-53.273-42.12-.021-.182-.042-.364-.061-.546 0-19.947 18.944-33.408 56.363-40.149a30.035 30.035 0 01-3.029-13.184c0-5.891 4.776-10.667 10.667-10.667s10.667 4.776 10.667 10.667c0 4.843 4.416 9.429 11.669 16.448a51.2 51.2 0 0120.331 36.885c-.001 37.504-25.601 42.666-53.334 42.666zm18.773-63.616c-37.376 4.715-50.773 14.144-50.773 20.949 0 4.267 5.696 21.333 32 21.333 30.571 0 32-7.317 32-21.333 0-7.466-4.971-12.949-13.227-20.949z"/></g><path d="M384.001 0C319.234.082 266.75 52.566 266.668 117.333c.035 6.445.671 12.873 1.899 19.2a114.426 114.426 0 0018.069 46.208c4.949 8.533 10.667 17.408 16.704 26.88a436.136 436.136 0 0170.208 165.845c1.172 5.773 6.803 9.503 12.576 8.331a10.667 10.667 0 008.331-8.331 436.136 436.136 0 0170.187-165.867c6.08-9.451 11.755-18.261 16.277-26.176a115.65 115.65 0 0018.475-46.699 105.12 105.12 0 001.941-19.392C501.252 52.566 448.769.082 384.001 0z" fill="#f44336"/><circle cx="384.001" cy="117.333" r="53.333" fill="#c62828"/></svg>