<svg width="19" height="19" viewBox="0 0 19 19" fill="none" xmlns="http://www.w3.org/2000/svg">
<g clip-path="url(#clip0)">
<path d="M9.78365 12.1993C11.0152 12.1993 12.0136 11.1903 12.0136 9.94561C12.0136 8.70092 11.0152 7.69189 9.78365 7.69189C8.55209 7.69189 7.55371 8.70092 7.55371 9.94561C7.55371 11.1903 8.55209 12.1993 9.78365 12.1993Z" fill="#7166F8"/>
<path d="M9.78391 14.1078L9.78468 14.1078C10.8793 14.1061 11.9276 13.6658 12.7 12.8852C13.4722 12.1047 13.9059 11.0478 13.9076 9.94629V9.94553C13.9076 9.12348 13.6664 8.31946 13.214 7.63512L12.7969 7.91087L13.214 7.63512C12.7615 6.95072 12.1178 6.41648 11.3637 6.10079C10.6095 5.78508 9.77938 5.70239 8.97842 5.86341C8.1775 6.02443 7.44253 6.42172 6.86618 7.00422C6.28988 7.58666 5.89801 8.3281 5.7393 9.13449C5.58059 9.94086 5.662 10.7767 5.97344 11.5366C6.2849 12.2966 6.81269 12.947 7.49089 13.405C8.16915 13.863 8.96714 14.1078 9.78391 14.1078ZM14.5461 5.89552C15.9446 6.90405 17.0213 8.30461 17.6429 9.92509C17.647 9.93835 17.647 9.9527 17.6429 9.96596C17.0213 11.5864 15.9446 12.987 14.5461 13.9955C13.1506 15.0018 11.4955 15.5741 9.78391 15.6429C8.07235 15.5741 6.41724 15.0018 5.02176 13.9955C3.62323 12.987 2.5465 11.5865 1.92497 9.96598C1.92084 9.95271 1.92084 9.93834 1.92497 9.92508C2.5465 8.3046 3.62323 6.90405 5.02176 5.89552C6.41724 4.88921 8.07235 4.31697 9.78391 4.24818C11.4955 4.31697 13.1506 4.88921 14.5461 5.89552Z" fill="#7166F8" stroke="#7166F8"/>
</g>
<defs>
<clipPath id="clip0">
<rect width="17.8395" height="18.0297" fill="white" transform="translate(0.864258 0.930664)"/>
</clipPath>
</defs>
</svg>
