<svg width="32" height="32" viewBox="0 0 32 32" fill="none" xmlns="http://www.w3.org/2000/svg">
<path d="M15.9992 8C14.6086 8.00176 13.2755 8.55496 12.2922 9.53827C11.3089 10.5216 10.7557 11.8547 10.7539 13.2453H13.4206C13.4206 11.8227 14.5779 10.6667 15.9992 10.6667C17.4206 10.6667 18.5779 11.8227 18.5779 13.2453C18.5779 14.0427 17.9366 14.6213 16.9566 15.4133C16.6364 15.6641 16.3289 15.9307 16.0352 16.212C14.7046 17.5413 14.6659 18.9533 14.6659 19.1107V20H17.3326L17.3312 19.156C17.3326 19.1347 17.3752 18.6413 17.9192 18.0987C18.1192 17.8987 18.3712 17.6987 18.6326 17.488C19.6712 16.6467 21.2432 15.376 21.2432 13.2453C21.2422 11.8547 20.6894 10.5214 19.7062 9.53796C18.723 8.55454 17.3898 8.00141 15.9992 8ZM14.6659 21.3333H17.3326V24H14.6659V21.3333Z" fill="#7166F8"/>
<path d="M15.9993 2.66699C8.64735 2.66699 2.66602 8.64833 2.66602 16.0003C2.66602 23.3523 8.64735 29.3337 15.9993 29.3337C23.3513 29.3337 29.3327 23.3523 29.3327 16.0003C29.3327 8.64833 23.3513 2.66699 15.9993 2.66699ZM15.9993 26.667C10.118 26.667 5.33268 21.8817 5.33268 16.0003C5.33268 10.119 10.118 5.33366 15.9993 5.33366C21.8807 5.33366 26.666 10.119 26.666 16.0003C26.666 21.8817 21.8807 26.667 15.9993 26.667Z" fill="#7166F8"/>
</svg>
