<svg width="20" height="20" viewBox="0 0 17 18" fill="none" xmlns="http://www.w3.org/2000/svg">
<path d="M15.3076 5.55249V12.8264L8.55762 16.6269L1.80762 12.8264V5.55249L8.55762 1.75193L15.3076 5.55249ZM9.12012 0.831801C8.9491 0.738547 8.7551 0.689453 8.55762 0.689453C8.36014 0.689453 8.16614 0.738547 7.99512 0.831801L1.24512 4.63236C1.0741 4.72562 0.932085 4.85974 0.833346 5.02125C0.734607 5.18277 0.682622 5.36599 0.682617 5.55249V12.8264C0.682622 13.0129 0.734607 13.1961 0.833346 13.3576C0.932085 13.5191 1.0741 13.6532 1.24512 13.7465L7.99512 17.5471C8.16614 17.6403 8.36014 17.6894 8.55762 17.6894C8.7551 17.6894 8.9491 17.6403 9.12012 17.5471L15.8701 13.7465C16.0411 13.6532 16.1831 13.5191 16.2819 13.3576C16.3806 13.1961 16.4326 13.0129 16.4326 12.8264V5.55249C16.4326 5.36599 16.3806 5.18277 16.2819 5.02125C16.1831 4.85974 16.0411 4.72562 15.8701 4.63236L9.12012 0.831801Z" fill="#777777"/>
</svg>
