<svg xmlns="http://www.w3.org/2000/svg" viewBox="0 0 15 10.89"><path d="M15 5.42a6.79 6.79 0 01-1.19 1.8 7.53 7.53 0 01-1.72 1.41 8.47 8.47 0 01-2.09.93 9.22 9.22 0 01-2.45.33 8.22 8.22 0 01-1-.06l1.55-2.1a2.36 2.36 0 001.18-.66 3 3 0 00.28-.33 2.31 2.31 0 00.39-1.52l2.21-3a7.55 7.55 0 011.69 1.39A6.79 6.79 0 0115 5.42zM11.37.2l-.09-.06A1 1 0 0010 .41l-.55.75a9.19 9.19 0 00-4.36.12 8.47 8.47 0 00-2.14.93 7.8 7.8 0 00-1.76 1.41A6.79 6.79 0 000 5.42a6.79 6.79 0 001.19 1.8 7.8 7.8 0 001.73 1.41 6.94 6.94 0 00.71.37l-.21.29a1 1 0 00.21 1.39 1 1 0 00.6.2 1 1 0 00.5-.14.86.86 0 00.3-.27l.58-.79L7 7.76l2.58-3.5 1.82-2.42.18-.24a1 1 0 00-.21-1.4zM5.42 6.59c0-.08-.09-.17-.13-.25a2.38 2.38 0 010-1.85 3.11 3.11 0 01.22-.4 3.27 3.27 0 01.3-.35A2.42 2.42 0 017.51 3a2.42 2.42 0 01.47 0z" fill="#0d0905"/></svg>