<svg xmlns="http://www.w3.org/2000/svg" width="14" height="14" viewBox="0 0 20 20" fill="none">
    <path d="M10.5813 2.14623C10.3885 2.132 10.1953 2.12487 10.002 2.12486V1C10.223 1.00011 10.444 1.00836 10.6645 1.02475L10.5813 2.14623ZM12.8355 2.65242C12.4749 2.51328 12.1046 2.40086 11.7275 2.31609L11.9738 1.21822C12.4047 1.31496 12.8287 1.44319 13.2404 1.60292L12.8355 2.65242ZM14.3765 3.45107C14.2157 3.34381 14.051 3.24251 13.8827 3.14736L14.4373 2.16873C14.8219 2.38665 15.1899 2.63253 15.5385 2.90439L14.8467 3.7919C14.6942 3.67293 14.5374 3.55961 14.3765 3.45219V3.45107ZM16.4395 5.46457C16.217 5.14845 15.9715 4.84918 15.705 4.56918L16.5194 3.79303C16.8231 4.11361 17.1043 4.45669 17.3597 4.81665L16.4395 5.46457ZM17.2764 6.98538C17.2026 6.80704 17.1223 6.63145 17.0357 6.45894L18.0402 5.95276C18.2388 6.34768 18.408 6.75674 18.5464 7.1766L17.4778 7.52868C17.4173 7.34518 17.3502 7.16396 17.2764 6.98538ZM17.8726 9.8054C17.8635 9.41883 17.8259 9.03346 17.7601 8.65242L18.8681 8.46119C18.9435 8.89539 18.9873 9.33633 18.9986 9.77728L17.8737 9.8054H17.8726ZM17.7252 11.5354C17.7624 11.3442 17.7927 11.1541 17.8164 10.9618L18.9333 11.1001C18.8793 11.539 18.7928 11.9732 18.6746 12.3993L17.5903 12.099C17.642 11.9134 17.687 11.7255 17.7252 11.5354ZM16.6544 14.2115C16.8613 13.8853 17.0436 13.5433 17.2011 13.1901L18.2292 13.6457C18.0492 14.0506 17.8411 14.4398 17.6049 14.8133L16.6544 14.2115ZM15.57 15.5669C15.7072 15.4297 15.8388 15.288 15.9637 15.1417L16.8164 15.8763C16.672 16.0437 16.5215 16.2058 16.3653 16.3622L15.57 15.5669Z" fill="#727272" stroke="#727272" stroke-width="0.6"/>
    <path d="M10.0024 2.12486C8.70754 2.12495 7.4327 2.44437 6.29078 3.05482C5.14886 3.66528 4.17511 4.54792 3.45577 5.62458C2.73644 6.70123 2.29372 7.93867 2.16684 9.22729C2.03995 10.5159 2.23282 11.8159 2.72835 13.0122C3.22388 14.2085 4.00678 15.2641 5.00771 16.0855C6.00863 16.907 7.19669 17.4689 8.46666 17.7216C9.73662 17.9742 11.0493 17.9097 12.2884 17.5339C13.5275 17.1581 14.6548 16.4825 15.5704 15.5669L16.3657 16.3622C15.3193 17.4092 14.0308 18.1819 12.6144 18.6119C11.1979 19.0419 9.69729 19.1159 8.24543 18.8273C6.79357 18.5387 5.4353 17.8965 4.29097 16.9575C3.14664 16.0185 2.25158 14.8118 1.6851 13.4442C1.11862 12.0766 0.898212 10.5904 1.04339 9.11729C1.18858 7.64416 1.69487 6.22958 2.51743 4.9989C3.33998 3.76821 4.45338 2.7594 5.759 2.06187C7.06461 1.36434 8.52212 0.999608 10.0024 1V2.12486Z" fill="#727272" stroke="#727272" stroke-width="0.6"/>
    <path d="M9.43938 4.37451C9.58855 4.37451 9.7316 4.43377 9.83708 4.53924C9.94256 4.64472 10.0018 4.78778 10.0018 4.93694V10.7975L13.6554 12.8852C13.7811 12.9611 13.8722 13.0831 13.9092 13.2252C13.9461 13.3674 13.926 13.5183 13.8532 13.6458C13.7803 13.7733 13.6604 13.8673 13.5192 13.9076C13.378 13.9479 13.2266 13.9314 13.0974 13.8616L9.16042 11.6119C9.07434 11.5627 9.00278 11.4916 8.953 11.4059C8.90322 11.3202 8.87699 11.2228 8.87695 11.1237V4.93694C8.87695 4.78778 8.93621 4.64472 9.04169 4.53924C9.14716 4.43377 9.29022 4.37451 9.43938 4.37451Z" fill="#727272" stroke="#727272" stroke-width="0.6"/>
</svg>
