<svg width="20" height="20" viewBox="0 0 24 22"  fill="none" xmlns="http://www.w3.org/2000/svg">
    <path style="stroke: #727272" d="M1.31445 5.23184C1.31445 4.16051 1.76507 3.13306 2.56718 2.37551C3.36929 1.61797 4.45718 1.19238 5.59153 1.19238H18.4227C19.5571 1.19238 20.645 1.61797 21.4471 2.37551C22.2492 3.13306 22.6998 4.16051 22.6998 5.23184V17.3502C22.6998 18.4216 22.2492 19.449 21.4471 20.2066C20.645 20.9641 19.5571 21.3897 18.4227 21.3897H5.59153C4.45718 21.3897 3.36929 20.9641 2.56718 20.2066C1.76507 19.449 1.31445 18.4216 1.31445 17.3502V5.23184Z" stroke="#878787" stroke-linecap="round" stroke-linejoin="round"/>
    <path style="stroke: #727272" d="M8.26497 10.2813C9.74132 10.2813 10.9381 9.15093 10.9381 7.7566C10.9381 6.36226 9.74132 5.23193 8.26497 5.23193C6.78862 5.23193 5.5918 6.36226 5.5918 7.7566C5.5918 9.15093 6.78862 10.2813 8.26497 10.2813Z" stroke="#878787" stroke-linecap="round" stroke-linejoin="round"/>
    <path style="stroke: #727272" d="M14.7084 11.9183L5.5918 21.3898H18.5652C19.6619 21.3898 20.7136 20.9784 21.489 20.246C22.2645 19.5137 22.7001 18.5204 22.7001 17.4847V17.3503C22.7001 16.8797 22.513 16.699 22.1762 16.3506L17.867 11.9122C17.6662 11.7053 17.4219 11.5402 17.1497 11.4275C16.8775 11.3147 16.5835 11.2568 16.2863 11.2573C15.9891 11.2579 15.6953 11.317 15.4236 11.4308C15.1519 11.5446 14.9083 11.7106 14.7084 11.9183V11.9183Z" stroke="#878787" stroke-linecap="round" stroke-linejoin="round"/>
</svg>
