<svg width="17" height="17" viewBox="0 0 17 17" fill="none" xmlns="http://www.w3.org/2000/svg">
<path d="M14.1289 1.60254C14.3941 1.60254 14.6485 1.7079 14.836 1.89543C15.0235 2.08297 15.1289 2.33732 15.1289 2.60254V14.6025C15.1289 14.8678 15.0235 15.1221 14.836 15.3096C14.6485 15.4972 14.3941 15.6025 14.1289 15.6025H2.12891C1.86369 15.6025 1.60934 15.4972 1.4218 15.3096C1.23426 15.1221 1.12891 14.8678 1.12891 14.6025V2.60254C1.12891 2.33732 1.23426 2.08297 1.4218 1.89543C1.60934 1.7079 1.86369 1.60254 2.12891 1.60254H14.1289ZM2.12891 0.602539C1.59847 0.602539 1.08977 0.813253 0.714693 1.18833C0.33962 1.5634 0.128906 2.07211 0.128906 2.60254L0.128906 14.6025C0.128906 15.133 0.33962 15.6417 0.714693 16.0168C1.08977 16.3918 1.59847 16.6025 2.12891 16.6025H14.1289C14.6593 16.6025 15.168 16.3918 15.5431 16.0168C15.9182 15.6417 16.1289 15.133 16.1289 14.6025V2.60254C16.1289 2.07211 15.9182 1.5634 15.5431 1.18833C15.168 0.813253 14.6593 0.602539 14.1289 0.602539H2.12891Z" fill="#7E75EF"/>
<path d="M9.05886 7.19054L6.76886 7.47754L6.68686 7.85754L7.13686 7.94054C7.43086 8.01054 7.48886 8.11654 7.42486 8.40954L6.68686 11.8775C6.49286 12.7745 6.79186 13.1965 7.49486 13.1965C8.03986 13.1965 8.67286 12.9445 8.95986 12.5985L9.04786 12.1825C8.84786 12.3585 8.55586 12.4285 8.36186 12.4285C8.08686 12.4285 7.98686 12.2355 8.05786 11.8955L9.05886 7.19054ZM9.12886 5.10254C9.12886 5.36776 9.0235 5.62211 8.83596 5.80965C8.64843 5.99718 8.39407 6.10254 8.12886 6.10254C7.86364 6.10254 7.60929 5.99718 7.42175 5.80965C7.23422 5.62211 7.12886 5.36776 7.12886 5.10254C7.12886 4.83732 7.23422 4.58297 7.42175 4.39543C7.60929 4.2079 7.86364 4.10254 8.12886 4.10254C8.39407 4.10254 8.64843 4.2079 8.83596 4.39543C9.0235 4.58297 9.12886 4.83732 9.12886 5.10254Z" fill="#7E75EF"/>
</svg>
