<svg viewBox="0 0 64 64" xmlns="http://www.w3.org/2000/svg"><path d="M32.331 46.326c-1.753 0-3.278-.711-4.32-2.024-.971-1.222-1.384-2.833-1.135-4.421l1.196-7.618-.276.142a2.816 2.816 0 01-2.575-5.009l5.205-2.676a2.815 2.815 0 014.069 2.941L32.45 40.685c.41-.043 1.467-.301 3.435-1.668a2.815 2.815 0 113.214 4.624c-2.459 1.71-4.568 2.585-6.446 2.677a5.815 5.815 0 01-.322.008z" fill="#515151"/><circle cx="32.803" cy="19.233" r="3.143" fill="#515151"/><path d="M32 59.5C16.836 59.5 4.5 47.164 4.5 32S16.836 4.5 32 4.5 59.5 16.837 59.5 32 47.163 59.5 32 59.5zm0-49.368c-12.058 0-21.868 9.81-21.868 21.868S19.942 53.868 32 53.868c12.058 0 21.868-9.81 21.868-21.868S44.058 10.132 32 10.132z" fill="#515151"/></svg>