<svg width="16" height="14" viewBox="0 0 16 14" fill="none" xmlns="http://www.w3.org/2000/svg">
<path d="M5.94643 3.92875C5.58929 4.46542 5.18155 5.26167 4.72321 6.3175C4.59226 6.055 4.48214 5.84354 4.39286 5.68313C4.30357 5.52271 4.18304 5.3375 4.03125 5.1275C3.87946 4.9175 3.72768 4.75271 3.57589 4.63312C3.42411 4.51354 3.23661 4.41146 3.01339 4.32688C2.79018 4.24229 2.54762 4.2 2.28571 4.2H0.285714C0.202381 4.2 0.133929 4.17375 0.0803571 4.12125C0.0267857 4.06875 0 4.00167 0 3.92V2.24C0 2.15833 0.0267857 2.09125 0.0803571 2.03875C0.133929 1.98625 0.202381 1.96 0.285714 1.96H2.28571C3.77381 1.96 4.99405 2.61625 5.94643 3.92875ZM16 10.92C16 11.0017 15.9732 11.0688 15.9196 11.1213L13.0625 13.9213C13.0089 13.9738 12.9405 14 12.8571 14C12.7798 14 12.7128 13.9723 12.6563 13.9169C12.5997 13.8615 12.5714 13.7958 12.5714 13.72V12.04C12.381 12.04 12.128 12.0415 11.8125 12.0444C11.497 12.0473 11.256 12.0502 11.0893 12.0531C10.9226 12.056 10.7054 12.0531 10.4375 12.0444C10.1696 12.0356 9.95833 12.021 9.80357 12.0006C9.64881 11.9802 9.45833 11.9496 9.23214 11.9087C9.00595 11.8679 8.81845 11.814 8.66964 11.7469C8.52083 11.6798 8.34822 11.5967 8.15179 11.4975C7.95536 11.3983 7.77976 11.2817 7.625 11.1475C7.47024 11.0133 7.30655 10.8573 7.13393 10.6794C6.96131 10.5015 6.79464 10.2987 6.63393 10.0712C6.98512 9.52875 7.38988 8.7325 7.84821 7.6825C7.97917 7.945 8.08929 8.15646 8.17857 8.31688C8.26786 8.47729 8.38839 8.6625 8.54018 8.8725C8.69197 9.0825 8.84375 9.24729 8.99554 9.36687C9.14732 9.48646 9.33482 9.58854 9.55804 9.67313C9.78125 9.75771 10.0238 9.8 10.2857 9.8H12.5714V8.12C12.5714 8.03833 12.5982 7.97125 12.6518 7.91875C12.7054 7.86625 12.7738 7.84 12.8571 7.84C12.9286 7.84 13 7.86917 13.0714 7.9275L15.9196 10.7188C15.9732 10.7712 16 10.8383 16 10.92ZM16 3.08C16 3.16167 15.9732 3.22875 15.9196 3.28125L13.0625 6.08125C13.0089 6.13375 12.9405 6.16 12.8571 6.16C12.7798 6.16 12.7128 6.13229 12.6563 6.07688C12.5997 6.02146 12.5714 5.95583 12.5714 5.88V4.2H10.2857C10 4.2 9.74107 4.24375 9.50893 4.33125C9.27679 4.41875 9.07143 4.55 8.89286 4.725C8.71429 4.9 8.5625 5.07937 8.4375 5.26312C8.3125 5.44688 8.17857 5.67292 8.03572 5.94125C7.84524 6.30292 7.6131 6.80167 7.33929 7.4375C7.16667 7.8225 7.01935 8.14625 6.89732 8.40875C6.7753 8.67125 6.61458 8.9775 6.41518 9.3275C6.21577 9.6775 6.0253 9.96917 5.84375 10.2025C5.6622 10.4358 5.44196 10.6779 5.18304 10.9288C4.92411 11.1796 4.65625 11.3794 4.37946 11.5281C4.10268 11.6769 3.78571 11.7994 3.42857 11.8956C3.07143 11.9919 2.69048 12.04 2.28571 12.04H0.285714C0.202381 12.04 0.133929 12.0138 0.0803571 11.9613C0.0267857 11.9087 0 11.8417 0 11.76V10.08C0 9.99833 0.0267857 9.93125 0.0803571 9.87875C0.133929 9.82625 0.202381 9.8 0.285714 9.8H2.28571C2.57143 9.8 2.83036 9.75625 3.0625 9.66875C3.29464 9.58125 3.5 9.45 3.67857 9.275C3.85714 9.1 4.00893 8.92062 4.13393 8.73687C4.25893 8.55313 4.39286 8.32708 4.53571 8.05875C4.72619 7.69708 4.95833 7.19833 5.23214 6.5625C5.40476 6.1775 5.55208 5.85375 5.67411 5.59125C5.79613 5.32875 5.95685 5.0225 6.15625 4.6725C6.35566 4.3225 6.54613 4.03083 6.72768 3.7975C6.90923 3.56417 7.12946 3.32208 7.38839 3.07125C7.64732 2.82042 7.91518 2.62063 8.19197 2.47187C8.46875 2.32313 8.78572 2.20062 9.14286 2.10438C9.5 2.00813 9.88095 1.96 10.2857 1.96H12.5714V0.28C12.5714 0.198333 12.5982 0.13125 12.6518 0.07875C12.7054 0.02625 12.7738 0 12.8571 0C12.9286 0 13 0.0291667 13.0714 0.0875L15.9196 2.87875C15.9732 2.93125 16 2.99833 16 3.08Z" fill="#727272"/>
</svg>
