<svg width="16" height="16" viewBox="0 0 16 16" fill="none" xmlns="http://www.w3.org/2000/svg">
<path fill-rule="evenodd" clip-rule="evenodd" d="M5.87329 0.0290171C5.10862 0.15763 4.54107 0.695652 4.32442 1.49728C4.23857 1.81503 4.2483 2.70597 4.34138 3.05038C4.63888 4.15078 5.21071 5.12994 5.9853 5.86507L6.22081 6.0886L5.94916 6.15181C5.60458 6.23193 5.21322 6.28042 4.91175 6.2803L4.67627 6.28017L4.62023 5.99112C4.4926 5.33299 4.16983 4.57163 3.81676 4.09582C3.38225 3.51031 2.81708 3.18543 2.23301 3.18543C1.76421 3.18543 1.34519 3.38836 1.11028 3.72915C0.812343 4.16135 0.797449 4.74589 1.0712 5.26131C1.43421 5.94476 2.47616 6.54202 3.73616 6.78893C4.08222 6.85674 4.09295 6.86134 4.11056 6.94862C4.13384 7.06401 4.13331 7.35822 4.10956 7.50165L4.0911 7.6131L2.70973 7.6513C1.94997 7.67231 1.07492 7.69829 0.765159 7.70901L0.20196 7.72852L0.100271 7.82978C-0.0124004 7.94194 -0.0286081 8.0442 0.0440447 8.18454C0.132185 8.35486 0.131184 8.35479 1.9138 8.29983C2.81364 8.2721 3.6581 8.24953 3.79039 8.24966L4.0309 8.24991L4.01244 8.36714C4.00231 8.43163 3.9504 8.66016 3.89708 8.87506L3.80018 9.26571L3.58116 9.25639C3.31811 9.2452 2.96208 9.32967 2.67309 9.47182C1.90486 9.84969 1.44388 10.7317 1.60423 11.5168C1.68555 11.915 1.86903 12.2491 2.1735 12.5533L2.42938 12.8089L2.44775 13.132C2.50194 14.0858 3.01868 14.6967 4.0192 14.9898C4.2549 15.0588 4.38318 15.0749 4.80612 15.0883C5.48993 15.1099 5.95648 15.0293 6.58943 14.78C6.68639 14.7418 6.69152 14.7446 6.9336 14.9682C7.35553 15.3581 8.02186 15.7528 8.2579 15.7528C8.51748 15.7528 8.66125 15.4389 8.48907 15.248C8.4635 15.2196 8.29917 15.1251 8.12386 15.0381C7.84251 14.8982 7.28629 14.5028 7.29042 14.4454C7.29127 14.4338 7.40744 14.351 7.54855 14.2615C7.6897 14.172 7.92289 14.0032 8.06676 13.8863C8.21066 13.7695 8.36241 13.6463 8.40396 13.6125C8.47652 13.5535 8.48297 13.5532 8.56475 13.6056C8.75421 13.7269 9.19748 13.9379 9.45029 14.027C10.0312 14.2318 10.9036 14.3773 11.5512 14.3773H11.9306L11.8547 14.4586C11.7172 14.6059 11.3139 14.8916 11.0497 15.0288C10.8498 15.1326 10.7785 15.1877 10.7404 15.2674C10.6805 15.3929 10.7035 15.5097 10.8087 15.6148C10.9251 15.7311 11.0849 15.7163 11.3784 15.5622C11.8732 15.3022 12.2996 14.9404 12.6264 14.5032C12.8218 14.2418 12.8375 14.2286 12.9964 14.1931C13.2282 14.1412 13.8024 13.8517 14.0584 13.6576C14.8069 13.0899 15.2681 12.2939 15.3206 11.4791C15.3412 11.16 15.2948 10.7936 15.2034 10.5523L15.146 10.4006L15.3585 10.0833C15.4753 9.90887 15.6216 9.67468 15.6833 9.56292C15.8505 9.26074 15.9955 8.80431 15.9995 8.56778C16.0025 8.38765 15.9949 8.36302 15.915 8.29424C15.8042 8.19873 15.6218 8.19276 15.5096 8.28092C15.4494 8.32825 15.4176 8.40147 15.3771 8.58573C15.3058 8.91054 15.1772 9.21197 14.9768 9.52472L14.811 9.78354L14.6107 9.52944C14.5005 9.3897 14.1635 9.03868 13.8617 8.74942C13.3206 8.23078 13.3143 8.22321 13.4064 8.20333C14.2771 8.01529 14.8646 7.54116 15.0043 6.91376C15.0992 6.48735 15.0307 6.06762 14.7924 5.61529C14.6506 5.34618 14.2202 4.91942 13.9513 4.78124L13.7459 4.67564L13.8306 4.42292C13.9584 4.04217 13.996 3.74434 13.9763 3.27069C13.9631 2.95431 13.9399 2.79256 13.8777 2.58217C13.5771 1.56552 12.8381 0.908985 11.8459 0.777059C11.3854 0.715847 10.8722 0.837645 10.4718 1.10315C10.2144 1.27388 9.85576 1.66906 9.71446 1.93779C9.59538 2.16422 9.59378 2.16569 9.54604 2.09385C9.21575 1.59682 8.70017 1.03582 8.29013 0.727258C7.5668 0.182921 6.60692 -0.094406 5.87329 0.0290171ZM6.97991 0.74639C7.83773 1.03281 8.52179 1.62873 9.15142 2.63807L9.29976 2.87588L9.16725 3.22604C8.97129 3.74384 8.75177 4.17007 8.52686 4.4695C8.15609 4.96306 7.50287 5.52259 7.02856 5.75284L6.88576 5.82215L6.70404 5.66878C5.95141 5.03362 5.36985 4.1862 5.06728 3.28394C4.93202 2.8805 4.87955 2.57842 4.88011 2.20574C4.88133 1.37226 5.21328 0.849962 5.85745 0.668047C6.1276 0.591736 6.61965 0.626094 6.97991 0.74639ZM11.9277 1.41809C12.5685 1.55377 13.126 2.13312 13.3112 2.85593C13.4117 3.2483 13.3541 3.94657 13.1867 4.36455C13.1366 4.48966 13.1365 4.48972 13.0053 4.46578C12.5153 4.3763 11.8689 4.40857 11.3339 4.54915C11.1656 4.59339 10.9997 4.63578 10.9653 4.64335C10.9109 4.65532 10.843 4.53559 10.4466 3.72937L9.99043 2.80157L10.1697 2.43861C10.4656 1.83929 10.8143 1.52544 11.3021 1.41956C11.5571 1.36419 11.672 1.36394 11.9277 1.41809ZM10.0284 4.28299C10.2101 4.64591 10.3545 4.94543 10.3492 4.94856C10.2017 5.03559 9.93054 5.27694 9.72588 5.50331C9.26121 6.01732 9.09285 6.19064 8.84707 6.40803L8.60615 6.62115L8.3794 6.55837C8.1743 6.5016 7.70597 6.32156 7.55932 6.24316C7.50891 6.21621 7.53156 6.19267 7.73141 6.06456C8.23929 5.73905 8.73578 5.25924 9.10946 4.73291C9.26894 4.50826 9.66684 3.74797 9.66684 3.66787C9.66684 3.64324 9.67382 3.62311 9.68233 3.62311C9.69087 3.62311 9.84656 3.92006 10.0284 4.28299ZM2.70726 3.93216C3.10635 4.11877 3.48466 4.60286 3.75121 5.26803C3.86266 5.54614 4.04943 6.18245 4.0264 6.20549C4.02133 6.21052 3.89092 6.18717 3.7366 6.15353C2.9367 5.9793 2.14281 5.59503 1.80032 5.21629C1.56506 4.95609 1.44385 4.53002 1.53048 4.26773C1.67116 3.84185 2.19475 3.69254 2.70726 3.93216ZM12.7902 5.07645C12.8195 5.10581 12.4555 5.52028 12.2362 5.70726C12.0125 5.89799 11.7417 6.0935 11.7031 6.09222C11.6836 6.09157 11.5378 5.84672 11.3289 5.46401L11.199 5.22598L11.3794 5.17671C11.5796 5.122 11.8692 5.06761 12.0604 5.04872C12.2021 5.03475 12.77 5.05635 12.7902 5.07645ZM13.7093 5.36203C14.2607 5.70982 14.544 6.35148 14.3706 6.8599C14.232 7.26618 13.6332 7.58946 13.0008 7.5994L12.7522 7.60331L12.6326 7.46551C12.5668 7.3897 12.4048 7.17427 12.2727 6.98676C12.0431 6.66107 12.0351 6.64391 12.0933 6.60308C12.6356 6.22299 13.0449 5.8329 13.2994 5.45382C13.4544 5.22304 13.4798 5.21732 13.7093 5.36203ZM10.8915 5.96017L11.1304 6.38981L10.9871 6.44636C10.6524 6.57841 9.9088 6.71806 9.54034 6.71806C9.44497 6.71806 9.4511 6.70896 9.79722 6.33638C10.2897 5.8063 10.5698 5.53007 10.6145 5.53032C10.6354 5.53044 10.76 5.72386 10.8915 5.96017ZM6.93986 6.60558C7.10294 6.70843 7.5841 6.94637 7.77077 7.01646L7.92411 7.07404L7.84946 7.12272C7.80841 7.14948 7.66902 7.2503 7.53967 7.34674L7.30453 7.52216L6.35022 7.5427C5.82535 7.55401 5.24748 7.57186 5.06606 7.58237L4.73622 7.60147L4.73753 7.25368L4.73885 6.90585L4.93562 6.90573C5.50965 6.90542 6.3056 6.74779 6.81236 6.53405C6.81699 6.53208 6.87437 6.56428 6.93986 6.60558ZM11.6968 7.25496L11.9164 7.57305L11.7433 7.64333C11.5057 7.7398 11.3528 7.84619 11.2214 8.00634C11.1133 8.13821 10.9185 8.50945 10.9184 8.58376C10.9184 8.65156 10.8211 8.71881 10.7206 8.72047C10.6659 8.72134 10.4968 8.75404 10.3448 8.79312L10.0685 8.86412L9.95739 8.68989C9.81681 8.4694 9.47736 8.1404 9.25079 8.00503C9.04876 7.88433 8.7181 7.74659 8.49351 7.68953C8.40746 7.66768 8.31688 7.64361 8.29223 7.63601C8.26544 7.62779 8.34949 7.55395 8.50071 7.45278L8.75402 7.28334L9.04616 7.31683C9.6659 7.38792 10.4352 7.29366 11.0826 7.06735C11.2762 6.99967 11.4443 6.94262 11.456 6.94059C11.4677 6.93855 11.5761 7.08001 11.6968 7.25496ZM6.61449 8.36714C6.1546 8.90207 5.8124 9.19571 5.44284 9.3725C5.21481 9.48158 5.19782 9.48476 4.8421 9.48476C4.62204 9.48476 4.46256 9.47132 4.44229 9.45106C4.41817 9.42696 4.43894 9.29335 4.51519 8.98213C4.57386 8.74276 4.6319 8.47303 4.6442 8.38277L4.66651 8.21865L4.84347 8.21449C4.94081 8.21221 5.295 8.2007 5.63058 8.18895C5.96615 8.17716 6.36562 8.16497 6.51831 8.16184L6.7959 8.15612L6.61449 8.36714ZM8.27912 8.28214C8.65217 8.37711 8.95361 8.53343 9.17623 8.74729C9.28258 8.84945 9.39466 8.97569 9.42532 9.02781C9.48962 9.13716 9.53552 9.09333 9.0513 9.38494C8.32721 9.82099 7.71185 10.356 7.17838 11.0133C7.1101 11.0974 6.89934 11.3992 6.71004 11.6838C6.52075 11.9685 6.34609 12.2075 6.32191 12.215C6.28502 12.2265 6.28151 12.1691 6.30013 11.8582C6.32726 11.405 6.40761 10.9238 6.55147 10.3529C6.76517 9.50502 7.02281 8.89976 7.37521 8.4176L7.54943 8.17926L7.79145 8.19942C7.92455 8.21052 8.14401 8.24772 8.27912 8.28214ZM13.2205 8.99335C13.6693 9.43556 14.1184 9.90693 14.2186 10.0408C14.3928 10.2736 14.3989 10.2879 14.357 10.3667C14.295 10.4836 13.8948 10.8173 13.6805 10.9308C13.3837 11.0882 13.3977 11.0967 13.2964 10.6971C13.0452 9.70726 12.4742 8.9957 11.7554 8.77702C11.6366 8.74088 11.5442 8.69505 11.5442 8.67232C11.5442 8.65006 11.5909 8.56416 11.648 8.48137C11.788 8.27842 11.9644 8.1871 12.214 8.18835L12.4046 8.18929L13.2205 8.99335ZM10.7756 9.602C10.8415 10.3854 11.2219 11.0319 11.8546 11.436C12.0489 11.5601 12.4765 11.7196 12.6174 11.7204C12.6553 11.7207 12.7179 11.7294 12.7566 11.7397C12.8248 11.758 12.827 11.7708 12.827 12.1417C12.827 12.5852 12.7532 12.9295 12.5599 13.3871C12.4698 13.6002 12.4247 13.6703 12.3614 13.6952C12.2317 13.7463 11.3446 13.765 10.9952 13.7239C10.6004 13.6775 10.1332 13.584 9.792 13.4831C9.47911 13.3906 8.9472 13.1379 8.9472 13.0818C8.9472 13.0603 8.97689 13.0159 9.01315 12.9832C9.12661 12.8807 9.49482 12.4039 9.67479 12.1264C9.99353 11.6349 10.1991 11.1537 10.2958 10.6727C10.3407 10.4498 10.3497 9.94235 10.314 9.65277L10.2885 9.44562L10.4705 9.39795C10.7658 9.32061 10.7511 9.31079 10.7756 9.602ZM11.7277 9.43828C12.0261 9.57933 12.2582 9.83299 12.4498 10.2277C12.588 10.5121 12.7332 10.9382 12.7332 11.0592C12.7332 11.1255 12.5377 11.0836 12.2959 10.9653C11.7912 10.7186 11.391 10.0554 11.3883 9.46132C11.3878 9.3604 11.3975 9.34408 11.4581 9.34412C11.4969 9.34412 11.6182 9.38651 11.7277 9.43828ZM5.97235 10.0866C5.74341 10.9295 5.64403 11.6758 5.67948 12.2854L5.70057 12.6475L5.51697 12.7141C5.13205 12.8539 4.93878 12.8877 4.51982 12.8889C4.22421 12.8897 4.05321 12.8744 3.89405 12.833C3.61389 12.7601 3.15876 12.55 3.15876 12.4935C3.15876 12.3971 3.27853 12.1058 3.61182 11.3918C3.80447 10.9791 4.01532 10.5061 4.0804 10.3406L4.19874 10.0397L4.37492 10.0864C4.60155 10.1465 4.99798 10.1513 5.24782 10.097C5.35567 10.0735 5.57391 9.9883 5.7328 9.90759C5.89168 9.82687 6.03114 9.7585 6.04265 9.75565C6.0542 9.75281 6.02256 9.90171 5.97235 10.0866ZM9.71421 9.90999C9.76356 10.2684 9.64366 10.8589 9.43205 11.2997C9.37382 11.421 9.24328 11.6461 9.14197 11.7999C8.94526 12.0985 8.52226 12.6266 8.47987 12.6266C8.43027 12.6266 8.32399 12.3222 8.30337 12.121C8.26494 11.7462 8.42555 11.1775 8.70355 10.704C8.88249 10.3991 9.52739 9.76528 9.67172 9.75234C9.68302 9.75131 9.70214 9.82227 9.71421 9.90999ZM3.56551 9.90868C3.56551 9.97099 3.2912 10.6111 3.01004 11.2049C2.85554 11.5312 2.70422 11.865 2.67375 11.9467C2.64327 12.0283 2.60767 12.0952 2.59465 12.0952C2.5372 12.0952 2.28101 11.6599 2.23661 11.4868C2.1766 11.253 2.17641 11.1241 2.23574 10.8967C2.35154 10.4523 2.77046 10.0492 3.25262 9.91806C3.43019 9.86976 3.56551 9.86569 3.56551 9.90868ZM14.7022 11.3164C14.7093 12.0887 14.1909 12.8899 13.3824 13.3563C13.3006 13.4035 13.234 13.4309 13.2342 13.4173C13.2344 13.4037 13.2636 13.3011 13.2991 13.1893C13.4106 12.8378 13.4528 12.5422 13.4528 12.1122V11.6971L13.6894 11.6109C13.9451 11.5177 14.2918 11.3047 14.5166 11.1026C14.6856 10.9507 14.6989 10.966 14.7022 11.3164ZM7.70863 11.5637C7.68566 11.6927 7.66629 11.8726 7.66561 11.9636C7.66313 12.292 7.79076 12.7352 7.96757 13.0123L8.02418 13.101L7.88338 13.2281C7.69139 13.4013 7.30237 13.6891 7.06721 13.8318C6.88467 13.9426 6.87056 13.9463 6.83194 13.8936C6.74656 13.7769 6.54086 13.3536 6.47653 13.1621L6.40961 12.963L6.4816 12.9131C6.73601 12.7369 6.95682 12.4765 7.25469 12.0014C7.42856 11.724 7.72909 11.3044 7.74261 11.3201C7.74693 11.3251 7.73163 11.4347 7.70863 11.5637ZM3.44455 13.3439C3.81895 13.4771 4.28506 13.5441 4.67123 13.5203C5.01062 13.4993 5.4334 13.4162 5.68246 13.3214L5.84381 13.26L5.94544 13.5227C6.00132 13.6671 6.10119 13.8779 6.16734 13.991C6.23351 14.1041 6.28764 14.2025 6.28764 14.2096C6.28764 14.2653 5.59053 14.4363 5.22382 14.4705C4.09855 14.5753 3.23607 14.1108 3.08507 13.3186C3.06207 13.1981 3.02784 13.1956 3.44455 13.3439ZM9.44122 15.4683C9.35724 15.5433 9.33972 15.5815 9.33972 15.6903C9.33972 15.7991 9.35724 15.8374 9.44122 15.9123C9.55442 16.0134 9.65655 16.026 9.79262 15.9557C9.90285 15.8988 9.94844 15.8211 9.94844 15.6903C9.94844 15.5595 9.90285 15.4819 9.79262 15.4249C9.65655 15.3546 9.55442 15.3672 9.44122 15.4683Z" fill="#727272"/>
</svg>
