<svg width="14" height="14" viewBox="0 0 14 14" fill="none" xmlns="http://www.w3.org/2000/svg">
<path d="M0.875 2.1875C0.875 1.8394 1.01328 1.50556 1.25942 1.25942C1.50556 1.01328 1.8394 0.875 2.1875 0.875H4.8125C5.1606 0.875 5.49444 1.01328 5.74058 1.25942C5.98672 1.50556 6.125 1.8394 6.125 2.1875V4.8125C6.125 5.1606 5.98672 5.49444 5.74058 5.74058C5.49444 5.98672 5.1606 6.125 4.8125 6.125H2.1875C1.8394 6.125 1.50556 5.98672 1.25942 5.74058C1.01328 5.49444 0.875 5.1606 0.875 4.8125V2.1875ZM2.1875 1.75C2.07147 1.75 1.96019 1.79609 1.87814 1.87814C1.79609 1.96019 1.75 2.07147 1.75 2.1875V4.8125C1.75 4.92853 1.79609 5.03981 1.87814 5.12186C1.96019 5.20391 2.07147 5.25 2.1875 5.25H4.8125C4.92853 5.25 5.03981 5.20391 5.12186 5.12186C5.20391 5.03981 5.25 4.92853 5.25 4.8125V2.1875C5.25 2.07147 5.20391 1.96019 5.12186 1.87814C5.03981 1.79609 4.92853 1.75 4.8125 1.75H2.1875ZM7.875 2.1875C7.875 1.8394 8.01328 1.50556 8.25942 1.25942C8.50556 1.01328 8.8394 0.875 9.1875 0.875H11.8125C12.1606 0.875 12.4944 1.01328 12.7406 1.25942C12.9867 1.50556 13.125 1.8394 13.125 2.1875V4.8125C13.125 5.1606 12.9867 5.49444 12.7406 5.74058C12.4944 5.98672 12.1606 6.125 11.8125 6.125H9.1875C8.8394 6.125 8.50556 5.98672 8.25942 5.74058C8.01328 5.49444 7.875 5.1606 7.875 4.8125V2.1875ZM9.1875 1.75C9.07147 1.75 8.96019 1.79609 8.87814 1.87814C8.79609 1.96019 8.75 2.07147 8.75 2.1875V4.8125C8.75 4.92853 8.79609 5.03981 8.87814 5.12186C8.96019 5.20391 9.07147 5.25 9.1875 5.25H11.8125C11.9285 5.25 12.0398 5.20391 12.1219 5.12186C12.2039 5.03981 12.25 4.92853 12.25 4.8125V2.1875C12.25 2.07147 12.2039 1.96019 12.1219 1.87814C12.0398 1.79609 11.9285 1.75 11.8125 1.75H9.1875ZM0.875 9.1875C0.875 8.8394 1.01328 8.50556 1.25942 8.25942C1.50556 8.01328 1.8394 7.875 2.1875 7.875H4.8125C5.1606 7.875 5.49444 8.01328 5.74058 8.25942C5.98672 8.50556 6.125 8.8394 6.125 9.1875V11.8125C6.125 12.1606 5.98672 12.4944 5.74058 12.7406C5.49444 12.9867 5.1606 13.125 4.8125 13.125H2.1875C1.8394 13.125 1.50556 12.9867 1.25942 12.7406C1.01328 12.4944 0.875 12.1606 0.875 11.8125V9.1875ZM2.1875 8.75C2.07147 8.75 1.96019 8.79609 1.87814 8.87814C1.79609 8.96019 1.75 9.07147 1.75 9.1875V11.8125C1.75 11.9285 1.79609 12.0398 1.87814 12.1219C1.96019 12.2039 2.07147 12.25 2.1875 12.25H4.8125C4.92853 12.25 5.03981 12.2039 5.12186 12.1219C5.20391 12.0398 5.25 11.9285 5.25 11.8125V9.1875C5.25 9.07147 5.20391 8.96019 5.12186 8.87814C5.03981 8.79609 4.92853 8.75 4.8125 8.75H2.1875ZM7.875 9.1875C7.875 8.8394 8.01328 8.50556 8.25942 8.25942C8.50556 8.01328 8.8394 7.875 9.1875 7.875H11.8125C12.1606 7.875 12.4944 8.01328 12.7406 8.25942C12.9867 8.50556 13.125 8.8394 13.125 9.1875V11.8125C13.125 12.1606 12.9867 12.4944 12.7406 12.7406C12.4944 12.9867 12.1606 13.125 11.8125 13.125H9.1875C8.8394 13.125 8.50556 12.9867 8.25942 12.7406C8.01328 12.4944 7.875 12.1606 7.875 11.8125V9.1875ZM9.1875 8.75C9.07147 8.75 8.96019 8.79609 8.87814 8.87814C8.79609 8.96019 8.75 9.07147 8.75 9.1875V11.8125C8.75 11.9285 8.79609 12.0398 8.87814 12.1219C8.96019 12.2039 9.07147 12.25 9.1875 12.25H11.8125C11.9285 12.25 12.0398 12.2039 12.1219 12.1219C12.2039 12.0398 12.25 11.9285 12.25 11.8125V9.1875C12.25 9.07147 12.2039 8.96019 12.1219 8.87814C12.0398 8.79609 11.9285 8.75 11.8125 8.75H9.1875Z" fill="#727272"/>
</svg>
