<svg width="24" height="23" viewBox="0 0 24 23" fill="none" xmlns="http://www.w3.org/2000/svg">
<path d="M4.6698 16.5312H2.00974C1.83337 16.5312 1.66422 16.607 1.5395 16.7418C1.41479 16.8766 1.34473 17.0594 1.34473 17.25L1.34473 20.125C1.34473 20.3156 1.41479 20.4984 1.5395 20.6332C1.66422 20.768 1.83337 20.8438 2.00974 20.8438H4.6698C4.84617 20.8438 5.01532 20.768 5.14004 20.6332C5.26475 20.4984 5.33482 20.3156 5.33482 20.125V17.25C5.33482 17.0594 5.26475 16.8766 5.14004 16.7418C5.01532 16.607 4.84617 16.5312 4.6698 16.5312ZM4.6698 2.15625H2.00974C1.83337 2.15625 1.66422 2.23198 1.5395 2.36677C1.41479 2.50156 1.34473 2.68438 1.34473 2.875L1.34473 5.75C1.34473 5.94062 1.41479 6.12344 1.5395 6.25823C1.66422 6.39302 1.83337 6.46875 2.00974 6.46875H4.6698C4.84617 6.46875 5.01532 6.39302 5.14004 6.25823C5.26475 6.12344 5.33482 5.94062 5.33482 5.75V2.875C5.33482 2.68438 5.26475 2.50156 5.14004 2.36677C5.01532 2.23198 4.84617 2.15625 4.6698 2.15625ZM4.6698 9.34375H2.00974C1.83337 9.34375 1.66422 9.41948 1.5395 9.55427C1.41479 9.68906 1.34473 9.87188 1.34473 10.0625L1.34473 12.9375C1.34473 13.1281 1.41479 13.3109 1.5395 13.4457C1.66422 13.5805 1.83337 13.6562 2.00974 13.6562H4.6698C4.84617 13.6562 5.01532 13.5805 5.14004 13.4457C5.26475 13.3109 5.33482 13.1281 5.33482 12.9375V10.0625C5.33482 9.87188 5.26475 9.68906 5.14004 9.55427C5.01532 9.41948 4.84617 9.34375 4.6698 9.34375ZM21.9602 17.25H8.65989C8.48352 17.25 8.31437 17.3257 8.18965 17.4605C8.06494 17.5953 7.99487 17.7781 7.99487 17.9688V19.4062C7.99487 19.5969 8.06494 19.7797 8.18965 19.9145C8.31437 20.0493 8.48352 20.125 8.65989 20.125H21.9602C22.1366 20.125 22.3057 20.0493 22.4304 19.9145C22.5551 19.7797 22.6252 19.5969 22.6252 19.4062V17.9688C22.6252 17.7781 22.5551 17.5953 22.4304 17.4605C22.3057 17.3257 22.1366 17.25 21.9602 17.25ZM21.9602 2.875H8.65989C8.48352 2.875 8.31437 2.95073 8.18965 3.08552C8.06494 3.22031 7.99487 3.40313 7.99487 3.59375V5.03125C7.99487 5.22187 8.06494 5.40469 8.18965 5.53948C8.31437 5.67427 8.48352 5.75 8.65989 5.75H21.9602C22.1366 5.75 22.3057 5.67427 22.4304 5.53948C22.5551 5.40469 22.6252 5.22187 22.6252 5.03125V3.59375C22.6252 3.40313 22.5551 3.22031 22.4304 3.08552C22.3057 2.95073 22.1366 2.875 21.9602 2.875ZM21.9602 10.0625H8.65989C8.48352 10.0625 8.31437 10.1382 8.18965 10.273C8.06494 10.4078 7.99487 10.5906 7.99487 10.7812V12.2188C7.99487 12.4094 8.06494 12.5922 8.18965 12.727C8.31437 12.8618 8.48352 12.9375 8.65989 12.9375H21.9602C22.1366 12.9375 22.3057 12.8618 22.4304 12.727C22.5551 12.5922 22.6252 12.4094 22.6252 12.2188V10.7812C22.6252 10.5906 22.5551 10.4078 22.4304 10.273C22.3057 10.1382 22.1366 10.0625 21.9602 10.0625Z" fill="#7C7C7C"/>
</svg>
