<svg width="10" height="16" viewBox="0 0 10 16" fill="none" xmlns="http://www.w3.org/2000/svg">
<path d="M5 0.00897217C2.238 0.00897217 0 2.23797 0 4.99897C0 9.77297 5 15.999 5 15.999C5 15.999 10 9.77197 10 4.99897C10 2.23897 7.762 0.00897217 5 0.00897217ZM5 7.75997C4.28392 7.75997 3.59716 7.47551 3.09081 6.96916C2.58446 6.46281 2.3 5.77606 2.3 5.05997C2.3 4.34389 2.58446 3.65713 3.09081 3.15078C3.59716 2.64444 4.28392 2.35997 5 2.35997C5.71608 2.35997 6.40284 2.64444 6.90919 3.15078C7.41554 3.65713 7.7 4.34389 7.7 5.05997C7.7 5.77606 7.41554 6.46281 6.90919 6.96916C6.40284 7.47551 5.71608 7.75997 5 7.75997Z" fill="#727272"/>
</svg>
