<svg xmlns="http://www.w3.org/2000/svg" width="14.256" height="14.262"><path class="a" d="M9.668 2.808L6.996.134a.423.423 0 00-.481-.1.445.445 0 00-.276.41v1.339h-.448a5.8 5.8 0 00-5.74 6.56 5.577 5.577 0 001.832 3.451.446.446 0 00.609-.027l1.239-1.239a.436.436 0 00-.01-.636 2.99 2.99 0 01-.978-1.666 3.115 3.115 0 013.048-3.77h.446v1.338a.445.445 0 00.276.41.423.423 0 00.481-.1l2.674-2.672a.431.431 0 000-.624zm4.537 3.111a5.575 5.575 0 00-1.832-3.451.446.446 0 00-.609.027l-1.238 1.238a.436.436 0 00.01.636 3 3 0 01.978 1.666 3.115 3.115 0 01-3.048 3.77H8.02V8.468a.445.445 0 00-.276-.41.423.423 0 00-.481.1l-2.675 2.675a.431.431 0 000 .624l2.674 2.676a.423.423 0 00.481.1.445.445 0 00.276-.41v-1.344h.446a5.8 5.8 0 005.74-6.56z"/></svg>