<svg viewBox="0 0 24 24" id="minimap__map-pin" xmlns="http://www.w3.org/2000/svg">
    <path fill="currentColor"
          d="M20 17.614V4.886l-4 1.5v12.728l4-1.5zm-5.373 3.871L9 19.375l-5.649 2.118A1 1 0 012 20.557V5.693a1 1 0 01.649-.936l5.995-2.249A.973.973 0 019 2.443a1.069 1.069 0 01.373.072L15 4.625l5.649-2.118A1 1 0 0122 3.443v14.864a1 1 0 01-.649.936l-5.995 2.249a.973.973 0 01-.356.065.993.993 0 01-.373-.072zM14 19.114V6.386l-4-1.5v12.728l4 1.5zM8 4.886l-4 1.5v12.728l4-1.5V4.886z"></path>
</svg>
