<svg xmlns="http://www.w3.org/2000/svg" viewBox="0 0 512 512" width="512" height="512"><g class="shadow"><path d="M256 512c-65.972 0-128.206-8.8-175.238-24.779C14.012 464.543 0 435.495 0 415.121c0-26.579 23.749-45.205 43.671-56.149 7.263-3.989 16.38-1.336 20.369 5.924 3.989 7.261 1.337 16.381-5.924 20.369C40.248 395.081 30 405.963 30 415.121c0 11.201 15.87 28.561 60.413 43.694C134.418 473.767 193.225 482 256 482s121.582-8.233 165.587-23.185C466.13 443.683 482 426.322 482 415.121c0-9.158-10.248-20.04-28.116-29.857-7.261-3.988-9.913-13.108-5.924-20.369 3.987-7.26 13.106-9.913 20.369-5.924C488.251 369.916 512 388.542 512 415.121c0 20.374-14.012 49.422-80.762 72.1C384.206 503.2 321.972 512 256 512z" fill="#c9dff7"/><path d="M468.329 358.972c-7.263-3.989-16.382-1.336-20.369 5.924-3.989 7.261-1.337 16.381 5.924 20.369C471.752 395.081 482 405.963 482 415.121c0 11.201-15.87 28.561-60.413 43.694C377.582 473.767 318.775 482 256 482h-.004v30H256c65.972 0 128.206-8.8 175.238-24.779 66.75-22.678 80.762-51.726 80.762-72.1 0-26.579-23.749-45.205-43.671-56.149z" fill="#aecef2"/><path d="M256 450.47c-42.579 0-82.798-4.737-113.248-13.34-37.253-10.523-56.142-25.757-56.142-45.275 0-19.519 18.889-34.751 56.142-45.274 30.45-8.603 70.669-13.34 113.248-13.34s82.798 4.737 113.248 13.34c37.253 10.523 56.142 25.756 56.142 45.274s-18.889 34.752-56.142 45.275c-30.45 8.602-70.669 13.34-113.248 13.34zm-139.136-58.616c2.059 3.023 12.074 10.884 39.49 17.866 27.213 6.932 62.602 10.749 99.645 10.749s72.433-3.817 99.646-10.749c27.416-6.982 37.431-14.844 39.49-17.866-2.06-3.022-12.075-10.883-39.491-17.866-27.213-6.931-62.601-10.748-99.645-10.748s-72.432 3.817-99.645 10.748c-27.415 6.984-37.43 14.844-39.49 17.866zm278.614.621h.011-.011z" fill="#c9dff7"/><path d="M369.248 346.58c-30.45-8.603-70.669-13.34-113.248-13.34h-.004v30H256c37.044 0 72.432 3.817 99.645 10.748 27.416 6.983 37.432 14.844 39.491 17.866-2.06 3.023-12.074 10.884-39.49 17.866-27.213 6.932-62.602 10.749-99.646 10.749h-.004v30H256c42.579 0 82.798-4.737 113.248-13.34 37.253-10.523 56.142-25.757 56.142-45.275 0-19.518-18.889-34.751-56.142-45.274z" fill="#aecef2"/></g><path d="M256 0c-76.888 0-139.44 62.552-139.44 139.439 0 47.891 58.183 153.137 106.992 232.994 6.966 11.398 19.096 18.201 32.448 18.201 13.353 0 25.482-6.804 32.448-18.201 48.81-79.857 106.992-185.103 106.992-232.994C395.44 62.552 332.888 0 256 0zm0 185.911c-30.904 0-56.047-25.142-56.047-56.046 0-30.903 25.143-56.045 56.047-56.045s56.047 25.142 56.047 56.045c0 30.905-25.143 56.046-56.047 56.046z" fill="#fe5857"/><path d="M256 0h-.004v73.82H256c30.904 0 56.047 25.142 56.047 56.045 0 30.904-25.143 56.046-56.047 56.046h-.004v204.723H256c13.353 0 25.482-6.804 32.448-18.201 48.81-79.857 106.992-185.103 106.992-232.994C395.44 62.552 332.888 0 256 0z" fill="#db0253"/></svg>