<svg height="512" viewBox="0 0 128 128" width="512" xmlns="http://www.w3.org/2000/svg"><g><path d="m109.482 72.345h-21.392a25.486 25.486 0 0 0 -32.435-32.435v-21.392a1.749 1.749 0 0 0 -1.75-1.75h-35.387a1.749 1.749 0 0 0 -1.75 1.75v35.387a1.749 1.749 0 0 0 1.75 1.75h21.392a25.486 25.486 0 0 0 32.435 32.435v21.392a1.749 1.749 0 0 0 1.75 1.75h35.387a1.749 1.749 0 0 0 1.75-1.75v-35.382a1.749 1.749 0 0 0 -1.75-1.755zm-89.214-21.105v-30.972h31.887v21.16a25.587 25.587 0 0 0 -5.066 3.509 17.584 17.584 0 0 0 -5.1-2.757 7.937 7.937 0 1 0 -11.566-.009 17.65 17.65 0 0 0 -10.155 9.069zm20.381-14.484a4.438 4.438 0 1 1 -4.438-4.438 4.442 4.442 0 0 1 4.438 4.438zm-16.928 15.4a14.161 14.161 0 0 1 20.891-4.691 25.619 25.619 0 0 0 -3.184 4.691zm40.279 33.844a22 22 0 1 1 22-22 22.025 22.025 0 0 1 -22 22zm15.3 21.732a14.185 14.185 0 0 1 24.98 0zm8.052-15.4a4.438 4.438 0 1 1 4.437 4.438 4.441 4.441 0 0 1 -4.438-4.437zm20.381 14.485a17.648 17.648 0 0 0 -10.156-9.07 7.937 7.937 0 1 0 -11.576 0 17.652 17.652 0 0 0 -10.155 9.07v-20.245a25.68 25.68 0 0 0 10.726-10.727h21.16z"/><path d="m56.992 67.945-4.164-12.176h-3.602l5.881 16.451h3.546l5.891-16.451h-3.523z"/><path d="m76.3 63.136a16.053 16.053 0 0 0 -3.585-1.184 8.738 8.738 0 0 1 -3.053-1.1 1.264 1.264 0 0 1 -.493-1 1.2 1.2 0 0 1 .527-1.022 3.8 3.8 0 0 1 2.267-.594 3.35 3.35 0 0 1 2.1.555 2.817 2.817 0 0 1 .915 1.823l3.321-.145a4.789 4.789 0 0 0 -1.644-3.625 6.942 6.942 0 0 0 -4.655-1.356 8.241 8.241 0 0 0 -3.238.572 4.46 4.46 0 0 0 -2.053 1.667 4.221 4.221 0 0 0 -.713 2.351 4.279 4.279 0 0 0 1.515 3.31 9.017 9.017 0 0 0 3.748 1.628q2.076.516 2.66.718a2.738 2.738 0 0 1 1.195.712 1.5 1.5 0 0 1 .342.993 2.016 2.016 0 0 1 -.814 1.588 3.7 3.7 0 0 1 -2.418.679 3.578 3.578 0 0 1 -2.407-.763 3.941 3.941 0 0 1 -1.184-2.39l-3.232.314a6.271 6.271 0 0 0 2 4.2 7.127 7.127 0 0 0 4.791 1.442 9.3 9.3 0 0 0 3.58-.6 4.7 4.7 0 0 0 2.222-1.834 5.176 5.176 0 0 0 .129-5.269 4.614 4.614 0 0 0 -1.823-1.67z"/></g></svg>