<svg xmlns="http://www.w3.org/2000/svg" width="51.001" height="51.001" viewBox="0 0 51.001 51.001">
  <g id="Merge_nodes" data-name="Merge nodes" transform="translate(-889.999 -399)">
    <g id="Group_854" data-name="Group 854" transform="translate(-242 -151)">
      <g id="Union_78" data-name="Union 78" transform="translate(-3510 11798)" fill="#fff">
        <path d="M 4682.99853515625 -11197.9990234375 L 4661.99951171875 -11197.9990234375 C 4657.03759765625 -11197.9990234375 4653.00048828125 -11202.037109375 4653.00048828125 -11207.0009765625 L 4653.00048828125 -11208.0009765625 L 4652.00048828125 -11208.0009765625 C 4647.037109375 -11208.0009765625 4642.9990234375 -11212.037109375 4642.9990234375 -11216.9990234375 L 4642.9990234375 -11237.9990234375 C 4642.9990234375 -11242.9619140625 4647.037109375 -11247 4652.00048828125 -11247 L 4673 -11247 C 4677.9619140625 -11247 4681.99853515625 -11242.9619140625 4681.99853515625 -11237.9990234375 L 4681.99853515625 -11236.9990234375 L 4682.99853515625 -11236.9990234375 C 4687.9619140625 -11236.9990234375 4692 -11232.9619140625 4692 -11228 L 4692 -11207.0009765625 C 4692 -11202.037109375 4687.9619140625 -11197.9990234375 4682.99853515625 -11197.9990234375 Z" stroke="none"/>
        <path d="M 4682.99853515625 -11198.9990234375 C 4687.41064453125 -11198.9990234375 4691 -11202.5888671875 4691 -11207.0009765625 L 4691 -11228 C 4691 -11232.4111328125 4687.41064453125 -11235.9990234375 4682.99853515625 -11235.9990234375 L 4680.99853515625 -11235.9990234375 L 4680.99853515625 -11237.9990234375 C 4680.99853515625 -11242.4111328125 4677.41064453125 -11246 4673 -11246 L 4652.00048828125 -11246 C 4647.58837890625 -11246 4643.9990234375 -11242.4111328125 4643.9990234375 -11237.9990234375 L 4643.9990234375 -11216.9990234375 C 4643.9990234375 -11212.5888671875 4647.58837890625 -11209.0009765625 4652.00048828125 -11209.0009765625 L 4654.00048828125 -11209.0009765625 L 4654.00048828125 -11207.0009765625 C 4654.00048828125 -11202.5888671875 4657.5888671875 -11198.9990234375 4661.99951171875 -11198.9990234375 L 4682.99853515625 -11198.9990234375 M 4682.99853515625 -11196.9990234375 L 4661.99951171875 -11196.9990234375 C 4656.4775390625 -11196.9990234375 4652.00048828125 -11201.4765625 4652.00048828125 -11207.0009765625 C 4646.4765625 -11207.0009765625 4641.9990234375 -11211.4775390625 4641.9990234375 -11216.9990234375 L 4641.9990234375 -11237.9990234375 C 4641.9990234375 -11243.5234375 4646.4765625 -11248 4652.00048828125 -11248 L 4673 -11248 C 4678.521484375 -11248 4682.99853515625 -11243.5234375 4682.99853515625 -11237.9990234375 C 4688.52294921875 -11237.9990234375 4693 -11233.521484375 4693 -11228 L 4693 -11207.0009765625 C 4693 -11201.4765625 4688.52294921875 -11196.9990234375 4682.99853515625 -11196.9990234375 Z" stroke="none" fill="#717ea0"/>
      </g>
    </g>
    <g id="Rectangle_792" data-name="Rectangle 792" transform="translate(890 399)" fill="#fff" stroke="#717ea0" stroke-width="2" opacity="0.22">
      <rect width="41" height="41" rx="10" stroke="none"/>
      <rect x="1" y="1" width="39" height="39" rx="9" fill="none"/>
    </g>
    <g id="Rectangle_793" data-name="Rectangle 793" transform="translate(900 409)" fill="#fff" stroke="#717ea0" stroke-width="2" opacity="0.22">
      <rect width="41" height="41" rx="10" stroke="none"/>
      <rect x="1" y="1" width="39" height="39" rx="9" fill="none"/>
    </g>
  </g>
</svg>
