<svg xmlns="http://www.w3.org/2000/svg" width="14" height="14" viewBox="0 0 14 14" fill="none">
    <path d="M6.20929 7.42884L2.77915 7.86141C2.6595 7.87613 2.61055 8.02339 2.69394 8.1099L3.68564 9.11678L0.902729 11.9423C0.875737 11.97 0.860596 12.0073 0.860596 12.0463C0.860596 12.0852 0.875737 12.1226 0.902729 12.1503L1.72038 12.9804C1.77658 13.0375 1.86904 13.0375 1.92524 12.9804L4.70997 10.1531L5.70166 11.16C5.7208 11.1794 5.74493 11.1929 5.7713 11.1991C5.79767 11.2052 5.82521 11.2037 5.85076 11.1946C5.8763 11.1856 5.89883 11.1694 5.91575 11.148C5.93267 11.1266 5.94329 11.1007 5.94641 11.0735L6.37065 7.59266C6.37365 7.57043 6.37155 7.5478 6.3645 7.52653C6.35745 7.50527 6.34565 7.48595 6.33003 7.47008C6.3144 7.45422 6.29537 7.44224 6.27443 7.43508C6.25348 7.42793 6.23119 7.42579 6.20929 7.42884Z" fill="#727272"/>
    <path d="M12.8965 0.0233154C12.9349 0.0233154 12.9717 0.0386881 12.9989 0.0660932L13.8184 0.894417C13.8746 0.951479 13.8746 1.04536 13.8184 1.10242L11.0337 3.92976L12.0254 4.93664C12.1088 5.02315 12.0598 5.17041 11.9402 5.18514L8.51003 5.6177C8.41575 5.62875 8.33779 5.5496 8.34867 5.45388L8.77472 1.97308C8.77784 1.9458 8.78847 1.91996 8.80539 1.89853C8.82231 1.8771 8.84483 1.86094 8.87038 1.85191C8.89593 1.84288 8.92346 1.84134 8.94983 1.84747C8.9762 1.8536 9.00034 1.86715 9.01947 1.88657L10.0112 2.89344L12.7941 0.0660932C12.8213 0.0386881 12.8581 0.0233154 12.8965 0.0233154Z" fill="#727272"/>
</svg>
