<svg xmlns="http://www.w3.org/2000/svg" width="14" height="14" viewBox="0 0 14 14" fill="none">
    <path d="M13.6949 0.475535L10.2008 0.909527C10.0789 0.924301 10.029 1.07204 10.114 1.15884L11.1242 2.16903L8.28937 5.00383C8.26187 5.0316 8.24645 5.0691 8.24645 5.10817C8.24645 5.14725 8.26187 5.18475 8.28937 5.21252L9.12227 6.04541C9.17952 6.10266 9.2737 6.10266 9.33095 6.04541L12.1676 3.20876L13.1778 4.21895C13.1973 4.23843 13.2219 4.25202 13.2487 4.25817C13.2756 4.26432 13.3036 4.26278 13.3297 4.25372C13.3557 4.24466 13.3786 4.22845 13.3959 4.20695C13.4131 4.18545 13.4239 4.15952 13.4271 4.13215L13.8592 0.639898C13.8623 0.617595 13.8602 0.594888 13.853 0.573552C13.8458 0.552217 13.8338 0.532832 13.8179 0.516914C13.802 0.500996 13.7826 0.488978 13.7612 0.481799C13.7399 0.474621 13.7172 0.472477 13.6949 0.475535V0.475535ZM5.59861 7.90327C5.57085 7.87577 5.53335 7.86035 5.49427 7.86035C5.45519 7.86035 5.4177 7.87577 5.38993 7.90327L2.55513 10.7399L1.54494 9.72973C1.52545 9.71025 1.50086 9.69666 1.474 9.69051C1.44714 9.68436 1.41909 9.6859 1.39307 9.69496C1.36704 9.70402 1.3441 9.72023 1.32686 9.74173C1.30963 9.76323 1.2988 9.78916 1.29562 9.81653L0.861631 13.3088C0.85055 13.4048 0.929962 13.4842 1.02599 13.4731L4.5201 13.0392C4.64198 13.0244 4.69185 12.8766 4.6069 12.7898L3.59671 11.7797L6.43336 8.943C6.49061 8.88575 6.49061 8.79157 6.43336 8.73432L5.59861 7.90327V7.90327Z" fill="#727272"/>
</svg>
