<svg xmlns="http://www.w3.org/2000/svg" width="22" height="28" viewBox="0 0 22 28" fill="none">
    <path d="M11 28C12.3444 28 13.4322 26.8409 13.4322 25.4084H8.56778C8.56778 26.8409 9.65556 28 11 28ZM19.5556 20.186V12.3721C19.5556 8.0093 16.6711 4.36279 12.8333 3.47721V1.95349C12.8333 0.872558 12.0144 0 11 0C9.98556 0 9.16667 0.872558 9.16667 1.95349V3.47721C5.32889 4.36279 2.44444 8.0093 2.44444 12.3721V20.186L0 22.7907V24.093H22V22.7907L19.5556 20.186ZM17.1111 21.4884H4.88889V12.3721C4.88889 8.77768 7.62667 5.86047 11 5.86047C14.3733 5.86047 17.1111 8.77768 17.1111 12.3721V21.4884Z" fill="#7166F8"/>
</svg>
