<svg width="31" height="23" viewBox="0 0 31 23" fill="none" xmlns="http://www.w3.org/2000/svg">
<path d="M28.6979 18.7415C28.6979 19.2386 28.4963 19.7153 28.1376 20.0667C27.7788 20.4182 27.2921 20.6156 26.7847 20.6156H3.82639C3.31898 20.6156 2.83235 20.4182 2.47356 20.0667C2.11476 19.7153 1.91319 19.2386 1.91319 18.7415V7.4966C1.91319 6.99954 2.11476 6.52285 2.47356 6.17138C2.83235 5.8199 3.31898 5.62245 3.82639 5.62245H6.06865C7.5901 5.62163 9.04896 5.0291 10.1246 3.97507L11.7126 2.42328C12.0703 2.0727 12.5553 1.87525 13.0614 1.87415H17.5459C18.0533 1.87426 18.5398 2.07178 18.8985 2.42328L20.4827 3.97507C21.0157 4.49742 21.6486 4.91177 22.3452 5.19443C23.0418 5.4771 23.7885 5.62254 24.5425 5.62245H26.7847C27.2921 5.62245 27.7788 5.8199 28.1376 6.17138C28.4963 6.52285 28.6979 6.99954 28.6979 7.4966V18.7415ZM3.82639 3.7483C2.81157 3.7483 1.83831 4.14321 1.12072 4.84615C0.403136 5.54909 0 6.50249 0 7.4966L0 18.7415C0 19.7356 0.403136 20.689 1.12072 21.3919C1.83831 22.0949 2.81157 22.4898 3.82639 22.4898H26.7847C27.7995 22.4898 28.7728 22.0949 29.4904 21.3919C30.208 20.689 30.6111 19.7356 30.6111 18.7415V7.4966C30.6111 6.50249 30.208 5.54909 29.4904 4.84615C28.7728 4.14321 27.7995 3.7483 26.7847 3.7483H24.5425C23.5277 3.74809 22.5546 3.35304 21.8372 2.65005L20.2531 1.09825C19.5357 0.39526 18.5626 0.000212294 17.5478 0H13.0633C12.0486 0.000212294 11.0755 0.39526 10.358 1.09825L8.77391 2.65005C8.05649 3.35304 7.08339 3.74809 6.06865 3.7483H3.82639Z" fill="white"/>
<path d="M15.3056 16.8675C14.0371 16.8675 12.8205 16.3738 11.9235 15.4951C11.0265 14.6165 10.5226 13.4247 10.5226 12.1821C10.5226 10.9394 11.0265 9.7477 11.9235 8.86902C12.8205 7.99034 14.0371 7.49671 15.3056 7.49671C16.5741 7.49671 17.7907 7.99034 18.6877 8.86902C19.5846 9.7477 20.0886 10.9394 20.0886 12.1821C20.0886 13.4247 19.5846 14.6165 18.6877 15.4951C17.7907 16.3738 16.5741 16.8675 15.3056 16.8675ZM15.3056 18.7416C17.0815 18.7416 18.7847 18.0505 20.0405 16.8204C21.2963 15.5902 22.0018 13.9218 22.0018 12.1821C22.0018 10.4424 21.2963 8.77395 20.0405 7.5438C18.7847 6.31365 17.0815 5.62256 15.3056 5.62256C13.5296 5.62256 11.8264 6.31365 10.5707 7.5438C9.31489 8.77395 8.6094 10.4424 8.6094 12.1821C8.6094 13.9218 9.31489 15.5902 10.5707 16.8204C11.8264 18.0505 13.5296 18.7416 15.3056 18.7416ZM5.73961 8.43378C5.73961 8.68231 5.63883 8.92066 5.45943 9.09639C5.28003 9.27213 5.03672 9.37086 4.78301 9.37086C4.52931 9.37086 4.28599 9.27213 4.1066 9.09639C3.9272 8.92066 3.82642 8.68231 3.82642 8.43378C3.82642 8.18526 3.9272 7.94691 4.1066 7.77117C4.28599 7.59544 4.52931 7.49671 4.78301 7.49671C5.03672 7.49671 5.28003 7.59544 5.45943 7.77117C5.63883 7.94691 5.73961 8.18526 5.73961 8.43378Z" fill="white"/>
</svg>
