<svg xmlns="http://www.w3.org/2000/svg" width="51.296" height="37.095" viewBox="0 0 51.296 37.095">
  <g id="Replace" transform="translate(-855.704 -560.726)">
    <path id="Path_470" data-name="Path 470" d="M-213.043-754.074l4.2-5.579A1.466,1.466,0,0,0-210.013-762h-8.4a1.466,1.466,0,0,0-1.171,2.348l4.2,5.579A1.466,1.466,0,0,0-213.043-754.074Z" transform="translate(1115.545 1350.311)" fill="#717ea0"/>
    <path id="Path_475" data-name="Path 475" d="M-213.043-754.074l4.2-5.579A1.466,1.466,0,0,0-210.013-762h-8.4a1.466,1.466,0,0,0-1.171,2.348l4.2,5.579A1.466,1.466,0,0,0-213.043-754.074Z" transform="translate(647.159 -192.764) rotate(180)" fill="#717ea0"/>
    <path id="Path_472" data-name="Path 472" d="M-279.263-774.263h-24.364a4.875,4.875,0,0,1-4.873-4.873V-803.5" transform="translate(1169.873 1371.084)" fill="none" stroke="#717ea0" stroke-linecap="round" stroke-linejoin="round" stroke-width="2"/>
    <path id="Path_473" data-name="Path 473" d="M-273.5-818.5h24.364a4.875,4.875,0,0,1,4.873,4.873v24.364" transform="translate(1145.593 1381.373)" fill="none" stroke="#717ea0" stroke-linecap="round" stroke-linejoin="round" stroke-width="2"/>
  </g>
</svg>
