<svg width="75" height="75" viewBox="0 0 75 75" fill="none" xmlns="http://www.w3.org/2000/svg">
<path d="M37.8824 46.4597C34.6349 46.4657 31.4236 47.1422 28.4496 48.4469C25.4757 49.7515 22.8032 51.6563 20.5996 54.0418C20.488 54.1627 20.4014 54.3045 20.3446 54.4589C20.2878 54.6134 20.262 54.7775 20.2686 54.9419C20.282 55.274 20.4268 55.5871 20.6711 55.8125C20.9154 56.0378 21.2392 56.1568 21.5712 56.1434C21.9033 56.13 22.2164 55.9853 22.4418 55.741C24.4096 53.6089 26.7966 51.9063 29.4532 50.74C32.1098 49.5736 34.9787 48.9686 37.8801 48.9628C40.8219 48.9672 43.7302 49.5883 46.4172 50.786C49.1043 51.9838 51.5103 53.7316 53.4801 55.9168C53.7047 56.1566 54.0145 56.2987 54.3428 56.3125C54.6712 56.3262 54.9918 56.2105 55.2357 55.9903C55.4796 55.7701 55.6273 55.4629 55.647 55.1348C55.6667 54.8068 55.5568 54.4841 55.341 54.2363C53.1357 51.7923 50.4427 49.8375 47.4357 48.4981C44.4286 47.1587 41.1743 46.4643 37.8824 46.4597Z" fill="#D1D1D1"/>
<path d="M24.6094 38.6719C27.1945 38.6719 29.2969 36.5695 29.2969 33.9844C29.2969 31.3992 27.1945 29.2969 24.6094 29.2969C22.0242 29.2969 19.9219 31.3992 19.9219 33.9844C19.9219 36.5695 22.0242 38.6719 24.6094 38.6719ZM24.6094 31.6406C25.0736 31.6402 25.5275 31.7774 25.9137 32.035C26.2998 32.2927 26.6009 32.659 26.7788 33.0878C26.9566 33.5166 27.0033 33.9885 26.9128 34.4438C26.8224 34.8992 26.5989 35.3174 26.2707 35.6457C25.9424 35.9739 25.5242 36.1974 25.0688 36.2878C24.6135 36.3783 24.1416 36.3316 23.7128 36.1538C23.284 35.9759 22.9177 35.6748 22.66 35.2887C22.4024 34.9025 22.2652 34.4486 22.2656 33.9844C22.2656 32.6906 23.318 31.6406 24.6094 31.6406Z" fill="#D1D1D1"/>
<path d="M50.3906 38.6719C52.9758 38.6719 55.0781 36.5695 55.0781 33.9844C55.0781 31.3992 52.9758 29.2969 50.3906 29.2969C47.8055 29.2969 45.7031 31.3992 45.7031 33.9844C45.7031 36.5695 47.8055 38.6719 50.3906 38.6719ZM50.3906 31.6406C50.8548 31.6402 51.3088 31.7774 51.6949 32.035C52.0811 32.2927 52.3822 32.659 52.56 33.0878C52.7379 33.5166 52.7845 33.9885 52.6941 34.4438C52.6036 34.8992 52.3802 35.3174 52.0519 35.6457C51.7237 35.9739 51.3054 36.1974 50.8501 36.2878C50.3948 36.3783 49.9229 36.3316 49.4941 36.1538C49.0653 35.9759 48.6989 35.6748 48.4413 35.2887C48.1837 34.9025 48.0464 34.4486 48.0469 33.9844C48.0469 32.6906 49.0992 31.6406 50.3906 31.6406Z" fill="#D1D1D1"/>
</svg>
