<svg width="19" height="19" viewBox="0 0 19 19" fill="none" xmlns="http://www.w3.org/2000/svg">
<path d="M18.5571 2.37143L16.6286 0.442857L16.1786 0.25H5.22429L4.58143 0.892857V4.10714H1.39286L0.75 4.75V17.6071L1.39286 18.25H14.25L14.8929 17.6071V14.3929H18.1071L18.75 13.75V2.82143L18.5571 2.37143ZM13.6071 16.9643H2.03571V5.39286H3.32143V9.34H11.0357V5.39286H12.0514L13.6071 6.94857V16.9643ZM7.17857 7.96429V5.39286H9.75V7.96429H7.17857ZM17.4643 13.1071H14.8929V6.67857L14.7 6.22857L12.7714 4.3L12.3214 4.10714H5.89286V1.53571H15.9343L17.49 3.09143L17.4643 13.1071Z" fill="#424242"/>
</svg>
