<svg width="95" height="94" viewBox="0 0 95 94" fill="none" xmlns="http://www.w3.org/2000/svg">
<path d="M40.8036 85.8943C37.7885 84.2208 34.7708 82.5501 31.7584 80.8685C28.144 78.8543 24.5324 76.832 20.9207 74.8069C19.3396 73.9212 17.7692 73.0163 16.1935 72.1196C16.6911 71.4982 17.0041 70.7786 17.2769 70.0373C18.2213 70.3453 19.2005 70.5143 20.1663 70.7296C21.6002 71.0485 23.0262 71.3973 24.4601 71.7135C25.8112 72.0133 27.1729 72.2586 28.5159 72.5938C28.9439 72.7001 29.0296 72.5339 29.1018 72.2095C29.2115 71.7189 29.4763 71.3074 29.7679 70.9176C30.4903 69.9555 32.1998 69.2742 33.0532 69.7348C33.8291 70.1545 34.2946 69.8874 34.7574 69.3069C35.6777 68.1567 36.6515 67.0529 37.7109 66.0335C38.1202 65.6411 38.0373 65.4149 37.6708 65.0306C34.8109 62.0161 33.8183 58.4348 34.6691 54.3438C34.7841 53.7933 34.6664 53.5725 34.1929 53.349C31.5978 52.1253 29.0108 50.8824 26.4372 49.6178C26.0546 49.4298 25.8379 49.5006 25.549 49.765C24.8267 50.4246 23.9278 50.7271 23.0021 50.5009C22.3145 50.3319 22.0791 50.5636 21.8196 51.1305C19.8987 55.3168 17.9538 59.495 16.0035 63.6678C15.8537 63.9894 15.7975 64.3955 15.4256 64.5781C15.019 64.5127 14.7194 64.2238 14.3689 64.0412C14.7033 63.9812 14.7595 63.6732 14.8719 63.4307C15.5327 62.0216 16.1774 60.6043 16.8328 59.1925C18.216 56.2217 19.6018 53.2509 20.9956 50.2883C21.1775 49.9013 21.1856 49.6124 20.8565 49.2962C20.3669 48.8301 20.0753 48.1678 20.094 47.5464C20.1208 46.617 19.7436 46.0392 19.0426 45.5759C18.8126 45.426 18.5878 45.2679 18.3685 45.1016C17.2689 44.2649 16.164 43.4282 15.0752 42.5778C14.8371 42.3898 14.6418 42.3462 14.409 42.5533C13.4058 43.4554 12.2688 44.1068 10.9632 44.4393C10.6261 44.5238 10.487 44.701 10.5111 45.0798C10.5887 46.2654 10.6154 47.4538 10.6904 48.6394C10.9044 52.0544 11.1345 55.4667 11.3565 58.8818C11.4501 60.3209 11.5545 61.7627 11.6187 63.2045C11.6347 63.5424 11.8354 63.5588 12.0414 63.6351C11.4956 63.7659 10.9525 63.8967 10.4068 64.0276C10.685 63.0082 10.3372 61.9971 10.3506 60.9777C10.364 60.0047 10.1927 59.0317 10.1339 58.056C9.92789 54.6409 9.76737 51.2204 9.51857 47.8081C9.45971 46.9959 9.49182 46.1782 9.3741 45.3687C9.31525 44.9681 9.18416 44.7773 8.72936 44.78C6.32158 44.7964 4.19204 43.9106 2.57081 42.1772C-0.575349 38.8139 -0.885684 34.0552 1.85918 30.4084C3.63825 28.0454 6.06208 26.9607 8.95943 26.9688C9.75667 26.9716 10.5539 27.1106 11.311 27.3913C11.608 27.5003 11.7391 27.4485 11.8541 27.1242C12.448 25.4344 13.0633 23.7528 13.684 22.0766C13.8606 21.5969 13.7348 21.2889 13.3523 20.9482C12.3437 20.0433 11.9611 18.8904 12.2955 17.5413C12.6273 16.2058 13.4513 15.3364 14.7648 14.9902C15.6397 14.7586 16.5252 14.8049 17.2743 15.3391C17.7719 15.6934 18.1357 15.5817 18.5825 15.3146C21.6029 13.5048 24.6314 11.706 27.6518 9.89628C27.8123 9.80088 27.9594 9.69459 28.1574 9.71367C28.4196 9.99439 28.5855 10.3378 28.754 10.6785C28.3928 10.8666 28.0183 11.0328 27.6732 11.2509C24.8962 13.0006 22.039 14.6577 19.1978 16.3339C18.8286 16.552 18.6788 16.8054 18.842 17.2933C19.7008 19.8716 17.499 22.0302 15.3721 21.8967C15.0056 21.8722 14.9147 21.9866 14.8076 22.2946C14.3127 23.7228 13.791 25.14 13.2827 26.5627C13.1195 27.0206 12.753 27.5521 12.868 27.9228C12.9831 28.288 13.6064 28.4733 13.9756 28.7759C14.2565 29.0048 14.4358 29.0348 14.7006 28.7295C15.6985 27.5739 16.7285 26.451 17.7371 25.3063C19.5697 23.2267 21.3942 21.139 23.2268 19.0567C24.816 17.2524 26.3864 15.4318 28.0103 13.6602C28.5855 13.0333 29.0777 12.3193 29.7599 11.7987C30.1131 12.0358 30.4635 12.2702 30.8167 12.5073C30.5786 12.6027 30.3672 12.7363 30.1987 12.9379C28.9092 14.467 27.5394 15.9224 26.2419 17.4378C25.2119 18.6424 24.115 19.7844 23.1198 21.0218C22.6944 21.5478 22.2423 22.0847 21.7581 22.5699C20.9822 23.3548 20.2813 24.2025 19.5536 25.031C19.0533 25.5979 18.5745 26.1948 18.0608 26.7372C17.1271 27.7211 16.2764 28.7731 15.3668 29.7734C15.1929 29.9669 15.332 30.0623 15.4283 30.1795C15.9259 30.7982 16.3299 31.4741 16.6483 32.2018C16.7874 32.5207 16.9292 32.5834 17.2769 32.4689C18.6868 32.011 20.1128 31.5968 21.5334 31.1743C25.0567 30.1304 28.5801 29.092 32.1035 28.0536C32.4325 27.9555 32.6064 27.8628 32.5182 27.3859C32.2212 25.7887 33.2351 24.0362 34.7841 23.6056C35.5439 23.393 35.5573 23.006 35.4931 22.4145C35.164 19.362 34.8457 16.3094 34.522 13.2568C34.9072 13.2377 35.2657 13.0388 35.659 13.096C35.7419 13.8346 35.8382 14.5732 35.9104 15.3146C36.1539 17.8166 36.384 20.3213 36.6354 22.8234C36.6675 23.1259 36.6943 23.4584 37.0876 23.611C38.3343 24.088 39.0165 25.061 39.276 26.3583C39.3482 26.7181 39.5141 26.8571 39.8886 26.8326C40.528 26.7917 41.1647 26.759 41.8041 26.7018C43.7384 26.5273 45.6753 26.4101 47.6122 26.2711C50.2795 26.0803 52.9441 25.8841 55.6114 25.7069C57.9603 25.5516 60.3119 25.4208 62.6608 25.2681C63.3109 25.2273 63.7523 25.0992 63.9449 24.2379C64.5148 21.6596 67.0857 20.6702 69.2474 22.1202C69.5979 22.3546 69.852 22.3355 70.1891 22.1774C71.9735 21.3271 73.782 20.5258 75.5451 19.6345C76.3316 19.2366 77.2412 19.0513 77.8833 18.3726C78.2016 19.1685 78.6538 19.8744 79.2396 20.493C78.5039 20.97 77.9635 21.6786 77.4258 22.3355C76.246 23.7827 74.8923 25.0637 73.7098 26.5082C73.1801 27.1569 72.637 27.841 72.0163 28.4134C71.1335 29.2256 70.3817 30.1631 69.5952 31.0571C68.913 31.8312 68.188 32.5752 67.5165 33.3602C67.0028 33.9625 66.5641 34.6684 65.9354 35.1645C65.4939 35.516 65.1569 35.9439 64.7984 36.3691C64.2071 37.0669 63.6373 37.8191 62.9792 38.4187C62.1739 39.1546 61.5398 40.0295 60.8175 40.8199C59.9855 41.7329 59.1347 42.6487 58.3241 43.5917C56.9196 45.2325 55.4161 46.7887 54.0008 48.424C53.6557 48.822 53.7627 49.0509 54.049 49.3534C55.1218 50.4845 55.8281 51.8446 56.3043 53.3191C56.4701 53.8342 56.6628 53.8723 57.1202 53.7388C60.6222 52.714 64.1242 51.6919 67.6449 50.7298C68.1452 50.5935 68.1291 50.4573 68.0141 50.0648C67.4389 48.1215 68.9478 45.6795 71.088 45.7449C71.5027 45.7585 71.6391 45.5704 71.7595 45.2243C73.3272 40.6727 74.903 36.1238 76.4841 31.5777C77.6906 28.1027 78.9079 24.6331 80.1198 21.1581C80.5719 21.3352 81.0267 21.5124 81.4789 21.6868C81.0508 21.7332 80.9813 22.0793 80.8689 22.4118C79.4296 26.6145 77.993 30.8173 76.5376 35.0145C75.3337 38.4841 74.1138 41.951 72.8724 45.4069C72.7199 45.8321 72.835 46.012 73.1533 46.2491C74.6809 47.3829 75.1464 49.0918 74.3545 50.817C74.1833 51.1932 74.2743 51.3349 74.5017 51.5638C76.3744 53.4581 78.2551 55.3468 80.0957 57.2738C80.497 57.6935 80.7886 57.6635 81.1846 57.3528C81.9283 56.7695 82.7363 56.2762 83.6378 56.0337C84.2398 55.8701 84.4083 55.5676 84.3093 55.0116C84.0739 53.6952 84.1836 52.3624 84.0926 51.0351C83.9535 49.0127 83.9134 46.985 83.8037 44.9599C83.6298 41.752 83.5094 38.5386 83.381 35.328C83.2687 32.5561 83.2339 29.7761 83.0493 27.0097C82.961 25.7097 82.9583 24.4041 82.8727 23.1014C82.8192 22.2864 82.6854 21.8258 81.8427 21.7849C82.6239 21.7686 83.4131 21.8204 84.1809 21.6132C84.0659 21.774 83.9321 21.8858 83.9455 22.1474C84.1274 25.5216 84.3013 28.8958 84.4404 32.2727C84.5234 34.2759 84.609 36.2792 84.7106 38.2824C84.8899 41.7983 85.0049 45.3197 85.1521 48.8383C85.2404 50.9342 85.3367 53.0301 85.4276 55.1288C85.4356 55.3387 85.4276 55.5213 85.7273 55.5758C86.7974 55.772 87.1077 55.554 87.2174 54.4665C87.2308 54.3275 87.2361 54.1858 87.2575 54.0468C87.8648 50.1629 88.4721 46.2818 89.0901 42.4007C89.1249 42.1881 89.1169 42.09 88.9028 41.97C86.4255 40.5828 86.0911 37.83 88.1752 35.9085C88.4026 35.6986 88.44 35.5651 88.3705 35.2707C87.3378 30.8309 86.3212 26.3856 85.3046 21.9403C85.243 21.6677 85.235 21.3652 84.8631 21.3271C85.2778 21.0463 85.6925 20.7656 86.1071 20.4876C86.6636 22.8642 87.2254 25.2409 87.7765 27.6202C88.3303 29.9996 88.8841 32.379 89.4111 34.7638C89.4994 35.1645 89.6867 35.2462 90.0291 35.2217C91.9473 35.0881 93.499 36.4972 93.6462 38.5386C93.7585 40.0922 92.8382 41.8365 90.8451 42.2181C90.3341 42.3162 90.2084 42.526 90.1442 42.9321C89.8579 44.7937 89.5743 46.6579 89.2881 48.5194C88.9537 50.7026 88.646 52.8939 88.2554 55.0688C88.1538 55.6357 88.3223 55.7884 88.7851 55.9546C92.1266 57.1402 94.2641 59.4705 94.8688 63.0382C95.666 67.7588 92.6804 72.1659 88.2046 73.1362C85.2404 73.7794 82.6346 73.0272 80.3793 70.9912C80.1412 70.7759 79.978 70.7132 79.6677 70.8877C73.7633 74.191 67.8509 77.4834 61.9358 80.7649C58.9154 82.4411 55.8843 84.09 52.8585 85.7526C52.6899 85.3737 52.5214 84.9949 52.3502 84.6133C52.7087 84.4552 53.0859 84.338 53.4176 84.1364C54.9773 83.1879 56.5879 82.3402 58.1797 81.4517C59.4745 80.7295 60.7613 79.9963 62.0696 79.2986C63.8085 78.3719 65.4913 77.3389 67.2115 76.3714C68.3833 75.7118 69.5952 75.1258 70.7563 74.4445C73.1212 73.0599 75.5129 71.7271 77.9341 70.4516C79.2075 69.7811 79.2102 69.792 78.5788 68.5165C78.4451 68.2466 78.3247 67.9659 78.2177 67.6852C78.116 67.4181 77.9823 67.3609 77.6906 67.4235C73.5626 68.3039 69.4293 69.1733 65.296 70.0291C64.9535 70.1 64.9321 70.2308 64.9696 70.5524C65.2719 73.2043 62.6046 75.2921 60.253 74.1637C59.4906 73.7985 59.2337 74.0847 58.8485 74.5753C57.4092 76.4177 55.9404 78.2356 54.5118 80.089C53.5942 81.28 52.5803 82.3948 51.7589 83.6621C51.4379 83.3351 51.1142 83.008 50.7932 82.6809C50.9376 82.6728 51.0553 82.6128 51.149 82.4956C52.1174 81.2691 53.0886 80.0454 54.0597 78.8189C55.3412 77.1972 56.6146 75.5701 57.9068 73.9593C58.3857 73.3624 58.803 72.8528 58.3375 71.9779C57.8854 71.1302 58.0834 70.1627 58.5489 69.3614C58.8485 68.8435 58.6532 68.6228 58.3215 68.3366C57.0346 67.2191 55.7344 66.1153 54.477 64.9679C54.1319 64.6517 53.942 64.6653 53.637 64.9842C51.7589 66.9439 49.4555 68.0313 46.7989 68.3584C46.4592 68.3993 46.3816 68.5356 46.3896 68.8435C46.4164 69.6803 46.4592 70.5197 46.4966 71.3565C46.6036 73.7086 46.5688 76.0689 46.7106 78.421C46.7668 79.3613 46.6304 80.3288 46.9514 81.25C46.5314 81.2882 46.1114 81.3291 45.6913 81.3672C45.4853 79.5112 45.5897 77.6415 45.472 75.78C45.3302 73.4987 45.3329 71.2065 45.29 68.9198C45.282 68.5601 45.2258 68.3747 44.8058 68.3584C42.8368 68.2739 41.047 67.6089 39.4151 66.505C39.1315 66.3143 38.9763 66.2761 38.7329 66.5568C37.5959 67.8678 36.4455 69.1651 35.2791 70.4489C35.049 70.7023 34.9366 70.855 35.1694 71.2011C36.0549 72.523 36.0014 73.883 35.148 75.194C34.9099 75.5592 34.934 75.8045 35.255 76.0089C35.9639 76.4586 36.4508 77.1427 37.0555 77.7014C37.1063 77.7478 37.1625 77.7914 37.2133 77.8377C37.9865 78.5409 38.781 79.2223 39.5301 79.95C40.5574 80.9475 41.558 81.975 42.7004 82.839C42.4328 83.1143 42.1653 83.3868 41.8978 83.6621C40.7527 82.839 39.8084 81.7815 38.765 80.8412C37.2374 79.4676 35.7392 78.0585 34.241 76.6521C33.9922 76.4177 33.7889 76.3741 33.4545 76.4831C31.6647 77.0582 29.9418 76.2487 29.2249 74.4908C29.0831 74.1392 28.9038 73.9975 28.5534 73.9212C26.5228 73.4851 24.5029 73.0136 22.4724 72.5693C20.9341 72.2341 19.4172 71.8007 17.8548 71.5799C17.7933 71.4655 17.697 71.4382 17.5793 71.4736C17.5632 71.4791 17.5525 71.5091 17.5418 71.5282C17.6435 71.55 17.7478 71.569 17.8495 71.5909C19.0186 72.324 20.2251 72.9918 21.437 73.6513C23.085 74.548 24.6875 75.5292 26.3221 76.4504C27.8444 77.3062 29.388 78.1239 30.9103 78.9742C32.1543 79.6693 33.3823 80.3942 34.6236 81.0974C35.8516 81.7924 37.0849 82.482 38.3209 83.1633C39.2974 83.703 40.2819 84.229 41.2637 84.7605C41.1086 85.1339 40.9561 85.5127 40.8036 85.8943ZM77.7495 20.215C77.4793 20.057 77.3429 20.196 77.2118 20.2587C75.1357 21.2344 73.0731 22.2401 70.9863 23.1913C70.4754 23.4257 70.4031 23.6601 70.5583 24.1861C71.0131 25.7451 70.0848 27.5521 68.5438 28.258C67.281 28.8358 65.3736 28.4761 64.4586 26.977C64.3088 26.7317 64.175 26.4156 63.8058 26.4456C62.6019 26.5382 61.3954 26.6145 60.1888 26.6827C57.9389 26.808 55.6943 27.0615 53.4444 27.225C51.7589 27.3477 50.0655 27.3586 48.3881 27.5303C47.6818 27.6012 46.9755 27.6175 46.2719 27.6666C44.4768 27.7974 42.6816 27.95 40.8865 28.0836C39.9314 28.1544 38.8961 28.0209 38.4466 29.2174C38.4092 29.3182 38.3075 29.4164 38.2112 29.4654C37.6253 29.7652 37.6654 30.204 37.8367 30.76C39.3214 35.5869 40.7955 40.4192 42.2402 45.257C42.39 45.7585 42.6147 45.7966 43.0374 45.7149C46.4511 45.0444 49.624 45.5077 52.3876 47.8244C52.6017 48.0043 52.7461 48.0316 52.9548 47.7863C53.8778 46.7015 54.8971 45.6958 55.812 44.6083C57.1042 43.0739 58.4953 41.6375 59.7982 40.114C61.7967 37.7782 63.8968 35.5297 65.9621 33.2511C67.6529 31.3869 69.3544 29.5336 71.0452 27.672C72.7253 25.8214 74.4214 23.9871 76.0587 22.0984C76.6018 21.4742 77.2225 20.8991 77.7495 20.215ZM23.4141 43.5209C23.7271 43.559 24.0428 43.4854 24.3665 43.589C26.183 44.1777 27.1568 45.8348 26.7689 47.8026C26.694 48.176 26.7555 48.3559 27.0873 48.514C29.2837 49.5579 31.4694 50.6235 33.6685 51.6592C34.1635 51.8936 34.6664 52.4305 35.148 52.297C35.6804 52.1498 35.6884 51.3349 36.0442 50.8824C36.0736 50.847 36.1004 50.8089 36.1245 50.768C37.2882 48.8901 38.872 47.481 40.8196 46.4998C41.2236 46.2954 41.3761 46.1183 41.1915 45.6549C40.9587 45.0744 40.8009 44.4612 40.619 43.8588C39.3 39.5171 37.9811 35.1754 36.6702 30.8282C36.5873 30.5529 36.5311 30.4302 36.1833 30.4493C35.1132 30.5066 34.1715 30.1713 33.4358 29.3291C33.2646 29.1302 33.1014 29.0566 32.767 29.1656C30.8835 29.7816 28.976 30.3239 27.0766 30.8936C23.9759 31.8257 20.8806 32.766 17.7772 33.6818C17.3572 33.8044 17.2074 33.9298 17.2903 34.4313C17.6809 36.767 17.1833 38.9284 15.8617 40.8771C15.629 41.2205 15.653 41.4386 15.9848 41.6839C17.3064 42.665 18.62 43.6544 19.8773 44.7228C20.2144 45.009 20.5595 45.1616 20.9555 44.6547C21.5628 43.8779 22.3788 43.4173 23.4141 43.5209ZM79.6356 58.7673C79.6222 58.5384 79.4885 58.4348 79.3761 58.3204C77.4606 56.3689 75.5424 54.4202 73.6295 52.4632C73.3834 52.2125 73.1426 52.1389 72.835 52.3188C71.5455 53.071 70.3309 52.823 69.1805 51.9972C68.8996 51.7955 68.6722 51.7982 68.3565 51.8909C66.2109 52.5178 64.0573 53.1174 61.9064 53.7279C60.3681 54.164 58.8298 54.5946 57.2968 55.0388C57.0266 55.1179 56.7243 55.1479 56.7858 55.6139C57.1416 58.2631 56.5424 60.7161 55.1753 62.9701C54.8329 63.5342 54.9773 63.8831 55.4027 64.2211C56.4862 65.0823 57.5082 66.0145 58.5087 66.9766C58.8351 67.29 59.3086 67.4208 59.5307 67.8705C59.627 68.0695 59.8062 67.9577 59.9507 67.8951C61.7539 67.1047 62.9524 67.35 64.2392 68.7645C64.3409 68.8762 64.4051 69.0997 64.6057 68.9689C65.0097 68.7073 65.4886 68.8081 65.8952 68.6827C67.6074 68.1594 69.3785 67.9305 71.1148 67.5326C73.1293 67.072 75.1571 66.6659 77.1797 66.238C77.5703 66.1562 77.7763 65.9627 77.6987 65.5157C77.6318 65.1259 77.5756 64.7253 77.597 64.3355C77.7013 62.4032 78.2739 60.6343 79.4296 59.078C79.5098 58.9663 79.5794 58.8491 79.6356 58.7673ZM78.0197 19.858C78.001 19.8526 77.9796 19.8389 77.9635 19.8417C77.8993 19.8607 77.8966 19.8907 77.9555 19.918C77.9689 19.9234 77.9983 19.9152 78.0117 19.9016C78.0224 19.8989 78.017 19.8744 78.0197 19.858Z" fill="#A9B4C0"/>
<path d="M39.9475 5.4809C41.526 5.23833 43.1071 5.00394 44.6855 4.74774C47.73 4.25442 50.7745 3.7502 53.819 3.25144C54.7206 3.10426 55.6221 2.94618 56.5291 2.83443C56.8662 2.79355 56.9143 2.57279 57.0079 2.33294C57.6286 0.722167 58.9422 -0.12274 60.6116 0.0108098C62.0482 0.125281 63.2762 1.30815 63.5972 2.88077C63.6159 2.97071 63.6561 3.07155 63.6373 3.15604C63.3805 4.25715 64.0734 4.68778 64.8733 5.16202C69.2849 7.78123 73.6724 10.4413 78.0706 13.0878C78.306 13.2295 78.5308 13.4039 78.8304 13.3658C78.2846 14.0717 77.9422 14.8784 77.6987 15.737C77.4312 15.7724 77.2252 15.5298 77.0032 15.5217C75.6842 15.4699 74.4215 15.0965 73.1373 14.8703C72.0833 14.6849 71.0212 14.4969 69.9698 14.2952C69.0147 14.1126 68.0168 14.0199 67.0671 13.8073C66.1735 13.6084 65.2613 13.4966 64.3677 13.3195C63.4581 13.1396 62.5137 13.0033 61.5907 12.8507C60.4216 12.6572 59.2552 12.3655 58.0914 12.172C56.6655 11.9349 55.2289 11.706 53.8056 11.4525C52.6311 11.2426 51.446 10.9864 50.2689 10.7629C48.4389 10.4168 46.6064 10.0734 44.7711 9.77357C43.1178 9.50375 41.4698 9.20394 39.8271 8.87961C39.9128 8.49531 39.9984 8.11101 40.0813 7.72672C40.6431 7.82484 41.2076 7.92023 41.7694 8.01835C45.7958 8.7297 49.8248 9.43561 53.8484 10.1551C57.3771 10.7875 60.9032 11.4443 64.4319 12.0794C68.0489 12.7307 71.6659 13.3849 75.291 13.9981C76.0053 14.118 76.7142 14.3824 77.6345 14.287C76.0588 13.314 74.6328 12.42 73.1989 11.5479C71.7622 10.6757 70.3069 9.82808 68.8702 8.95592C67.1714 7.92568 65.4806 6.88454 63.7898 5.84339C63.3377 5.56539 62.9953 5.4809 62.5538 5.97694C61.6228 7.02354 60.3976 7.14346 59.1321 6.75916C57.9898 6.41302 57.2889 5.5872 56.9464 4.42886C56.8849 4.22172 56.925 3.90556 56.4889 4.00095C55.5633 4.20264 54.6216 4.33619 53.6852 4.49427C51.858 4.80225 50.0308 5.12113 48.2008 5.41004C46.3148 5.70984 44.4313 6.04781 42.5399 6.304C41.732 6.41302 40.9508 6.74008 40.1161 6.63652C40.0599 6.25494 40.0037 5.86792 39.9475 5.4809Z" fill="#A9B4C0"/>
<path d="M52.3555 84.6158C52.5241 84.9946 52.6926 85.3735 52.8639 85.7551C53.2116 87.3931 53.1769 88.9875 52.409 90.5192C50.9938 93.3429 47.7567 94.6865 44.8192 93.6536C41.8603 92.6151 40.1267 89.5653 40.7153 86.4446C40.7501 86.262 40.7768 86.0767 40.8063 85.8913C40.9587 85.5125 41.1086 85.1336 41.2611 84.7548C41.4751 84.3896 41.6864 84.0244 41.9005 83.6591C42.168 83.3839 42.4355 83.1113 42.703 82.836C43.5886 82.1083 44.5731 81.5932 45.694 81.3643C46.1141 81.3261 46.5341 81.2852 46.9541 81.2471C48.3774 81.3288 49.6695 81.7785 50.7985 82.6807C51.1196 83.0077 51.4433 83.3348 51.7643 83.6619C51.9596 83.9807 52.1576 84.2996 52.3555 84.6158Z" fill="#435261"/>
<path d="M39.9476 5.4806C40.0038 5.86763 40.0573 6.25465 40.1135 6.64167C40.1028 7.00416 40.0921 7.36665 40.0787 7.72642C39.9931 8.11072 39.9075 8.49501 39.8246 8.87931C39.1236 10.9889 37.6495 12.308 35.6564 13.0984C35.2632 13.0412 34.902 13.2428 34.5194 13.2592C34.07 13.2565 33.6178 13.251 33.1684 13.2483C33.1176 13.2483 33.0667 13.251 33.0159 13.251C32.8019 13.2047 32.5879 13.1584 32.3765 13.112C32.315 13.1038 32.2534 13.0957 32.1919 13.0875C31.7318 12.894 31.2743 12.7005 30.8141 12.507C30.461 12.2698 30.1105 12.0354 29.7574 11.7983C29.4283 11.4195 29.0966 11.0434 28.7675 10.6645C28.5963 10.3238 28.4331 9.98041 28.1709 9.69969C27.7295 8.45958 27.4673 7.18677 27.7108 5.87035C28.2592 2.91318 30.667 0.686439 33.3931 0.58287C36.6329 0.460222 39.1209 2.31629 39.9476 5.4806Z" fill="#435261"/>
<path d="M17.277 70.0371C17.0042 70.7784 16.6911 71.4979 16.1935 72.1193C14.7596 73.6838 13.0153 74.2698 10.982 73.6838C9.05315 73.1278 7.85997 71.7732 7.456 69.789C6.99852 67.5459 7.95628 65.172 10.4176 64.0219C10.9633 63.891 11.5064 63.7602 12.0522 63.6294C12.2822 63.6348 12.5123 63.6376 12.7424 63.643C12.9243 63.7139 13.1089 63.7439 13.3015 63.6975C13.66 63.8093 14.0158 63.9237 14.3743 64.0355C14.7248 64.2181 15.0244 64.507 15.4311 64.5724C16.9613 66.0742 17.7399 67.8403 17.277 70.0371Z" fill="#435261"/>
<path d="M77.6963 15.7396C77.9371 14.8838 78.2795 14.0771 78.8279 13.3684C81.5273 10.3186 86.0138 11.3597 87.3274 14.8211C88.1326 16.9389 87.6323 18.8494 86.1074 20.4902C85.6928 20.7709 85.2781 21.0516 84.8634 21.3296C84.636 21.425 84.4086 21.5204 84.1812 21.6158C83.4134 21.823 82.6242 21.7712 81.843 21.7875C81.7226 21.7548 81.5995 21.7221 81.4792 21.6894C81.027 21.5123 80.5722 21.3351 80.1174 21.1607L80.0934 21.1252C80.0425 21.0952 79.9917 21.0625 79.9409 21.0326C79.7054 20.8527 79.47 20.6728 79.2373 20.4902C78.6487 19.8742 78.1966 19.1656 77.8809 18.3697C77.6374 17.5085 77.5813 16.6309 77.6963 15.7396Z" fill="#435261"/>
<path d="M17.847 71.5878C17.7453 71.566 17.641 71.5469 17.5393 71.5251C17.5527 71.506 17.5607 71.4761 17.5768 71.4706C17.6945 71.4352 17.7908 71.4652 17.8523 71.5769C17.8523 71.5796 17.847 71.5878 17.847 71.5878Z" fill="#FEFEFE"/>
<path d="M78.0201 19.8582C78.0174 19.8745 78.0228 19.899 78.0147 19.9045C77.9987 19.9154 77.9719 19.9263 77.9586 19.9208C77.897 19.8936 77.9024 19.8609 77.9666 19.8445C77.98 19.8391 78.0014 19.8527 78.0201 19.8582Z" fill="#FEFEFE"/>
<path d="M32.3765 13.1124C32.3069 13.1724 32.2454 13.1588 32.1919 13.0879C32.2534 13.0961 32.3149 13.1042 32.3765 13.1124Z" fill="#A9B4C0"/>
<path d="M33.1684 13.2485C33.1175 13.3357 33.0694 13.3439 33.0159 13.2513C33.0667 13.2485 33.1175 13.2485 33.1684 13.2485Z" fill="#A9B4C0"/>
<path d="M12.7451 63.6435C12.9431 63.5372 13.133 63.5208 13.3043 63.698C13.109 63.7443 12.9244 63.7144 12.7451 63.6435Z" fill="#A9B4C0"/>
<path d="M80.0958 21.1283C80.0049 21.1637 79.9594 21.1256 79.9434 21.0356C79.9942 21.0656 80.045 21.0983 80.0958 21.1283Z" fill="#A9B4C0"/>
</svg>
