<svg xmlns="http://www.w3.org/2000/svg" width="122.883" height="122.882" viewBox="0 0 122.883 122.882"><path d="M0 61.441h.018c0 16.976 6.872 32.335 17.98 43.443 11.108 11.107 26.467 17.979 43.441 17.979v.018h.002v-.018c16.974 0 32.335-6.872 43.443-17.98s17.98-26.467 17.98-43.441h.018v-.002h-.018c0-16.975-6.873-32.334-17.98-43.443C93.775 6.89 78.418.018 61.443.018V0h-.002v.018c-16.975 0-32.335 6.872-43.443 17.98C6.89 29.106.018 44.465.018 61.439H0v.002zM42.48 71.7a4.957 4.957 0 01-6.912-7.107l22.521-21.839 3.456 3.553-3.46-3.569a4.972 4.972 0 017.189.283L87.33 64.594a4.957 4.957 0 11-6.912 7.107L61.53 53.227 42.48 71.7z"/></svg>