<svg width="15" height="15" viewBox="0 0 15 15" fill="none" xmlns="http://www.w3.org/2000/svg">
<path d="M6.87988 12.4126C8.21112 12.4123 9.50399 11.9667 10.5526 11.1466L13.8496 14.4436L14.9101 13.3831L11.6131 10.0861C12.4336 9.03735 12.8796 7.74418 12.8799 6.4126C12.8799 3.10435 10.1881 0.412598 6.87988 0.412598C3.57163 0.412598 0.879883 3.10435 0.879883 6.4126C0.879883 9.72085 3.57163 12.4126 6.87988 12.4126ZM6.87988 1.9126C9.36163 1.9126 11.3799 3.93085 11.3799 6.4126C11.3799 8.89435 9.36163 10.9126 6.87988 10.9126C4.39813 10.9126 2.37988 8.89435 2.37988 6.4126C2.37988 3.93085 4.39813 1.9126 6.87988 1.9126Z" fill="#7166F8"/>
</svg>
