<svg width="25" height="25" viewBox="0 0 32 31" fill="none" xmlns="http://www.w3.org/2000/svg">
<path d="M28.0181 18.9427L26.0352 17.2474C26.129 16.6722 26.1774 16.0849 26.1774 15.4976C26.1774 14.9103 26.129 14.323 26.0352 13.7478L28.0181 12.0525C28.1676 11.9245 28.2747 11.7539 28.325 11.5636C28.3753 11.3732 28.3664 11.1721 28.2996 10.9869L28.2724 10.9082C27.7265 9.38245 26.909 7.96811 25.8596 6.73345L25.8051 6.66987C25.6778 6.52018 25.5081 6.41257 25.3184 6.36123C25.1287 6.30989 24.9279 6.31723 24.7425 6.38228L22.2813 7.25718C21.3731 6.51245 20.3589 5.92515 19.263 5.51343L18.7877 2.94019C18.7518 2.74656 18.6579 2.56844 18.5184 2.42947C18.3789 2.2905 18.2004 2.19727 18.0066 2.16216L17.9249 2.14702C16.3477 1.86245 14.6887 1.86245 13.1114 2.14702L13.0297 2.16216C12.8359 2.19727 12.6574 2.2905 12.5179 2.42947C12.3784 2.56844 12.2845 2.74656 12.2486 2.94019L11.7703 5.52554C10.6832 5.93734 9.67076 6.52434 8.77325 7.26323L6.29385 6.38228C6.10848 6.31671 5.90754 6.30911 5.71774 6.36048C5.52793 6.41185 5.35826 6.51976 5.23126 6.66987L5.17676 6.73345C4.12854 7.96898 3.31124 9.38309 2.76397 10.9082L2.73672 10.9869C2.60049 11.3653 2.71251 11.7891 3.01827 12.0525L5.0254 13.766C4.93155 14.3351 4.88614 14.9164 4.88614 15.4946C4.88614 16.0758 4.93155 16.6571 5.0254 17.2232L3.01827 18.9367C2.8687 19.0647 2.76166 19.2352 2.71137 19.4256C2.66108 19.6159 2.66992 19.8171 2.73672 20.0023L2.76397 20.081C3.31192 21.6068 4.12325 23.0145 5.17676 24.2557L5.23126 24.3193C5.35857 24.469 5.52825 24.5766 5.71794 24.6279C5.90763 24.6793 6.10842 24.6719 6.29385 24.6069L8.77325 23.7259C9.6754 24.4676 10.6835 25.0549 11.7703 25.4636L12.2486 28.049C12.2845 28.2426 12.3784 28.4207 12.5179 28.5597C12.6574 28.6987 12.8359 28.7919 13.0297 28.827L13.1114 28.8421C14.7032 29.1282 16.3332 29.1282 17.9249 28.8421L18.0066 28.827C18.2004 28.7919 18.3789 28.6987 18.5184 28.5597C18.6579 28.4207 18.7518 28.2426 18.7877 28.049L19.263 25.4757C20.3584 25.0651 21.3783 24.4759 22.2813 23.732L24.7425 24.6069C24.9279 24.6725 25.1288 24.6801 25.3186 24.6287C25.5084 24.5773 25.6781 24.4694 25.8051 24.3193L25.8596 24.2557C26.9131 23.0115 27.7244 21.6068 28.2724 20.081L28.2996 20.0023C28.4358 19.6299 28.3238 19.2061 28.0181 18.9427ZM23.8857 14.105C23.9614 14.5622 24.0008 15.0314 24.0008 15.5006C24.0008 15.9699 23.9614 16.4391 23.8857 16.8962L23.6859 18.1102L25.9474 20.0447C25.6045 20.8345 25.1718 21.5821 24.6577 22.2728L21.8483 21.2768L20.8978 22.0579C20.1742 22.6512 19.369 23.1174 18.4971 23.4444L17.3437 23.8773L16.8018 26.8138C15.9468 26.9107 15.0835 26.9107 14.2285 26.8138L13.6866 23.8712L12.5423 23.4323C11.6795 23.1053 10.8773 22.6391 10.1598 22.0488L9.20919 21.2647L6.38165 22.2698C5.867 21.5765 5.43712 20.8288 5.092 20.0417L7.37764 18.089L7.18087 16.8781C7.10821 16.427 7.06885 15.9608 7.06885 15.5006C7.06885 15.0375 7.10518 14.5743 7.18087 14.1232L7.37764 12.9123L5.092 10.9596C5.43409 10.1695 5.867 9.42476 6.38165 8.73149L9.20919 9.73657L10.1598 8.95249C10.8773 8.36216 11.6795 7.89595 12.5423 7.56899L13.6897 7.13608L14.2315 4.19351C15.0822 4.09663 15.9511 4.09663 16.8048 4.19351L17.3467 7.13003L18.5001 7.56294C19.369 7.88989 20.1773 8.3561 20.9008 8.94946L21.8514 9.73052L24.6607 8.73452C25.1754 9.42778 25.6053 10.1755 25.9504 10.9626L23.689 12.8971L23.8857 14.105ZM15.5212 9.86978C12.5786 9.86978 10.1931 12.2553 10.1931 15.1979C10.1931 18.1405 12.5786 20.526 15.5212 20.526C18.4638 20.526 20.8493 18.1405 20.8493 15.1979C20.8493 12.2553 18.4638 9.86978 15.5212 9.86978ZM17.9189 17.5956C17.6044 17.9109 17.2307 18.161 16.8192 18.3314C16.4077 18.5019 15.9666 18.5892 15.5212 18.5885C14.616 18.5885 13.7653 18.2343 13.1235 17.5956C12.8082 17.2811 12.5581 16.9074 12.3877 16.4959C12.2173 16.0844 12.1299 15.6433 12.1306 15.1979C12.1306 14.2927 12.4848 13.442 13.1235 12.8002C13.7653 12.1584 14.616 11.8073 15.5212 11.8073C16.4264 11.8073 17.2771 12.1584 17.9189 12.8002C18.2342 13.1147 18.4843 13.4884 18.6547 13.8999C18.8251 14.3114 18.9125 14.7525 18.9118 15.1979C18.9118 16.1031 18.5576 16.9538 17.9189 17.5956Z" fill="#424242"/>
</svg>
