<svg width="13" height="14" viewBox="0 0 13 14" fill="none" xmlns="http://www.w3.org/2000/svg">
<path d="M10.5274 9.62176C10.0601 9.62176 9.62888 9.79783 9.29111 10.0919L5.89374 7.45255C5.95062 7.11726 5.95062 6.77368 5.89374 6.43838L9.29111 3.79907C9.62888 4.09311 10.0601 4.26918 10.5274 4.26918C11.6129 4.26918 12.495 3.32191 12.495 2.15632C12.495 0.990723 11.6129 0.043457 10.5274 0.043457C9.44196 0.043457 8.55982 0.990723 8.55982 2.15632C8.55982 2.36056 8.58606 2.556 8.63689 2.74264L5.41004 5.25166C4.93125 4.57026 4.17045 4.12832 3.31291 4.12832C1.86345 4.12832 0.689453 5.38899 0.689453 6.94547C0.689453 8.50194 1.86345 9.76262 3.31291 9.76262C4.17045 9.76262 4.93125 9.32068 5.41004 8.63928L8.63689 11.1483C8.58606 11.3349 8.55982 11.5321 8.55982 11.7346C8.55982 12.9002 9.44196 13.8475 10.5274 13.8475C11.6129 13.8475 12.495 12.9002 12.495 11.7346C12.495 10.569 11.6129 9.62176 10.5274 9.62176ZM10.5274 1.24074C10.998 1.24074 11.38 1.65099 11.38 2.15632C11.38 2.66164 10.998 3.07189 10.5274 3.07189C10.0568 3.07189 9.67479 2.66164 9.67479 2.15632C9.67479 1.65099 10.0568 1.24074 10.5274 1.24074ZM3.31291 8.4949C2.51767 8.4949 1.87001 7.79942 1.87001 6.94547C1.87001 6.09152 2.51767 5.39604 3.31291 5.39604C4.10815 5.39604 4.75581 6.09152 4.75581 6.94547C4.75581 7.79942 4.10815 8.4949 3.31291 8.4949ZM10.5274 12.6502C10.0568 12.6502 9.67479 12.2399 9.67479 11.7346C9.67479 11.2293 10.0568 10.819 10.5274 10.819C10.998 10.819 11.38 11.2293 11.38 11.7346C11.38 12.2399 10.998 12.6502 10.5274 12.6502Z" fill="#7166F8"/>
</svg>
