<svg xmlns="http://www.w3.org/2000/svg" width="24" height="24" viewBox="0 0 24 24"><path d="M20 3a3 3 0 00-6 0c0 .312.061.606.149.889l-4.21 3.157c.473.471.878 1.01 1.201 1.599l4.197-3.148A3.002 3.002 0 0020 3zm-2 0a1.001 1.001 0 01-2 0 1.001 1.001 0 012 0zm3 12.062a3 3 0 000-6A2.994 2.994 0 0018.203 11H11.92c.047.328.08.66.08 1s-.033.672-.08 1h6.244A2.99 2.99 0 0021 15.062zm-1-3a1.001 1.001 0 111 1 1 1 0 01-1-1zM0 12a5 5 0 1010 0 5 5 0 00-10 0zm2 0c0-1.654 1.346-3 3-3s3 1.346 3 3-1.346 3-3 3-3-1.346-3-3zm7.939 4.955l4.21 3.157A2.962 2.962 0 0014 21a3 3 0 101.338-2.496l-4.197-3.148a7.078 7.078 0 01-1.202 1.599zM16 21a1.001 1.001 0 111 1c-.552 0-1-.449-1-1z"/></svg>