<svg width="17" height="24" viewBox="0 0 17 24" fill="none" xmlns="http://www.w3.org/2000/svg">
<g clip-path="url(#clip0)">
<path d="M5.27295 17.1404C5.93634 17.9881 6.54011 18.881 7.07989 19.8128C7.54076 20.689 7.73289 21.2832 8.0697 22.339C8.27626 22.9224 8.46295 23.0965 8.86432 23.0965C9.3017 23.0965 9.50014 22.8003 9.65345 22.3422C9.97183 21.3451 10.2216 20.5842 10.6158 19.8652C11.3891 18.477 12.3501 17.2435 13.2944 16.058C13.55 15.7224 15.2028 13.7677 15.9468 12.2253C15.9468 12.2253 16.8613 10.531 16.8613 8.16476C16.8613 5.95137 15.9595 4.41626 15.9595 4.41626L13.3629 5.11353L11.786 9.27803L11.3959 9.85228L11.3179 9.95631L11.2141 10.0865L11.032 10.2945L10.7718 10.5554L9.36757 11.7026L5.85695 13.7351L5.27295 17.1404Z" fill="#34A853"/>
<path d="M1.6499 11.9404C2.50671 13.9028 4.15896 15.6279 5.27684 17.1418L11.2144 10.0892C11.2144 10.0892 10.3779 11.1862 8.86053 11.1862C7.17034 11.1862 5.8049 9.83285 5.8049 8.12634C5.8049 6.95609 6.50703 6.15216 6.50703 6.15216L2.47646 7.2351L1.6499 11.9404V11.9404Z" fill="#FBBC04"/>
<path d="M11.2807 0.465212C13.2527 1.10276 14.9406 2.44121 15.9615 4.41488L11.2162 10.0852C11.2162 10.0852 11.9183 9.26669 11.9183 8.10372C11.9183 6.35747 10.4519 5.05293 8.86771 5.05293C7.36965 5.05293 6.50928 6.14809 6.50928 6.14809V2.57588L11.2807 0.465149V0.465212Z" fill="#4285F4"/>
<path d="M2.7373 2.97065C3.91512 1.55762 5.98762 0.102539 8.84487 0.102539C10.2311 0.102539 11.2755 0.467469 11.2755 0.467469L6.50449 6.15123H3.12418L2.7373 2.97071V2.97065Z" fill="#1A73E8"/>
<path d="M1.64958 11.9405C1.64958 11.9405 0.861328 10.3926 0.861328 8.15029C0.861328 6.03096 1.68295 4.17843 2.73727 2.97064L6.50714 6.15173L1.64958 11.9405Z" fill="#EA4335"/>
</g>
<defs>
<clipPath id="clip0">
<rect width="16" height="23" fill="white" transform="translate(0.861328 0.102539)"/>
</clipPath>
</defs>
</svg>
