<svg xmlns="http://www.w3.org/2000/svg" xmlns:xlink="http://www.w3.org/1999/xlink" version="1.1" x="0px" y="0px" viewBox="0 0 65 81.25" enable-background="new 0 0 65 65" xml:space="preserve"><path d="M62.078,53.162h-2.823l0.002-41.324l2.822,0c0.474,0,0.919-0.185,1.253-0.519s0.518-0.78,0.517-1.252l0.001-7.144  c0-0.977-0.795-1.771-1.771-1.771h-7.146c-0.475,0-0.92,0.185-1.254,0.52c-0.334,0.334-0.518,0.779-0.517,1.251v2.823L11.838,5.745  l0-2.823c-0.001-0.972-0.795-1.767-1.771-1.771L2.921,1.153c-0.977,0-1.771,0.794-1.771,1.771v7.146  c0,0.977,0.794,1.771,1.771,1.771h2.824L5.743,53.163H2.92c-0.473,0-0.918,0.185-1.252,0.519c-0.334,0.335-0.518,0.78-0.517,1.253  L1.15,62.079c0,0.977,0.794,1.771,1.771,1.771h7.146c0.474,0,0.92-0.185,1.254-0.52c0.334-0.335,0.518-0.779,0.517-1.251v-2.824  l41.325,0.002v2.819c-0.001,0.474,0.183,0.919,0.517,1.253c0.335,0.335,0.78,0.52,1.254,0.52l7.145,0.001  c0.977,0,1.771-0.794,1.771-1.771v-7.146c0-0.474-0.184-0.918-0.519-1.253C62.997,53.347,62.552,53.162,62.078,53.162z   M54.662,2.921c0-0.097,0.049-0.161,0.078-0.19c0.029-0.03,0.094-0.079,0.192-0.079h7.146c0.149,0,0.271,0.122,0.271,0.271  l-0.001,7.146c0,0.092-0.042,0.154-0.078,0.19c-0.029,0.029-0.094,0.079-0.193,0.079l-7.145,0.001c-0.149,0-0.271-0.122-0.271-0.271  V2.921z M2.65,10.069V2.924c0-0.152,0.119-0.271,0.271-0.271l7.143-0.002c0.151,0,0.274,0.124,0.274,0.272l-0.001,7.146  c0,0.149-0.123,0.271-0.273,0.271H6.502c-0.002,0-0.005-0.001-0.007-0.001S6.49,10.34,6.488,10.34H2.921  C2.772,10.34,2.65,10.219,2.65,10.069z M10.338,62.08c0,0.097-0.049,0.161-0.078,0.19c-0.03,0.029-0.094,0.079-0.193,0.079H2.921  c-0.149,0-0.271-0.121-0.271-0.271l0.001-7.146c0-0.099,0.049-0.162,0.078-0.191c0.03-0.029,0.094-0.079,0.193-0.079l7.145-0.001  c0.149,0,0.271,0.122,0.271,0.271V62.08z M11.838,57.755v-2.821c0-0.977-0.794-1.771-1.771-1.771H7.243L7.245,11.84h2.822  c0,0,0.001,0,0.002,0c0.976-0.002,1.769-0.797,1.769-1.771l0-2.825l41.324,0.001v2.822c0,0.976,0.794,1.771,1.771,1.771l2.824,0  l-0.002,41.324h-2.822c-0.977,0-1.771,0.795-1.771,1.771v2.823L11.838,57.755z M62.35,62.079c0,0.149-0.122,0.271-0.271,0.271  l-7.146-0.001c-0.097,0-0.16-0.049-0.189-0.078c-0.03-0.03-0.079-0.094-0.079-0.193l-0.001-7.144c0-0.149,0.121-0.271,0.271-0.271  h7.147c0.148,0,0.27,0.122,0.27,0.271V62.079z"/></svg>