<svg width="1681" height="113" viewBox="0 0 1681 113" fill="none" xmlns="http://www.w3.org/2000/svg">
<path d="M0.44458 5.55878C0.44458 2.79735 2.68316 0.558777 5.44458 0.558777H1675.44C1678.21 0.558777 1680.44 2.79735 1680.44 5.55878V107.354C1680.44 110.115 1678.21 112.354 1675.44 112.354H5.44456C2.68314 112.354 0.44458 110.115 0.44458 107.354V5.55878Z" fill="#7A70F8"/>
<mask id="mask0" mask-type="alpha" maskUnits="userSpaceOnUse" x="0" y="0" width="1681" height="113">
<path d="M0.44458 5.55872C0.44458 2.79729 2.68316 0.558716 5.44458 0.558716H1675.44C1678.21 0.558716 1680.44 2.79729 1680.44 5.55872V107.354C1680.44 110.115 1678.21 112.354 1675.44 112.354H5.44456C2.68314 112.354 0.44458 110.115 0.44458 107.354V5.55872Z" fill="#7A70F8"/>
</mask>
<g mask="url(#mask0)">
<path d="M1627.45 30.458C1603.79 18.8581 1579.95 7.60274 1556.4 -4.29038C1514.73 -25.3227 563.638 -500.611 487.681 -539.303C471.501 -547.545 457.696 -546.566 442.851 -535.757C377.459 -487.538 311.777 -439.715 245.806 -392.291C232.641 -382.706 227.092 -371.419 229.349 -355.294C237.064 -301.433 403.22 790.073 422.093 914.076C425.494 936.185 434.831 944.74 456.936 948.024C525.7 958.295 594.527 967.769 663.07 979.649C674.614 982.115 686.554 982.005 698.04 979.329C709.527 976.654 720.278 971.476 729.53 964.167C1009.92 759.102 1591.41 335.834 1601.3 328.585C1605.58 325.487 1609.18 321.549 1611.89 317.011C1614.6 312.473 1616.36 307.429 1617.06 302.186C1629.01 228.534 1641.38 154.95 1653.3 81.2627C1657.96 52.7959 1652.69 42.8365 1627.45 30.458ZM378.89 -409.419C405.612 -427.533 431.654 -446.655 457.176 -466.418C466.214 -473.428 473.209 -473.313 482.523 -468.393C520.671 -449.036 1482.96 31.9991 1514.27 47.2626C1525.31 52.7035 1527.14 56.8428 1515.81 65.0416C1293.37 226.605 1071.09 388.442 848.975 550.554C837.807 558.686 832.929 559.124 830.52 543.968C824.849 508.588 813.493 474.449 807.998 438.941C805.877 424.918 807.652 417.13 819.512 408.549C953.939 311.372 1228.34 111.473 1231.42 109.074C1253.5 91.8697 1252.18 64.9691 1227.37 52.0073C1179 26.9962 427.751 -367.694 379.808 -392.265C368.143 -398.427 367.325 -401.536 378.89 -409.419ZM731.819 75.0946C731.087 71.5343 734.071 68.9051 737.36 70.4522C778.193 89.6583 955.106 194.209 970.861 202.909C978.942 207.386 982.376 210.63 972.515 217.541C914.775 259.151 857.262 301.025 799.977 343.163C787.513 352.238 787.961 342.626 786.411 335.273C771.222 263.055 739.239 111.193 731.819 75.0946ZM628.023 892.223C631.632 903.874 629.124 908.009 615.804 905.682C581.797 899.737 547.591 895.064 513.496 889.881C484.073 885.376 484.038 885.401 479.362 854.772C470.146 794.435 302.06 -303.181 297.579 -334.059C296.747 -340.057 293.417 -347.133 300.01 -352.793C307.209 -358.946 313.922 -354.655 320.137 -351.343C408.112 -304.975 1126.14 72.3498 1131.9 75.4035C1151.06 85.4519 1151.16 85.3754 1134.42 97.6209C1107.65 117.113 1080.87 136.606 1054.1 156.099C1048.39 160.258 1043.03 165.272 1035.29 165.48C1035.21 165.482 1035.24 165.493 1035.16 165.482C1033.67 165.266 1030.41 163.376 1029.12 162.604C979.909 133.188 567.422 -104.765 513.563 -135.788C507.037 -140.164 499.161 -142.051 491.371 -141.103C471.095 -137.828 459.119 -121.754 462.698 -99.9892C481.62 15.7652 623.333 877.172 628.023 892.223ZM1581.72 107.999C1581.6 108.382 1581.48 108.765 1581.42 109.161C1572.81 162.22 1563.9 215.292 1555.63 268.433C1555.01 272.783 1553.47 276.948 1551.11 280.648C1548.75 284.349 1545.62 287.498 1541.94 289.885C1280.62 479.895 764.237 856.095 704.956 899.281C702.129 901.341 698.669 900.078 697.997 896.645C681.856 814.19 556.23 57.8427 542.166 -27.1906C541.434 -31.4346 538.166 -36.7319 541.804 -39.756C546.685 -43.7935 550.858 -38.1356 554.902 -35.8191C584.353 -18.9879 613.557 -1.76152 643.116 14.7764C646.248 16.3932 648.96 18.7199 651.036 21.5708C653.112 24.4217 654.493 27.7176 655.07 31.1951C660.956 55.4673 754.787 501.464 779.206 615.792C787.093 652.672 809.069 660.56 839.459 638.433L1576.26 101.98C1577.47 101.098 1579.14 100.826 1580.2 101.883C1580.77 102.451 1581.23 103.128 1581.53 103.873C1581.84 104.618 1582 105.416 1582 106.222C1581.99 106.826 1581.9 107.424 1581.72 107.999Z" fill="url(#paint0_linear)"/>
</g>
<defs>
<linearGradient id="paint0_linear" x1="-580.186" y1="-1753.39" x2="1218.81" y2="519.887" gradientUnits="userSpaceOnUse">
<stop stop-color="#FE794F"/>
<stop offset="1" stop-color="#7A70F8"/>
</linearGradient>
</defs>
</svg>
