<svg xmlns="http://www.w3.org/2000/svg" viewBox="0 0 455.731 455.731"><path fill="#fff" d="M0 0v455.731h455.731V0H0zm361.271 163.944c.104 2.676.161 5.362.161 8.067 0 108.339-87.831 196.18-196.18 196.18-38.568 0-74.545-11.132-104.875-30.368a.918.918 0 01-.02-.003l.02.003c59.293 8.843 101.06-28.888 101.06-28.888-52.832-4.109-63.271-48.077-63.271-48.077 18.667 3.16 30.368-1.272 30.368-1.272-59.465-13.912-54.407-68.329-54.407-68.329 13.77 8.228 29.733 8.864 29.733 8.864-52.509-46.188-19.607-91.105-19.607-91.105 55.052 66.668 135.975 71.204 141.289 71.423a68.67 68.67 0 01-1.784-15.592c0-37.998 30.814-68.803 68.841-68.803 19.825 0 37.685 8.37 50.25 21.78a223.578 223.578 0 0010.088-3.103c19.493-6.501 33.415-13.932 33.415-13.932-3.359 20.129-28.176 37.021-29.951 38.207-.066.047-.104.066-.104.066.038 0 .085-.009.123-.009 19.265-1.927 38.948-10.107 38.948-10.107-5.94 12.487-30.178 31.913-34.097 34.998z"/></svg>