<svg width="18" height="12" viewBox="0 0 18 12" fill="none" xmlns="http://www.w3.org/2000/svg">
<path fill-rule="evenodd" clip-rule="evenodd" d="M7.50443 0.606892C7.50457 0.502617 7.4558 0.400921 7.36495 0.316037C7.27411 0.231153 7.14572 0.167329 6.99777 0.133496C6.84982 0.0996623 6.6897 0.0975135 6.53983 0.12735C6.38996 0.157186 6.25782 0.217514 6.16193 0.299892L0.911927 4.79989C0.809511 4.88766 0.753906 4.99569 0.753906 5.10689C0.753906 5.21809 0.809511 5.32612 0.911927 5.41389L6.16193 9.91389C6.25782 9.99627 6.38996 10.0566 6.53983 10.0864C6.6897 10.1163 6.84982 10.1141 6.99777 10.0803C7.14572 10.0465 7.27411 9.98263 7.36495 9.89775C7.4558 9.81287 7.50457 9.71117 7.50443 9.60689V7.61189C11.5387 7.66789 13.4767 8.17839 14.4502 8.73339C15.3757 9.26089 15.5452 9.88139 15.7214 10.5314L15.7672 10.6989C15.8008 10.8187 15.899 10.9263 16.0433 11.0012C16.1875 11.0762 16.3679 11.1134 16.5505 11.1059C16.733 11.0984 16.9052 11.0467 17.0346 10.9605C17.1639 10.8743 17.2416 10.7596 17.2529 10.6379C17.3812 9.26389 17.1884 7.27289 15.7327 5.60739C14.3197 3.99089 11.7749 2.74789 7.50443 2.61789V0.606892Z" fill="#757575"/>
</svg>
