<svg width="17" height="18" viewBox="0 0 17 18" fill="none" xmlns="http://www.w3.org/2000/svg">
<path d="M16.6718 5.05375C16.6718 5.81308 16.5466 6.54692 16.2961 7.25525C16.0457 7.96358 15.6984 8.58408 15.2542 9.11675L8.90318 16.6647L8.02424 15.6277L14.3752 8.07975C15.0746 7.26375 15.4243 6.25508 15.4243 5.05375C15.4243 4.04508 15.1478 3.20925 14.595 2.54625C14.0421 1.88325 13.3451 1.55175 12.504 1.55175C11.54 1.55175 10.6894 1.97675 9.95222 2.82675L2.9633 11.1397C2.4057 11.8084 2.12689 12.5621 2.12689 13.4007C2.12689 14.0467 2.30174 14.5766 2.65142 14.9902C3.0011 15.4039 3.44529 15.6107 3.98399 15.6107C4.69281 15.6107 5.32602 15.2764 5.88362 14.6077L11.2281 8.28375C11.729 7.66042 11.9794 7.11075 11.9794 6.63475C11.9794 6.39675 11.9038 6.20975 11.7526 6.07375C11.6014 5.93775 11.4218 5.86975 11.2139 5.86975C10.7603 5.86975 10.3539 6.09642 9.99475 6.54975L5.1748 12.2617L4.31005 11.2247L9.11582 5.51275C9.73958 4.76475 10.4389 4.39075 11.2139 4.39075C11.7621 4.39075 12.2346 4.60042 12.6315 5.01975C13.0285 5.43908 13.227 5.97175 13.227 6.61775C13.227 7.50175 12.8536 8.40275 12.107 9.32075L6.76255 15.6447C5.96868 16.5967 5.04249 17.0727 3.98399 17.0727C3.10506 17.0727 2.37025 16.7242 1.77957 16.0272C1.18889 15.3302 0.893555 14.4547 0.893555 13.4007C0.893555 12.1541 1.29049 11.0547 2.08437 10.1027L9.07329 1.78975C10.0562 0.645087 11.1997 0.0727539 12.504 0.0727539C13.6853 0.0727539 14.6753 0.548754 15.4739 1.50075C16.2725 2.45275 16.6718 3.63708 16.6718 5.05375Z" fill="white"/>
</svg>
